<ttFont>
<head>
    <!-- Most of this table will be recalculated by the compiler -->
    <tableVersion value="1.0"/>
    <fontRevision value="2.004"/>
    <checkSumAdjustment value="0x8c1a4ff9"/>
    <magicNumber value="0x5f0f3cf5"/>
    <flags value="00000000 00000011"/>
    <unitsPerEm value="1000"/>
    <created value="Thu Oct  8 09:59:07 2009"/>
    <modified value="Thu Oct  8 09:59:07 2009"/>
    <xMin value="-511"/>
    <yMin value="-295"/>
    <xMax value="1637"/>
    <yMax value="1133"/>
    <macStyle value="00000000 00000001"/>
    <lowestRecPPEM value="3"/>
    <fontDirectionHint value="2"/>
    <indexToLocFormat value="0"/>
    <glyphDataFormat value="0"/>
  </head>
          <CharString index="0">
            557 24 rmoveto
            23 4 -13 0 -13 hhcurveto
            -61 1 2 13 4 23 36 215 rcurveline
            89 15 -60 65 -149 hhcurveto
            -57 -123 -4 -88 -15 hvcurveto
            -44 -7 32 -19 27 hhcurveto
            31 35 21 42 7 hvcurveto
            5 30 -16 17 -3 2 rrcurveto
            6 29 33 1 12 hhcurveto
            75 28 -42 -76 -13 hvcurveto
            -6 -34 -71 -3 -256 -9 -24 -145 rlinecurve
            hintmask 10000000
            -96 -16 121 -18 69 hhcurveto
            80 54 41 42 29 hvcurveto
            hintmask 01000000
            -31 -5 -8 -46 104 hhcurveto
            48 hlineto
            20 12 0 24 4 hvcurveto
            -182 115 rmoveto
            hintmask 10100000
            -96 -16 -94 -13 -25 hhcurveto
            -51 -34 35 44 7 hvcurveto
            18 108 161 14 50 3 rrcurveto
            return
          </CharString>
          <CharString index="1">
            856 339 rmoveto
            216 36 -122 142 -222 hhcurveto
            -229 -163 -148 -210 -35 hvcurveto
            -207 -35 116 -143 227 hhcurveto
            230 162 145 205 35 hvcurveto
            -151 15 rmoveto
            -12 -70 -18 -89 -54 -69 rrcurveto
            -73 -57 -74 -22 -54 hhcurveto
            -59 -68 28 76 -28 hvcurveto
            -23 62 4 71 14 86 11 64 17 85 55 68 rrcurveto
            61 51 72 25 59 hhcurveto
            64 64 -28 -66 29 hvcurveto
            27 -64 -9 -77 -11 -68 rrcurveto
            return
          </CharString>
          <CharString index="2">
            578 218 rmoveto
            134 23 -75 101 -163 hhcurveto
            -164 -108 -102 -133 -23 hvcurveto
            -124 -20 71 -100 167 hhcurveto
            168 104 101 123 20 hvcurveto
            -126 11 rmoveto
            -87 -14 -18 -108 -127 hhcurveto
            -127 18 108 87 14 hvcurveto
            8 45 8 51 23 34 rrcurveto
            37 25 46 21 49 hhcurveto
            42 39 -16 -35 16 hvcurveto
            15 -34 -9 -55 -8 -48 rrcurveto
            return
          </CharString>
          <CharString index="3">
            615 86 callsubr
            61 364 -68 callgsubr
            -31 -191 rlineto
            -82 -14 -60 -53 -73 hhcurveto
            -77 1 25 54 9 hvcurveto
            57 341 -68 callgsubr
            -38 -233 rlineto
            -107 -18 77 -22 99 hhcurveto
            26 72 0 78 59 hvcurveto
            -13 -78 rlineto
            return
          </CharString>
          <CharString index="4">
            rmoveto
            51 8 -19 43 -43 hhcurveto
            -35 -27 -26 -32 -5 hvcurveto
            -30 -5 15 -29 39 hhcurveto
            24 17 13 2 2 hvcurveto
            -19 -82 -56 -39 -18 -14 -5 -4 -2 -2 -1 -4 rrcurveto
            -8 -1 7 -7 6 hhcurveto
            11 89 64 104 18 hvcurveto
            endchar
          </CharString>
          <CharString index="5">
            18 111 -67 81 -88 19 -140 31 rcurveline
            -38 9 -51 34 11 61 rrcurveto
            43 7 38 62 100 hhcurveto
            80 95 -34 -136 1 hvcurveto
            -24 -1 -2 21 24 1 5 23 4 vhcurveto
            31 183 rlineto
            19 3 1 9 -18 hhcurveto
            -8 -1 -1 -10 -13 hvcurveto
            -52 -44 rlineto
            46 -50 -64 9 -48 hhcurveto
            -152 -88 -96 -105 -17 hvcurveto
            -11 -65 25 -46 18 -22 40 -49 33 -7 105 -24 85 -19 17 -3 18 -21 13 -15 20 -26 -7 -46 rrcurveto
            -48 -8 -38 -69 -104 hhcurveto
            -76 -149 20 149 17 hvcurveto
            18 2 1 5 -22 hhcurveto
            -24 -1 -6 -23 -4 hvcurveto
            -30 -182 rlineto
            -19 -3 -2 -9 18 hhcurveto
            9 2 2 7 10 hvcurveto
            53 46 return
          </CharString>
          <CharString index="6">
            111 callgsubr
            -36 -35 0 -11 hhcurveto
            -20 -16 55 callgsubr
            -43 -19 -25 callsubr
            -31 hvcurveto
            -58 -52 22 -25 rlineto
            34 36 35 0 11 hhcurveto
            20 16 30 callgsubr
            43 33 callsubr
            28 4 27 31 hvcurveto
            endchar
          </CharString>
          <CharString index="7">
            71 callgsubr
            -13 -9 -9 -14 hvcurveto
            -152 -111 17 -42 171 54 19 6 24 213 callgsubr
          </CharString>
          <CharString index="8">
            -17 -101 -3 -19 -5 -29 -42 -23 rlinecurve
            -15 -29 -33 -6 -32 hhcurveto
            -86 -81 29 62 -39 hvcurveto
            -34 55 -1 71 15 91 19 112 30 58 45 49 rrcurveto
            50 48 83 37 96 -71 callsubr
            -246 -179 -147 -207 -35 hvcurveto
            -199 -33 119 -155 258 hhcurveto
            33 103 2 62 61 hvcurveto
            -27 26 56 -26 7 hhcurveto
            14 2 13 15 3 hvcurveto
            return
          </CharString>
          <CharString index="9">
            rmoveto
            -36 hlineto
            -83 -16 -82 -42 -64 hhcurveto
            -64 -68 42 83 12 hvcurveto
            -36 hlineto
            -116 -16 73 -71 89 hhcurveto
            89 97 72 115 22 hvcurveto
            return
          </CharString>
          <CharString index="10">
            rmoveto
            39 7 -26 31 -39 hhcurveto
            -39 -36 -31 -39 -7 hvcurveto
            -38 -6 26 -32 39 hhcurveto
            39 36 32 38 6 hvcurveto
            257 hmoveto
            39 7 -26 31 -39 hhcurveto
            -39 -36 -31 -39 -7 hvcurveto
            -38 -6 26 -32 39 hhcurveto
            39 36 32 38 6 hvcurveto
            return
          </CharString>
          <CharString index="11">
            855 339 rmoveto
            16 97 -15 96 -58 67 -4 5 -4 5 -5 4 48 18 38 52 9 55 rrcurveto
            42 7 -20 39 -39 hhcurveto
            -45 -28 -33 -33 -5 hvcurveto
            -34 -6 16 -33 45 hhcurveto
            5 hlineto
            -16 -20 -22 -16 -24 -7 rrcurveto
            38 -55 -72 16 -74 hhcurveto
            -99 -103 -29 -69 -81 hvcurveto
            -80 -67 -47 -96 -16 -97 -16 -95 15 -94 58 -66 rrcurveto
            -67 60 93 -28 98 hhcurveto
            98 103 28 67 82 hvcurveto
            80 66 47 94 16 95 rrcurveto
            -150 18 rmoveto
            -14 -84 -20 -86 -57 -69 rrcurveto
            -55 -45 -68 -32 -65 hhcurveto
            -66 -55 32 55 -27 hvcurveto
            -35 69 9 86 14 84 12 77 21 80 55 62 rrcurveto
            53 46 67 28 64 hhcurveto
            64 56 -28 -53 29 hvcurveto
            35 -62 -8 -80 -12 -77 rrcurveto
            return
          </CharString>
          <CharString index="12">
            655 496 rmoveto
            43 7 -21 39 -40 hhcurveto
            -44 -28 -34 -33 -6 hvcurveto
            -33 -5 17 -34 44 hhcurveto
            5 hlineto
            -15 -20 -22 -15 -24 -7 rrcurveto
            36 -42 -58 15 -61 hhcurveto
            -67 -72 -19 -45 -57 hvcurveto
            -54 -44 -33 -63 -11 -64 -10 -62 13 -60 39 -41 rrcurveto
            -44 44 64 -17 67 hhcurveto
            68 70 17 44 58 hvcurveto
            53 41 33 60 10 62 10 55 -7 54 -28 42 51 16 42 53 10 58 rrcurveto
            -203 -265 rmoveto
            -9 -51 -10 -60 -29 -36 rrcurveto
            -34 -28 -43 -15 -41 hhcurveto
            -41 -38 15 34 -16 hvcurveto
            -17 36 10 60 9 51 8 48 9 56 29 34 rrcurveto
            33 27 44 15 40 hhcurveto
            41 38 -15 -33 17 hvcurveto
            17 -34 -9 -56 -8 -48 rrcurveto
            return
          </CharString>
          <CharString index="13">
            rmoveto
            -94 callgsubr
            return
          </CharString>
          <CharString index="14">
            111 callgsubr
            -35 41 callgsubr
            -41 hvcurveto
            15 -43 -19 2 -14 hhcurveto
            -18 -27 -4 -27 -32 hvcurveto
            -58 -52 22 -25 rlineto
            34 36 35 0 11 hhcurveto
            20 16 30 callgsubr
            44 18 -2 14 hhcurveto
            18 28 4 27 31 hvcurveto
            endchar
          </CharString>
          <CharString index="15">
            -43 -98 67 callsubr
            108 hlineto
            -68 -408 rlineto
            -133 -23 90 -109 207 hhcurveto
            190 105 117 123 20 hvcurveto
            64 381 return
          </CharString>
          <CharString index="16">
            -20 hstemhm
            91 232 -224 173 -173 214 -214 232 -181 173 -115 232 -173 173 -65 214 -206 173 -173 214 -72 173 -165 173 -8 173 -165 173 hintmask 010000000000001001000000
            871 397 108 callgsubr
            -2 -23 -30 -1 -24 hhcurveto
            -96 127 callgsubr
            9 49 -1 -11 -2 hvcurveto
            -3 -4 -6 -2 -3 vhcurveto
            -147 -256 rlineto
            hintmask 010000000000000100000000
            -68 280 rlineto
            hintmask 010000000001000000000000
            56 hlineto
            hintmask 010000000000010000000000
            8 47 -114 -3 rlineto
            -42 -42 2 1 -16 hvcurveto
            hintmask 010000000001000000000000
            -56 callsubr
            59 hlineto
            13 -50 -1 -3 0 vvcurveto
            hintmask 000000000100000000000000
            -4 -4 -6 -2 -3 vhcurveto
            -111 -192 rlineto
            hintmask 010000000010000000000000
            -62 258 rlineto
            hintmask 010010000000000000000000
            56 hlineto
            hintmask 010000010000000000000000
            -71 callgsubr
            hintmask 000000000100000000000000
            -123 -3 rlineto
            hintmask 010000010000000000000000
            -109 3 rlineto
            hintmask 010010000000000000000000
            -56 callsubr
            hintmask 010000001000000000000000
            59 hlineto
            91 -374 rlineto
            hintmask 100001000000000000000000
            -17 4 2 -10 25 hhcurveto
            hintmask 000000100000001000000000
            25 6 10 17 10 hvcurveto
            149 259 63 -259 rlineto
            hintmask 100000000000100000000000
            -17 4 2 -10 25 hhcurveto
            hintmask 010000000000010010000000
            25 6 10 17 10 hvcurveto
            203 353 rlineto
            13 7 5 8 59 hhcurveto
            hintmask 001100000000000000000000
            return
          </CharString>
          <CharString index="17">
            hintmask 00100000
            956 -32 callgsubr
            hintmask 01000000
            -114 -3 rlineto
            hintmask 00100000
            -39 -56 0 3 -37 -39 callsubr
            23 27 0 -10 24 hvcurveto
            -3 -4 0 -2 -6 -6 -233 -275 rcurveline
            -153 297 rlineto
            85 -33 callgsubr
            hintmask 01000000
            -3 -41 -97 0 -45 hhcurveto
            hintmask 00100010
            -40 -90 142 callsubr
            98 hlineto
            188 -365 rlineto
            hintmask 10000100
            -38 -227 17 callsubr
            43 96 75 callgsubr
            -109 hlineto
            hintmask 01000010
            38 227 292 345 12 14 8 0 22 3 rlinecurve
            hintmask 00100000
            2 17 19 1 17 hhcurveto
            return
          </CharString>
          <CharString index="18">
            83 -76 -127 1 hvcurveto
            -19 -1 1 -2 23 hhcurveto
            26 1 2 26 5 hvcurveto
            36 215 rlineto
            19 3 1 9 -18 hhcurveto
            -9 -2 -2 -7 -9 hvcurveto
            -76 -59 rlineto
            return
          </CharString>
          <CharString index="19">
            69 11 -27 56 -58 hhcurveto
            -46 -37 -12 callgsubr
            -40 -7 21 -38 51 hhcurveto
            22 21 8 15 19 hvcurveto
            -25 -112 -79 -55 -25 -17 -5 -3 -4 -3 -1 -7 rrcurveto
            -10 -2 9 -10 8 hhcurveto
            14 return
          </CharString>
          <CharString index="20">
            -99 callgsubr
            endchar
          </CharString>
          <CharString index="21">
            rmoveto
            -40 -7 -26 -3 -39 hhcurveto
            -39 -26 3 40 7 hvcurveto
            40 7 29 3 36 hhcurveto
            36 29 -3 -40 -7 hvcurveto
            54 -1 rmoveto
            41 7 -25 44 -87 hhcurveto
            -90 -37 -47 -36 -6 hvcurveto
            -41 -7 25 -44 87 hhcurveto
            90 37 47 36 6 hvcurveto
            return
          </CharString>
          <CharString index="22">
            769 494 rmoveto
            44 8 -20 40 -40 hhcurveto
            -45 -27 -34 -33 -6 hvcurveto
            -33 -5 16 -34 45 hhcurveto
            1 hlineto
            -20 -20 -30 -13 -33 -7 8 46 rcurveline
            155 callsubr
            -48 rlineto
            19 27 0 -4 10 hvcurveto
            8 -4 2 -10 -2 -9 -35 -211 rcurveline
            -69 -12 -62 -56 -65 hhcurveto
            -39 -21 3 15 -13 hvcurveto
            -7 9 1 21 7 39 55 332 rcurveline
            155 callsubr
            -48 rlineto
            20 26 0 -4 11 hvcurveto
            7 -4 2 -10 -2 -9 -41 -249 rcurveline
            return
          </CharString>
          <CharString index="23">
            -92 callgsubr
            hintmask 0100000010100000
            -56 callgsubr
            return
          </CharString>
          <CharString index="24">
            -8 -8 -86 callgsubr
            return
          </CharString>
          <CharString index="25">
            rlineto
            -108 -74 callgsubr
            return
          </CharString>
          <CharString index="26">
            -78 callsubr
            -149 24 -78 callsubr
            endchar
          </CharString>
          <CharString index="27">
            172 callgsubr
            114 39 callgsubr
            -41 -98 0 -46 hhcurveto
            -46 -98 0 3 -41 -39 callsubr
            114 hlineto
            return
          </CharString>
          <CharString index="28">
            -27 callsubr
            98 0 43 hhcurveto
            43 98 107 callgsubr
            return
          </CharString>
          <CharString index="29">
            -78 callgsubr
            -2 29 callsubr
            17 -22 48 -51 19 -21 rrcurveto
            return
          </CharString>
          <CharString index="30">
            498 117 rmoveto
            14 2 -14 0 -10 hhcurveto
            -18 -1 -2 -13 -8 hvcurveto
            -63 -36 -51 -19 -51 hhcurveto
            -139 24 147 46 8 hvcurveto
            56 9 22 130 129 hhcurveto
            35 16 -3 -3 13 hvcurveto
            -21 -16 -5 -21 -2 -9 rrcurveto
            -44 -7 32 -19 27 hhcurveto
            31 35 21 42 7 hvcurveto
            86 15 -115 6 -58 hhcurveto
            -179 -94 -115 -116 -19 hvcurveto
            return
          </CharString>
          <CharString index="31">
            187 rmoveto
            18 108 -76 47 -44 28 76 36 38 44 10 58 rrcurveto
            102 17 -84 45 -114 hhcurveto
            -139 -83 -79 -96 -16 hvcurveto
            -7 -44 7 -63 71 -44 -90 -37 -54 -57 -12 -74 rrcurveto
            -121 -20 99 -51 129 hhcurveto
            160 96 88 110 18 hvcurveto
            -53 320 rmoveto
            -9 -49 -31 -34 -49 -29 -136 84 rcurveline
            -15 9 -25 17 6 34 rrcurveto
            70 12 91 7 40 hhcurveto
            84 43 -41 -68 -11 hvcurveto
            -42 -375 rmoveto
            -84 -14 -97 -16 -57 hhcurveto
            -98 -48 51 78 13 hvcurveto
            13 78 60 43 38 20 125 -76 rcurveline
            40 -25 33 -21 -8 -48 rrcurveto
            endchar
          </CharString>
          <CharString index="32">
            -57 callsubr
            116 310 42 callgsubr
            -5 17 76 callgsubr
            21 16 25 5 hvcurveto
            2 14 -4 11 -8 7 rrcurveto
            2 11 13 2 14 hhcurveto
            17 10 -3 -6 5 hvcurveto
            2 -2 -1 -8 -2 -17 -2 -9 -3 -7 -6 -4 -29 -21 -22 -28 -5 -31 -3 -16 rcurveline
            -8 -1 5 -6 8 hhcurveto
            7 7 6 8 1 hvcurveto
            3 17 5 23 23 117 callsubr
            4 21 rrcurveto
            endchar
          </CharString>
          <CharString index="33">
            -72 callgsubr
            -149 24 -72 callgsubr
            endchar
          </CharString>
          <CharString index="34">
            -97 callsubr
            endchar
          </CharString>
          <CharString index="35">
            40 7 -21 38 -51 hhcurveto
            -22 -21 -8 -15 -18 hvcurveto
            24 112 79 55 25 17 5 3 4 3 1 7 rrcurveto
            10 2 -9 10 -8 hhcurveto
            -14 -123 -85 -140 -24 hvcurveto
            -69 -11 27 -56 58 hhcurveto
            46 37 55 callsubr
            return
          </CharString>
          <CharString index="36">
            hhcurveto
            107 -89 callsubr
            58 -63 -71 10 -52 hhcurveto
            return
          </CharString>
          <CharString index="37">
            -99 -592 rlineto
            -114 200 callsubr
            42 98 0 46 hhcurveto
            46 98 145 callgsubr
            return
          </CharString>
          <CharString index="38">
            743 343 rmoveto
            190 32 -128 153 -190 hhcurveto
            -189 -179 -153 -190 -32 hvcurveto
            -189 -31 128 -154 189 hhcurveto
            190 179 154 189 31 hvcurveto
            -60 hmoveto
            -156 -26 -148 -127 -156 hhcurveto
            -156 -106 127 156 26 hvcurveto
            156 26 148 127 156 hhcurveto
            156 106 -127 -156 -26 hvcurveto
            return
          </CharString>
          <CharString index="39">
            -173 -73 callgsubr
            125 -3 8 47 rlineto
            35 callsubr
            return
          </CharString>
          <CharString index="40">
            689 274 rmoveto
            -47 hlineto
            -69 -20 -43 -158 -179 hhcurveto
            -103 hlineto
            172 callgsubr
            135 39 callgsubr
            -44 -109 0 -49 hhcurveto
            -44 -101 67 callsubr
            return
          </CharString>
          <CharString index="41">
            831 -6 36 188 33 110 36 -31 33 18 36 hstemhm
            54 117 -39 95 167 114 -111 117 -116 95 hintmask 0110100100000000
            818 117 rmoveto
            18 3 -19 0 -5 hhcurveto
            -17 -3 -5 -14 -9 hvcurveto
            -59 -32 -61 -23 -48 hhcurveto
            -143 18 134 50 6 hvcurveto
            294 hlineto
            24 9 1 27 4 hvcurveto
            6 34 5 67 -36 50 rrcurveto
            26 -18 -41 30 -80 hhcurveto
            -56 -57 -13 -36 -55 hvcurveto
            hintmask 0001100001000000
            -5 -5 -3 0 0 vvcurveto
            0 -2 1 -4 3 vhcurveto
            35 -39 -48 15 -78 hhcurveto
            hintmask 0010101000000000
            -59 -122 -4 -88 -15 hvcurveto
            -44 -7 32 -19 27 hhcurveto
            31 35 21 42 7 hvcurveto
            5 30 -16 17 -3 2 rrcurveto
            6 30 33 1 12 hhcurveto
            76 26 -44 -74 -12 hvcurveto
            -9 -51 -111 -6 -30 -2 -68 -20 rlinecurve
            hintmask 0000010000000000
            -72 -21 -55 -41 -9 -55 rrcurveto
            hintmask 1101101010000000
            -89 -15 104 -20 84 hhcurveto
            29 114 1 64 66 hvcurveto
            -45 42 66 -20 68 hhcurveto
            140 62 103 20 4 202 callsubr
            -231 hlineto
            15 76 23 28 10 11 rrcurveto
            49 41 54 2 11 hhcurveto
            97 -14 -112 -54 -6 hvcurveto
            -347 -127 rmoveto
            -50 -9 -69 -44 -73 hhcurveto
            hintmask 0000010100000000
            -54 -28 35 38 6 hvcurveto
            12 73 103 36 108 2 rrcurveto
            hintmask 0000000010000000
            -4 -27 2 -25 5 -24 rrcurveto
            hintmask 0000000001000000
            2 -8 0 -1 -1 -5 rrcurveto
            endchar
          </CharString>
          <CharString index="42">
            852 -38 callsubr
            -29 hlineto
            -53 -2 4 16 -10 hvcurveto
            -211 354 274 200 rlineto
            18 25 42 0 30 hhcurveto
            17 39 callgsubr
            -40 -57 0 -5 hhcurveto
            -38 -72 120 callgsubr
            13 20 0 -5 24 hvcurveto
            15 -4 -12 1 9 -3 -422 -309 rcurveline
            54 320 -81 callgsubr
            return
          </CharString>
          <CharString index="43">
            57 callgsubr
            557 24 rmoveto
            23 4 -13 0 -13 hhcurveto
            -61 1 2 13 4 23 36 215 rcurveline
            89 15 -60 65 -149 hhcurveto
            -57 -123 -4 -88 -15 hvcurveto
            -44 -7 32 -19 27 hhcurveto
            31 35 21 42 7 hvcurveto
            5 30 -16 17 -3 2 rrcurveto
            6 29 33 1 12 hhcurveto
            75 28 -42 -76 -13 hvcurveto
            -6 -34 -71 -3 -256 -9 -24 -145 rlinecurve
            -96 -16 121 -18 69 hhcurveto
            80 54 41 42 29 hvcurveto
            -31 -5 -8 -46 104 hhcurveto
            48 hlineto
            20 12 0 24 4 hvcurveto
            -182 115 123 callsubr
            hintmask 11100000
            return
          </CharString>
          <CharString index="44">
            hintmask 10100100
            -13 callsubr
            hintmask 11000100
            -67 callgsubr
            return
          </CharString>
          <CharString index="45">
            rmoveto
            -90 132 rlineto
            13 -10 -10 13 -23 hhcurveto
            -32 -33 -31 -31 -5 hvcurveto
            -5 -32 20 -11 14 -9 138 -81 rcurveline
            endchar
          </CharString>
          <CharString index="46">
            -86 callsubr
            endchar
          </CharString>
          <CharString index="47">
            -42 -52 0 3 -41 185 callgsubr
            hlineto
            return
          </CharString>
          <CharString index="48">
            578 218 rmoveto
            13 76 -18 82 -73 43 89 113 rcurveline
            -27 20 -91 -117 rlineto
            18 -49 -50 0 -9 hhcurveto
            -164 -108 -102 -133 -23 hvcurveto
            -10 -61 9 -83 81 -48 -89 -113 rcurveline
            27 -20 93 118 rlineto
            -17 47 48 0 12 hhcurveto
            168 104 101 123 20 hvcurveto
            -140 176 rmoveto
            -250 -317 -23 36 9 57 9 49 rlinecurve
            75 12 21 123 141 hhcurveto
            30 29 -6 -17 22 hvcurveto
            27 -175 rmoveto
            -75 -13 -19 -114 -141 hhcurveto
            -12 -39 0 22 -29 hvcurveto
            247 316 23 -39 -8 -54 -9 -56 rlinecurve
            return
          </CharString>
          <CharString index="49">
            rrcurveto
            -54 -9 37 -52 68 hhcurveto
            49 40 29 37 32 hvcurveto
            51 callsubr
            return
          </CharString>
          <CharString index="50">
            rmoveto
            -152 141 -198 -141 10 -24 170 58 150 -58 rlineto
            return
          </CharString>
          <CharString index="51">
            -8 -47 rlineto
            return
          </CharString>
          <CharString index="52">
            39 28 26 38 6 hvcurveto
            62 11 -32 63 -106 hhcurveto
            -136 -179 -86 -252 -42 hvcurveto
            -13 -79 -5 -80 30 -69 rrcurveto
            -76 34 72 -24 70 hhcurveto
            139 110 82 134 22 hvcurveto
            -135 2 rmoveto
            -101 -17 -13 -74 -101 hhcurveto
            -52 -20 39 16 -5 hvcurveto
            -11 32 12 73 3 18 rrcurveto
            125 21 62 47 55 hhcurveto
            95 -13 -75 -100 -16 hvcurveto
            endchar
          </CharString>
          <CharString index="53">
            hstemhm
            182 156 hintmask 00101000
            557 24 rmoveto
            23 4 -13 0 -13 hhcurveto
            -61 1 2 13 4 23 36 215 rcurveline
            89 15 -60 65 -149 hhcurveto
            -57 -123 -4 -88 -15 hvcurveto
            -44 -7 32 -19 27 hhcurveto
            31 35 21 42 7 hvcurveto
            5 30 -16 17 -3 2 rrcurveto
            6 29 33 1 12 hhcurveto
            75 28 -42 -76 -13 hvcurveto
            -6 -34 -71 -3 -256 -9 -24 -145 rlinecurve
            hintmask 01000000
            -96 -16 121 -18 69 hhcurveto
            80 54 41 42 29 hvcurveto
            hintmask 00100000
            -31 -5 -8 -46 104 hhcurveto
            48 hlineto
            20 12 0 24 4 hvcurveto
            -182 115 rmoveto
            return
          </CharString>
          <CharString index="54">
            -87 callgsubr
            83 303 111 callgsubr
            -36 -35 0 -11 hhcurveto
            -20 -16 3 14 -41 52 callgsubr
            -31 hvcurveto
            -58 -52 22 -25 rlineto
            34 35 35 0 11 hhcurveto
            20 17 30 callgsubr
            43 33 callsubr
            27 4 27 32 hvcurveto
            endchar
          </CharString>
          <CharString index="55">
            185 callsubr
            136 -621 rlineto
            -16 3 3 -10 25 hhcurveto
            25 5 10 16 9 hvcurveto
            249 450 99 -450 rlineto
            -16 3 3 -10 25 hhcurveto
            25 5 10 16 9 hvcurveto
            331 597 8 17 2 2 31 3 rlinecurve
            2 21 21 0 16 hhcurveto
            return
          </CharString>
          <CharString index="56">
            rlineto
            -8 callsubr
            return
          </CharString>
          <CharString index="57">
            29 -62 callgsubr
            123 85 140 24 hvcurveto
            252 hmoveto
            -88 callsubr
            123 85 140 24 hvcurveto
            endchar
          </CharString>
          <CharString index="58">
            330 -47 callgsubr
            return
          </CharString>
          <CharString index="59">
            134 callsubr
            rlineto
            return
          </CharString>
          <CharString index="60">
            829 434 rmoveto
            20 241 rlineto
            -673 hlineto
            -62 -241 rlineto
            47 hlineto
            113 28 24 81 144 hhcurveto
            77 hlineto
            return
          </CharString>
          <CharString index="61">
            1169 -11 36 -25 172 callsubr
            259 47 -25 36 hstemhm
            963 47 0 47 74 47 -43 47 hintmask 0110010010000000
            1182 274 rmoveto
            -47 hlineto
            -138 -45 -41 -89 -179 hhcurveto
            -145 hlineto
            166 callsubr
            89 hlineto
            92 24 -26 -91 -15 hvcurveto
            47 hlineto
            hintmask 0011001100000000
            47 281 rlineto
            -47 hlineto
            -91 -15 -34 -26 -92 hhcurveto
            -89 hlineto
            44 259 rlineto
            142 hlineto
            162 8 -76 -118 -5 hvcurveto
            47 hlineto
            9 241 rlineto
            -424 hlineto
            -12 -13 0 7 -78 hvcurveto
            hintmask 1000100000000000
            4 -47 -26 0 -5 hhcurveto
            -250 -159 -160 -197 -33 hvcurveto
            -202 -34 114 -149 244 hhcurveto
            9 27 0 6 64 hvcurveto
            hintmask 0100000010000000
            55 5 30 0 0 vvcurveto
            441 hlineto
            -439 343 rmoveto
            -18 -109 -12 -73 -9 -31 rrcurveto
            hintmask 1000100000000000
            -71 -22 -21 -34 -95 hhcurveto
            -137 -84 115 215 36 hvcurveto
            205 34 123 101 134 hhcurveto
            115 -1 -49 -147 -23 hvcurveto
            endchar
          </CharString>
          <CharString index="62">
            7 9 -2 13 -7 6 -9 10 -9 5 -8 -8 rrcurveto
            return
          </CharString>
          <CharString index="63">
            1092 0 47 -44 47 589 47 hstemhm
            161 53 25 53 534 125 -26 125 hintmask 10000100
            1051 hmoveto
            148 callgsubr
            hintmask 01110010
            152 callgsubr
            -221 hlineto
            -22 -11 0 -25 -15 hvcurveto
            -328 -529 -152 529 rlineto
            25 -7 -11 0 -22 hhcurveto
            -222 -66 callgsubr
            -94 -563 -4 -22 -1 -1 -29 -3 rlinecurve
            hintmask 10000000
            5 callsubr
            hintmask 01000000
            68 callsubr
            hintmask 10001000
            6 callgsubr
            hintmask 01011000
            -18 -17 1 2 -18 hvcurveto
            -28 3 -1 1 4 22 91 550 rcurveline
            1 hlineto
            172 -601 rlineto
            hintmask 10100010
            -20 6 11 -5 11 hhcurveto
            20 11 15 9 5 hvcurveto
            382 615 rlineto
            1 hlineto
            hintmask 10000100
            -17 callsubr
            hintmask 01000000
            3 37 93 0 41 hhcurveto
            hintmask 10000000
            41 94 0 -3 35 hvcurveto
            endchar
          </CharString>
          <CharString index="64">
            -97 -581 rlineto
            -153 200 callsubr
            55 111 0 59 hhcurveto
            59 111 0 -3 53 -22 callsubr
            -153 hlineto
            return
          </CharString>
          <CharString index="65">
            -82 callsubr
            431 hlineto
            197 171 123 214 35 hvcurveto
            -147 1 rmoveto
            -18 -109 -21 -53 -39 -45 rrcurveto
            -68 -59 -91 -16 -61 hhcurveto
            -146 hlineto
            return
          </CharString>
          <CharString index="66">
            -13 callgsubr
            35 210 114 83 161 -271 4 -6 -1 -2 2 -6 rlinecurve
            -8 -19 -20 0 -35 hhcurveto
            -56 callsubr
            3 42 90 0 45 hhcurveto
            40 69 0 -3 36 hvcurveto
            return
          </CharString>
          <CharString index="67">
            7 0 -39 -7 hvcurveto
            -51 -309 -10 callgsubr
            return
          </CharString>
          <CharString index="68">
            hvcurveto
            -7 callgsubr
            return
          </CharString>
          <CharString index="69">
            hmoveto
            -71 callgsubr
            return
          </CharString>
          <CharString index="70">
            -98 -586 -82 callsubr
            return
          </CharString>
          <CharString index="71">
            -20 hstemhm
            hintmask 01010000
            -107 callsubr
            hintmask 00001100
            183 467 -98 callsubr
            return
          </CharString>
          <CharString index="72">
            882 0 47 272 48 272 47 hstemhm
            155 136 -91 136 -128 136 -90 136 193 186 callsubr
            cntrmask 1110000000000000
            hintmask 1110001100000000
            1 callgsubr
            hintmask 1110010000000000
            -46 -272 rlineto
            -108 153 callgsubr
            hintmask 1110100000000000
            -8 callsubr
            hintmask 1111000010000000
            -45 -272 -42 callsubr
            hintmask 1110100000000000
            45 272 rlineto
            158 203 callgsubr
            hintmask 1110010000000000
            -158 hlineto
            hintmask 1110001110000000
            46 272 139 callgsubr
          </CharString>
          <CharString index="73">
            559 -6 36 -30 47 187 30 153 36 return
          </CharString>
          <CharString index="74">
            634 -32 callgsubr
            -3 -35 -85 0 -39 hhcurveto
            -53 -98 0 3 -48 -39 callsubr
            141 hlineto
            hintmask 1100000100000000
            -82 -490 rlineto
            -19 -3 -18 -105 -99 hhcurveto
            -17 -32 3 14 -29 hvcurveto
            hintmask 0010001000000000
            0 49 19 9 53 vhcurveto
            hintmask 0100000000000000
            54 9 -39 23 -33 hhcurveto
            hintmask 1010001100000000
            -37 -44 -25 -52 -9 hvcurveto
            -77 -13 71 -48 114 hhcurveto
            134 106 57 104 17 hvcurveto
            return
          </CharString>
          <CharString index="75">
            -92 callsubr
            rlineto
            hintmask 0100000000000000
            3 22 2 1 28 3 rrcurveto
            hintmask 0010000000000000
            15 callgsubr
            return
          </CharString>
          <CharString index="76">
            -12 8 1 -1 16 hhcurveto
            27 2 9 23 3 hvcurveto
            97 578 3 22 2 1 28 3 rlinecurve
            return
          </CharString>
          <CharString index="77">
            52 callsubr
            hintmask 0100000010000000
            -22 callgsubr
            hintmask 0100000100000000
            144 hlineto
            return
          </CharString>
          <CharString index="78">
            hstemhm
            155 135 callsubr
            return
          </CharString>
          <CharString index="79">
            -14 rmoveto
            9 55 -15 86 -140 31 73 21 82 57 15 86 rrcurveto
            77 13 -66 62 -141 hhcurveto
            hintmask 0000010000000000
            -119 -89 -64 -80 -13 hvcurveto
            -43 -7 26 -27 38 hhcurveto
            45 31 32 37 6 hvcurveto
            hintmask 0011000101000000
            9 58 -52 11 -4 1 rrcurveto
            28 40 45 8 31 hhcurveto
            83 -7 -64 -33 -6 hvcurveto
            -2 -13 -23 -131 -105 -6 -41 -2 -2 -1 -5 -1 rrcurveto
            hintmask 1110101000000000
            -11 -1 -3 -10 -1 -6 rrcurveto
            -18 -3 10 0 18 hhcurveto
            44 hlineto
            109 -17 -98 -51 -8 hvcurveto
            -47 -8 -17 -102 -104 hhcurveto
            -26 -51 4 30 -43 hvcurveto
            34 9 29 25 7 41 rrcurveto
            45 8 -27 31 -44 hhcurveto
            -42 -40 -27 -51 -8 hvcurveto
            -90 -15 87 -60 129 hhcurveto
            hintmask 0100000010000000
            179 89 100 91 16 hvcurveto
            endchar
          </CharString>
          <CharString index="80">
            9 callgsubr
            39 return
          </CharString>
          <CharString index="81">
            16 callsubr
            -68 -405 rcurveline
            -320 468 rlineto
            return
          </CharString>
          <CharString index="82">
            2 -14 hhcurveto
            -18 -28 -4 -27 return
          </CharString>
          <CharString index="83">
            818 0 47 292 36 264 47 hstemhm
            155 131 -32 131 280 142 hintmask 00101100
            784 186 rmoveto
            16 96 -75 67 -117 9 111 19 75 60 13 77 rrcurveto
            92 15 -74 80 -161 hhcurveto
            -434 -66 callgsubr
            hintmask 11010000
            -17 callsubr
            464 hlineto
            166 99 88 98 16 hvcurveto
            -119 328 rmoveto
            -77 -13 -58 -62 -97 hhcurveto
            -156 hlineto
            hintmask 10101100
            44 264 rlineto
            182 hlineto
            101 4 -79 -46 -7 hvcurveto
            -28 -327 rmoveto
            -12 -2 -21 -128 -144 hhcurveto
            hintmask 11010000
            -184 hlineto
            49 292 rlineto
            194 168 callsubr
            endchar
          </CharString>
          <CharString index="84">
            575 -201 36 152 96 -71 96 -24 96 -26 36 112 96 -44 96 -36 36 -36 41 return
          </CharString>
          <CharString index="85">
            hvcurveto
            -71 callgsubr
            return
          </CharString>
          <CharString index="86">
            -38 callgsubr
            121 3 120 73 callgsubr
            21 127 33 23 9 6 22 14 rlinecurve
            80 -126 7 -12 13 -20 -1 -3 rlinecurve
            -9 -1 -18 0 -13 hhcurveto
            -56 callsubr
            2 30 88 1 5 hhcurveto
            36 33 -1 -2 34 hvcurveto
            return
          </CharString>
          <CharString index="87">
            26 callgsubr
            -98 47 8 47 return
          </CharString>
          <CharString index="88">
            -20 hstemhm
            159 140 163 140 hintmask 10011000
            0 callsubr
            hintmask 01100000
            return
          </CharString>
          <CharString index="89">
            4 -1 3 -3 3 vhcurveto
            -57 58 -40 74 -18 83 rrcurveto
            7 -1 -6 4 -7 hhcurveto
            -8 hlineto
            -7 -7 -6 -8 hvcurveto
            2 -77 14 -74 24 -69 -47 -69 -38 -74 -28 -76 rrcurveto
            -2 -1 -1 -2 vvcurveto
            -8 6 -6 8 vhcurveto
            8 hlineto
            5 5 3 4 2 hvcurveto
            47 84 65 75 78 59 rrcurveto
            3 3 2 4 4 vvcurveto
            return
          </CharString>
          <CharString index="90">
            -99 -592 -82 callsubr
            return
          </CharString>
          <CharString index="91">
            351 160 callsubr
            125 121 callgsubr
            0 123 -121 123 15 108 hintmask 01101000
            539 613 rmoveto
            42 7 -28 45 -78 hhcurveto
            -98 -115 -42 -113 -19 hvcurveto
            -17 -101 83 callgsubr
            hintmask 11010100
            30 callsubr
            58 350 rlineto
            115 213 callsubr
            hintmask 01100011
            -121 hlineto
            17 101 rlineto
            110 18 78 9 25 hhcurveto
            5 5 0 -2 6 hvcurveto
            -16 -11 -12 -19 -3 -19 rrcurveto
            -43 -7 32 -19 26 hhcurveto
            30 35 21 41 7 hvcurveto
            endchar
          </CharString>
          <CharString index="92">
            135 rmoveto
            67 11 43 259 -237 hhcurveto
            -142 -113 -81 -134 -22 hvcurveto
            -138 -23 87 -75 123 hhcurveto
            35 48 7 70 49 hvcurveto
            -3 -22 -12 -73 -19 -59 -21 -34 rlinecurve
            -39 -24 -50 -45 -69 hhcurveto
            -18 -36 2 20 -26 hvcurveto
            hintmask 01101001
            12 3 39 14 8 45 rrcurveto
            34 6 -19 28 -39 hhcurveto
            -39 -28 -26 -38 -6 hvcurveto
            -68 -12 42 -57 111 hhcurveto
            130 171 84 256 43 hvcurveto
            -121 99 rmoveto
            -63 -10 -43 -102 -84 hhcurveto
            hintmask 00000100
            -95 12 75 100 17 hvcurveto
            hintmask 00010010
            98 16 13 80 107 hhcurveto
            59 15 -53 -10 2 hvcurveto
            hintmask 00000001
            6 -33 -9 -58 -6 -34 rrcurveto
            endchar
          </CharString>
          <CharString index="93">
            -66 -35 -38 hhcurveto
            -16 callgsubr
            return
          </CharString>
          <CharString index="94">
            -9 callsubr
            rlineto
            return
          </CharString>
          <CharString index="95">
            -20 hstemhm
            hintmask 11100000
            -105 callgsubr
            hintmask 00011000
            128 callsubr
            return
          </CharString>
          <CharString index="96">
            -98 callsubr
            -47 77 147 callgsubr
            -22 98 callgsubr
            11 -9 -9 10 hvcurveto
            27 -24 63 -63 26 -24 rrcurveto
            endchar
          </CharString>
          <CharString index="97">
            639 rmoveto
            7 47 return
          </CharString>
          <CharString index="98">
            286 -38 callsubr
            -62 hlineto
            67 403 return
          </CharString>
          <CharString index="99">
            108 hlineto
            return
          </CharString>
          <CharString index="100">
            -18 -16 -50 -55 -76 hhcurveto
            -122 20 121 70 12 hvcurveto
            8 48 9 54 32 39 rrcurveto
            42 36 49 10 31 hhcurveto
            57 35 -32 -29 17 hvcurveto
            return
          </CharString>
          <CharString index="101">
            -24 36 40 -4 64 hhcurveto
            56 54 32 47 34 hvcurveto
            -13 -79 179 6 -71 callgsubr
            -20 -26 0 5 -11 hvcurveto
            return
          </CharString>
          <CharString index="102">
            -58 -350 40 callsubr
            122 73 callgsubr
            return
          </CharString>
          <CharString index="103">
            786 0 47 255 41 296 47 hstem
            254 136 260 153 vstem
            803 491 rmoveto
            110 18 -85 85 -166 hhcurveto
            -417 -66 callgsubr
            -13 callgsubr
            42 255 rlineto
            177 hlineto
            139 128 72 117 20 hvcurveto
            -153 hmoveto
            -71 -12 -13 -77 -151 hhcurveto
            -134 hlineto
            50 296 rlineto
            135 hlineto
            150 -13 -76 -72 -12 hvcurveto
            endchar
          </CharString>
          <CharString index="104">
            527 -6 36 166 33 184 40 hstem
            531 222 rmoveto
            134 22 -83 97 -161 hhcurveto
            -158 -61 -106 -17 -3 hvcurveto
            -18 -3 19 0 5 hhcurveto
            17 3 5 16 9 hvcurveto
            48 29 62 32 65 hhcurveto
            141 -21 -133 -51 -9 hvcurveto
            -302 hlineto
            -22 -10 0 -27 -4 hvcurveto
            -5 -31 -7 -73 42 -50 rrcurveto
            -36 31 50 -18 69 hhcurveto
            160 104 103 125 21 hvcurveto
            -132 -26 rmoveto
            -9 -39 -8 -42 -26 -33 rrcurveto
            -40 -33 -42 -12 -29 hhcurveto
            -117 20 131 35 5 hvcurveto
            endchar
          </CharString>
          <CharString index="105">
            46 callsubr
            252 hmoveto
            -88 callsubr
            124 85 140 23 hvcurveto
            endchar
          </CharString>
          <CharString index="106">
            -84 -98 -61 -140 -24 hvcurveto
            -145 -24 82 -57 81 hhcurveto
            74 83 59 142 23 hvcurveto
            return
          </CharString>
          <CharString index="107">
            299 556 -99 callgsubr
            return
          </CharString>
          <CharString index="108">
            422 rmoveto
            -72 callsubr
            return
          </CharString>
          <CharString index="109">
            -87 callgsubr
            -2 242 147 callgsubr
            -21 7 -1 32 rlinecurve
            -9 callgsubr
          </CharString>
          <CharString index="110">
            13 2 1 6 -19 hhcurveto
            -8 -1 0 -4 -7 hvcurveto
            -34 -61 -74 0 -15 hhcurveto
            -15 hlineto
            -5 -28 rlineto
            15 hlineto
            11 40 0 12 44 hvcurveto
            -52 -311 rlineto
            -100 hlineto
            -4 -28 rlineto
            2 32 76 0 35 hhcurveto
            36 76 0 -2 32 hvcurveto
            return
          </CharString>
          <CharString index="111">
            644 rmoveto
            -204 hlineto
            -23 -146 5 4 -13 hvcurveto
            -20 4 0 9 10 vvcurveto
            -47 hlineto
            -78 -254 rlineto
            47 hlineto
            23 76 15 13 5 2 rrcurveto
            6 12 81 0 17 hhcurveto
            169 hlineto
            -66 -65 rlineto
            hintmask 11001100
            -115 -112 -94 -135 -25 -148 rrcurveto
            -70 -12 56 0 6 hhcurveto
            16 48 5 66 11 hvcurveto
            8 46 8 48 11 48 15 47 rlinecurve
            20 67 31 59 41 41 185 180 rcurveline
            12 11 1 2 5 35 rrcurveto
            endchar
          </CharString>
          <CharString index="112">
            -3 -24 -2 0 -28 hhcurveto
            -25 -74 callgsubr
            return
          </CharString>
          <CharString index="113">
            182 rmoveto
            -47 hlineto
            -19 -43 rlineto
            -16 -6 -12 -6 -16 hhcurveto
            -190 hlineto
            178 78 64 28 60 30 12 70 rlinecurve
            122 20 -153 16 -99 hhcurveto
            -70 -129 -5 -99 -16 hvcurveto
            -32 -6 20 -23 32 hhcurveto
            31 26 24 30 5 hvcurveto
            3 18 -4 15 -12 12 rrcurveto
            7 28 24 6 29 hhcurveto
            55 91 -15 -82 -14 hvcurveto
            -11 -66 -70 -39 -67 -39 -198 -115 rcurveline
            -15 -8 -12 -4 -4 -21 -4 -25 rcurveline
            435 hlineto
            endchar
          </CharString>
          <CharString index="114">
            -131 -21 -14 callsubr
            -21 hvcurveto
            return
          </CharString>
          <CharString index="115">
            82 hlineto
            -45 -274 rlineto
            -107 -18 83 -22 71 hhcurveto
            76 55 57 73 12 hvcurveto
            return
          </CharString>
          <CharString index="116">
            952 -32 callgsubr
            return
          </CharString>
          <CharString index="117">
            319 rmoveto
            97 16 39 239 -241 hhcurveto
            -241 -40 -238 -98 -17 hvcurveto
            -99 -16 -38 -231 241 hhcurveto
            240 41 230 100 16 hvcurveto
            -126 12 rmoveto
            -9 -56 -15 -91 -16 -52 rrcurveto
            -93 -29 -66 -14 -30 hhcurveto
            -36 -52 22 73 -1 hvcurveto
            52 17 104 9 55 vhcurveto
            12 72 11 65 17 52 rrcurveto
            89 27 71 10 24 hhcurveto
            37 38 -19 -44 12 hvcurveto
            11 -37 -18 -106 -14 -82 rrcurveto
            endchar
          </CharString>
          <CharString index="118">
            607 32 callsubr
            339 55 -44 47 195 47 -47 55 hstemhm
            hintmask 00101000
            587 23 callsubr
            -71 callgsubr
            hintmask 00010000
            -3 -27 -25 0 -26 hhcurveto
            hintmask 00001000
            -115 127 callgsubr
            hintmask 00010010
            23 3 -3 -8 6 hvcurveto
            -213 -149 76 457 rlineto
            return
          </CharString>
          <CharString index="119">
            869 0 47 146 47 458 return
          </CharString>
          <CharString index="120">
            -274 -21 145 117 return
          </CharString>
          <CharString index="121">
            18 16 -1 -2 18 hvcurveto
            return
          </CharString>
          <CharString index="122">
            41 callsubr
            15 -23 35 -38 hhcurveto
            -17 -13 -9 -9 -14 hvcurveto
            -152 -111 17 -42 171 54 19 6 24 213 callgsubr
          </CharString>
          <CharString index="123">
            14 callsubr
            29 -3 0 -1 -3 -22 return
          </CharString>
          <CharString index="124">
            9 callgsubr
            37 98 0 42 hhcurveto
            return
          </CharString>
          <CharString index="125">
            90 callgsubr
            -47 55 return
          </CharString>
          <CharString index="126">
            44 callsubr
            hintmask 01000000
            -34 callgsubr
            hintmask 10011000
            45 callgsubr
            -48 -28 78 53 83 hvcurveto
            94 28 42 73 3 13 rrcurveto
            -73 134 rmoveto
            -239 hlineto
            8 39 8 42 27 33 rrcurveto
            40 33 42 12 29 hhcurveto
            117 -20 -131 -35 -5 hvcurveto
            return
          </CharString>
          <CharString index="127">
            hvcurveto
            -25 -4 16 76 callgsubr
            22 16 25 4 hvcurveto
            2 14 -4 11 -8 7 rrcurveto
            2 return
          </CharString>
          <CharString index="128">
            293 69 callgsubr
            108 647 return
          </CharString>
          <CharString index="129">
            28 17 rlineto
            -32 41 52 0 20 hhcurveto
            31 154 0 146 24 hvcurveto
            return
          </CharString>
          <CharString index="130">
            -38 callsubr
            -17 hlineto
            -43 -2 4 16 -11 hvcurveto
            -134 211 147 101 rlineto
            11 16 10 7 67 hhcurveto
            return
          </CharString>
          <CharString index="131">
            10 -28 -31 6 -33 hhcurveto
            -84 -95 -17 -72 -12 hvcurveto
            -58 -9 56 -32 63 hhcurveto
            103 114 4 64 44 hvcurveto
            -41 72 70 -47 89 hhcurveto
            80 58 89 90 15 hvcurveto
            -481 -44 rmoveto
            -48 -22 -69 -19 -65 hhcurveto
            -37 -38 9 33 5 hvcurveto
            41 7 70 0 58 hhcurveto
            hintmask 0010000000000000
            33 30 -6 -10 28 hvcurveto
            endchar
          </CharString>
          <CharString index="132">
            319 365 -21 194 156 hstem
            348 46 callsubr
            endchar
          </CharString>
          <CharString index="133">
            rlineto
            47 hlineto
            19 19 20 18 19 19 rrcurveto
            -8 7 40 -54 89 hhcurveto
            149 118 90 139 23 hvcurveto
            -128 hmoveto
            -8 -47 -9 -55 -32 -39 rrcurveto
            -41 -36 -48 -11 -32 hhcurveto
            -70 -30 54 15 -7 hvcurveto
            41 251 rlineto
            35 33 53 29 55 hhcurveto
            122 -20 -121 -70 -12 hvcurveto
            endchar
          </CharString>
          <CharString index="134">
            575 -6 40 383 36 return
          </CharString>
          <CharString index="135">
            856 339 rmoveto
            216 36 -122 142 -222 hhcurveto
            -229 -163 -148 -210 -35 hvcurveto
            -33 -195 101 -138 200 -15 -30 -25 88 callgsubr
            return
          </CharString>
          <CharString index="136">
            -17 5 -12 10 -12 return
          </CharString>
          <CharString index="137">
            -58 -350 47 callsubr
            return
          </CharString>
          <CharString index="138">
            43 callsubr
            0 142 return
          </CharString>
          <CharString index="139">
            13 callsubr
            33 47 return
          </CharString>
          <CharString index="140">
            19 -2 14 hhcurveto
            18 return
          </CharString>
          <CharString index="141">
            46 callgsubr
            -418 403 rmoveto
            return
          </CharString>
          <CharString index="142">
            -69 hlineto
            35 209 rlineto
            return
          </CharString>
          <CharString index="143">
            69 callgsubr
            68 407 -177 -6 -2 -4 rlineto
            -147 hlineto
            16 98 rlineto
            84 14 75 38 92 hhcurveto
            29 20 -5 -13 21 hvcurveto
            -18 -6 -30 -17 -7 -40 rrcurveto
            -39 -6 24 -26 36 hhcurveto
            37 34 25 41 6 hvcurveto
            52 9 -33 64 -110 hhcurveto
            return
          </CharString>
          <CharString index="144">
            114 -7 47 0 114 -81 47 -38 47 return
          </CharString>
          <CharString index="145">
            639 -6 53 348 55 return
          </CharString>
          <CharString index="146">
            -38 callsubr
            -140 hlineto
            65 390 rlineto
            14 2 -1 10 -21 hhcurveto
            -18 -8 -7 -5 -15 hvcurveto
            -30 -71 -70 -2 -70 hhcurveto
            -56 callsubr
            50 51 0 13 51 hvcurveto
            -56 -336 rlineto
            -139 194 callsubr
            204 4 rlineto
            hintmask 10000000
            endchar
          </CharString>
          <CharString index="147">
            -10 callgsubr
            124 3 return
          </CharString>
          <CharString index="148">
            -86 callsubr
            33 219 rmoveto
            37 return
          </CharString>
          <CharString index="149">
            40 363 47 191 -20 59 callsubr
            return
          </CharString>
          <CharString index="150">
            47 592 61 callsubr
            return
          </CharString>
          <CharString index="151">
            -54 -9 37 -52 68 hhcurveto
            return
          </CharString>
          <CharString index="152">
            3 callgsubr
            endchar
          </CharString>
          <CharString index="153">
            569 -62 callgsubr
            124 85 140 23 hvcurveto
            return
          </CharString>
          <CharString index="154">
            102 callgsubr
            38 64 0 -3 35 -22 callsubr
            -87 hlineto
            return
          </CharString>
          <CharString index="155">
            rmoveto
            16 97 rlineto
            -305 hlineto
            hintmask 11000000
            -16 -97 rlineto
            endchar
          </CharString>
          <CharString index="156">
            hvcurveto
            -20 -82 -55 -39 -19 -14 rrcurveto
            -4 -4 -3 -2 -4 vvcurveto
            -8 -2 7 -7 6 hhcurveto
            11 90 64 104 17 hvcurveto
            endchar
          </CharString>
          <CharString index="157">
            155 142 return
          </CharString>
          <CharString index="158">
            -45 callsubr
            45 callgsubr
            return
          </CharString>
          <CharString index="159">
            142 -125 142 -73 153 return
          </CharString>
          <CharString index="160">
            -6 callgsubr
            hstemhm
            return
          </CharString>
          <CharString index="161">
            rmoveto
            9 52 rlineto
            -222 hlineto
            -9 -52 rlineto
            138 -54 0 138 hhcurveto
            endchar
          </CharString>
          <CharString index="162">
            35 43 7 hvcurveto
            return
          </CharString>
          <CharString index="163">
            hstemhm
            131 1140 -1133 1140 return
          </CharString>
          <CharString index="164">
            -20 75 callsubr
            return
          </CharString>
          <CharString index="165">
            615 -38 callsubr
            return
          </CharString>
          <CharString index="166">
            hstemhm
            169 37 callsubr
            return
          </CharString>
          <CharString index="167">
            403 124 rmoveto
            9 53 rlineto
            -47 hlineto
            return
          </CharString>
          <CharString index="168">
            47 -29 callsubr
            return
          </CharString>
          <CharString index="169">
            -200 156 return
          </CharString>
          <CharString index="170">
            188 callsubr
            370 52 callsubr
            return
          </CharString>
          <CharString index="171">
            436 0 47 592 47 return
          </CharString>
          <CharString index="172">
            140 117 140 return
          </CharString>
          <CharString index="173">
            319 192 callsubr
            -47 55 72 callgsubr
            0 108 hintmask 00101010
            21 callsubr
            rlineto
            return
          </CharString>
          <CharString index="174">
            0 3 -38 -39 callsubr
            return
          </CharString>
          <CharString index="175">
            3 39 57 0 39 hhcurveto
            return
          </CharString>
          <CharString index="176">
            -14 -47 0 54 -36 hvcurveto
            -9 13 0 1 4 19 35 212 rcurveline
            3 19 1 1 17 14 rrcurveto
            41 46 53 6 22 hhcurveto
            67 46 -61 -126 -21 hvcurveto
            endchar
          </CharString>
          <CharString index="177">
            351 -200 36 0 55 504 55 return
          </CharString>
          <CharString index="178">
            108 37 122 0 122 return
          </CharString>
          <CharString index="179">
            rmoveto
            -31 -42 -153 54 return
          </CharString>
          <CharString index="180">
            291 407 -98 callsubr
            return
          </CharString>
          <CharString index="181">
            -15 -8 -9 -10 -10 hvcurveto
            -52 -53 -71 -35 -88 hhcurveto
            -116 -70 58 22 -26 hvcurveto
            return
          </CharString>
          <CharString index="182">
            hstemhm
            106 callsubr
            return
          </CharString>
          <CharString index="183">
            10 rrcurveto
            11 -23 return
          </CharString>
          <CharString index="184">
            513 rmoveto
            116 16 -73 71 -89 hhcurveto
            -89 -97 -72 -115 -22 hvcurveto
            36 hlineto
            83 15 82 42 64 hhcurveto
            64 68 -42 -83 -11 hvcurveto
            endchar
          </CharString>
          <CharString index="185">
            rmoveto
            31 9 -24 26 -33 hhcurveto
            -34 -32 -26 -31 hvcurveto
            -4 -222 rlineto
            48 hlineto
            return
          </CharString>
          <CharString index="186">
            18 33 -3 -23 19 hvcurveto
            -36 -5 -23 -27 -5 -30 rrcurveto
            return
          </CharString>
          <CharString index="187">
            104 callgsubr
            592 47 return
          </CharString>
          <CharString index="188">
            114 135 84 callgsubr
            return
          </CharString>
          <CharString index="189">
            hstemhm
            155 136 -37 136 return
          </CharString>
          <CharString index="190">
            80 105 callgsubr
            return
          </CharString>
          <CharString index="191">
            -11 -20 -14 -61 -44 rcurveline
            hintmask 10010000
            11 -17 rlineto
            41 56 58 30 51 hhcurveto
            40 26 -17 -20 32 hvcurveto
            -17 26 28 -17 40 hhcurveto
            hintmask 01000000
            25 return
          </CharString>
          <CharString index="192">
            -1 callsubr
            -369 hmoveto
            103 callsubr
            return
          </CharString>
          <CharString index="193">
            -38 callsubr
            -62 -7 0 39 6 hvcurveto
            return
          </CharString>
          <CharString index="194">
            47 204 43 371 43 return
          </CharString>
          <CharString index="195">
            vstem
            637 229 rmoveto
            84 14 -56 68 -84 hhcurveto
            -84 -80 -68 -84 -14 hvcurveto
            -84 -14 57 -68 84 hhcurveto
            84 79 68 84 14 hvcurveto
            return
          </CharString>
          <CharString index="196">
            77 105 callgsubr
            return
          </CharString>
          <CharString index="197">
            hlineto
            119 251 6 12 1 1 1 7 rlinecurve
            15 2 -9 15 -19 hhcurveto
            -22 -8 -17 -13 -6 hvcurveto
            -129 -271 rlineto
            return
          </CharString>
          <CharString index="198">
            49 40 29 37 32 hvcurveto
            115 callgsubr
            return
          </CharString>
          <CharString index="199">
            rrcurveto
            33 5 1 4 -24 hhcurveto
            -23 -1 -5 -22 -4 hvcurveto
            -2 -12 -7 -41 -14 -87 -125 -78 rlinecurve
            -19 -11 -44 -27 -10 -62 return
          </CharString>
          <CharString index="200">
            hlineto
            -120 -252 -3 -6 -3 -6 -1 -8 rlinecurve
            -15 -3 10 -15 19 hhcurveto
            21 7 16 12 6 hvcurveto
            131 274 rlineto
            return
          </CharString>
          <CharString index="201">
            559 110 callsubr
            36 -30 47 187 30 153 36 return
          </CharString>
          <CharString index="202">
            607 -200 36 561 47 return
          </CharString>
          <CharString index="203">
            -23 31 -32 hhcurveto
            return
          </CharString>
          <CharString index="204">
            47 -47 55 hstemhm
            75 128 161 128 return
          </CharString>
          <CharString index="205">
            205 rmoveto
            140 24 -89 73 -121 hhcurveto
            return
          </CharString>
          <CharString index="206">
            671 -6 53 -50 34 -9 53 319 56 return
          </CharString>
          <CharString index="207">
            121 callgsubr
            152 108 return
          </CharString>
          <CharString index="208">
            153 140 136 -54 136 return
          </CharString>
          <CharString index="209">
            831 -11 47 614 47 return
          </CharString>
          <CharString index="210">
            147 25 -68 55 -70 hhcurveto
            return
          </CharString>
          <CharString index="211">
            63 -21 165 -20 hstemhm
            return
          </CharString>
          <CharString index="212">
            hstemhm
            50 callsubr
            return
          </CharString>
          <CharString index="213">
            276 153 return
          </CharString>
          <CharString index="214">
            26 callgsubr
            -115 156 -139 193 callsubr
            return
          </CharString>
          <CharString index="215">
            58 350 rlineto
            180 hlineto
            24 6 0 -35 -6 hvcurveto
            -52 -315 101 callgsubr
            return
          </CharString>
          <CharString index="216">
            47 -44 47 586 47 -44 47 114 callsubr
            return
          </CharString>
          <CharString index="217">
            62 callsubr
            38 return
          </CharString>
          <CharString index="218">
            -20 hstem
            126 callgsubr
            return
          </CharString>
          <CharString index="219">
            639 -11 87 callsubr
            return
          </CharString>
          <CharString index="220">
            164 callgsubr
            -135 hlineto
            return
          </CharString>
          <CharString index="221">
            hstemhm
            160 53 25 53 return
          </CharString>
          <CharString index="222">
            42 252 rlineto
            17 3 -1 3 -20 hhcurveto
            -15 -1 -1 -9 -10 hvcurveto
            -296 -262 -4 -28 rlineto
            return
          </CharString>
          <CharString index="223">
            rlineto
            13 3 -10 11 -13 hhcurveto
            -13 -12 -11 -13 -3 hvcurveto
            return
          </CharString>
          <CharString index="224">
            13 51 19 rlinecurve
            21 7 19 16 return
          </CharString>
          <CharString index="225">
            hlineto
            -13 -13 -11 -13 -2 hvcurveto
            return
          </CharString>
          <CharString index="226">
            -7 -39 10 -37 29 -20 rrcurveto
            return
          </CharString>
          <CharString index="227">
            hstemhm
            254 142 return
          </CharString>
          <CharString index="228">
            319 539 78 -78 156 -78 78 72 callgsubr
            -93 108 cntrmask 11100000
            hintmask 11110000
            return
          </CharString>
          <CharString index="229">
            111 hintmask 0000000010000000
            624 397 rmoveto
            23 4 -11 35 -46 hhcurveto
            -15 -48 -3 -35 -49 hvcurveto
            return
          </CharString>
          <CharString index="230">
            rmoveto
            -96 -16 -94 -13 -25 hhcurveto
            -51 -34 35 44 7 hvcurveto
            18 108 161 14 50 3 rrcurveto
            return
          </CharString>
          <CharString index="231">
            152 293 -57 callsubr
            return
          </CharString>
          <CharString index="232">
            hlineto
            52 -237 rlineto
            -16 3 3 -10 25 hhcurveto
            25 5 10 16 9 hvcurveto
            132 237 rlineto
            return
          </CharString>
          <CharString index="233">
            48 callgsubr
            endchar
          </CharString>
          <CharString index="234">
            99 298 -57 callsubr
            return
          </CharString>
          <CharString index="235">
            86 276 -57 callsubr
            return
          </CharString>
          <CharString index="236">
            -12 -12 -8 -14 -3 -16 -2 -12 1 -21 14 -13 4 -4 0 -2 -3 -16 rrcurveto
            endchar
          </CharString>
          <CharString index="237">
            44 callsubr
            49 40 29 37 32 hvcurveto
            return
          </CharString>
          <CharString index="238">
            454 -6 32 -32 36 391 32 return
          </CharString>
          <CharString index="239">
            47 82 callsubr
            return
          </CharString>
          <CharString index="240">
            43 7 -29 35 -43 hhcurveto
            return
          </CharString>
          <CharString index="241">
            -51 callsubr
            7 47 return
          </CharString>
          <CharString index="242">
            142 -43 142 return
          </CharString>
          <CharString index="243">
            -45 -270 rlineto
            return
          </CharString>
          <CharString index="244">
            0 3 -35 hvcurveto
            return
          </CharString>
          <CharString index="245">
            hhcurveto
            -41 -21 -30 -25 -4 hvcurveto
            -29 -5 16 -27 37 hhcurveto
            21 25 9 10 22 hvcurveto
            return
          </CharString>
          <CharString index="246">
            692 735 8 9 5 5 2 10 rlinecurve
            return
          </CharString>
          <CharString index="247">
            hstemhm
            42 101 callsubr
            return
          </CharString>
          <CharString index="248">
            -200 156 44 18 callsubr
            return
          </CharString>
          <CharString index="249">
            0 3 -35 -39 callsubr
            return
          </CharString>
          <CharString index="250">
            831 17 -21 401 47 return
          </CharString>
          <CharString index="251">
            47 146 47 458 -20 return
          </CharString>
          <CharString index="252">
            -43 -41 -35 -43 -7 49 callgsubr
            return
          </CharString>
          <CharString index="253">
            637 223 rmoveto
            133 22 return
          </CharString>
          <CharString index="254">
            73 136 callgsubr
            return
          </CharString>
          <CharString index="255">
            144 -60 144 63 138 -123 144 -50 138 hintmask 10000010
            return
          </CharString>
          <CharString index="256">
            -205 43 62 135 -28 135 37 36 90 124 32 -20 hstemhm
            return
          </CharString>
          <CharString index="257">
            -14 -2 -5 -30 30 hhcurveto
            31 4 29 15 3 hvcurveto
            131 783 rlineto
            return
          </CharString>
          <CharString index="258">
            -44 -80 rlineto
            -94 hlineto
            -18 80 rlineto
            86 -128 rmoveto
            -42 -74 -16 74 rlineto
            return
          </CharString>
          <CharString index="259">
            142 206 47 return
          </CharString>
          <CharString index="260">
            -200 156 44 197 callsubr
            return
          </CharString>
          <CharString index="261">
            hlineto
            -6 -6 -4 -6 -3 hvcurveto
            -9 -20 rlineto
            -9 -5 6 -9 9 hhcurveto
            return
          </CharString>
          <CharString index="262">
            -184 -8 -8 return
          </CharString>
          <CharString index="263">
            134 -76 104 -81 53 43 134 15 142 hintmask 0001110101100000
            return
          </CharString>
          <CharString index="264">
            27 -38 hhcurveto
            -29 -40 -25 -35 -6 hvcurveto
            -3 29 callsubr
            return
          </CharString>
          <CharString index="265">
            hstemhm
            130 140 -115 135 callsubr
            37 140 return
          </CharString>
          <CharString index="266">
            80 callgsubr
            endchar
          </CharString>
          <CharString index="267">
            135 callgsubr
            220 36 hstemhm
            return
          </CharString>
          <CharString index="268">
            hlineto
            -58 -350 -10 callgsubr
            return
          </CharString>
          <CharString index="269">
            -33 callgsubr
            hintmask 00100000
            -3 return
          </CharString>
          <CharString index="270">
            575 -6 41 382 36 return
          </CharString>
          <CharString index="271">
            511 0 40 368 36 return
          </CharString>
          <CharString index="272">
            -21 530 125 32 -20 return
          </CharString>
          <CharString index="273">
            48 286 rlineto
            return
          </CharString>
          <CharString index="274">
            -28 17 -40 hhcurveto
            hintmask 00100000
            -25 -27 -8 -10 -24 hvcurveto
            hintmask 01000000
            return
          </CharString>
          <CharString index="275">
            hlineto
            20 47 0 -43 26 hvcurveto
            26 -42 -9 -56 -2 -11 rrcurveto
            return
          </CharString>
          <CharString index="276">
            -11 43 310 124 -84 36 48 124 26 39 hstemhm
            return
          </CharString>
          <CharString index="277">
            rmoveto
            5 28 rlineto
            -69 hlineto
            11 66 rlineto
            69 hlineto
            4 28 rlineto
            return
          </CharString>
          <CharString index="278">
            rmoveto
            -11 17 rlineto
            -41 -56 -58 -30 -51 hhcurveto
            -40 -26 17 20 return
          </CharString>
          <CharString index="279">
            47 286 47 return
          </CharString>
          <CharString index="280">
            125 -100 136 0 136 -70 137 hintmask 10110100
            return
          </CharString>
          <CharString index="281">
            -205 43 109 39 150 39 247 39 hstemhm
            return
          </CharString>
          <CharString index="282">
            0 -15 -9 hvcurveto
            -197 -318 -91 318 rlineto
            15 return
          </CharString>
          <CharString index="283">
            hvcurveto
            195 callsubr
            34 34 28 35 6 hvcurveto
            return
          </CharString>
          <CharString index="284">
            hlineto
            -13 -13 -8 -9 -1 hvcurveto
            -9 -2 10 -8 13 hhcurveto
            return
          </CharString>
          <CharString index="285">
            118 callsubr
            -13 -3 10 -11 13 hhcurveto
            return
          </CharString>
          <CharString index="286">
            -69 hlineto
            27 callgsubr
            return
          </CharString>
          <CharString index="287">
            103 -361 rlineto
            -12 3 7 -3 7 hhcurveto
            12 6 9 return
          </CharString>
          <CharString index="288">
            47 0 36 callgsubr
            return
          </CharString>
          <CharString index="289">
            639 -194 47 141 36 return
          </CharString>
          <CharString index="290">
            62 125 -20 hstem
            return
          </CharString>
          <CharString index="291">
            1189 13 -21 return
          </CharString>
          <CharString index="292">
            -7 callgsubr
            86 hlineto
            return
          </CharString>
          <CharString index="293">
            136 7 147 return
          </CharString>
          <CharString index="294">
            -37 callsubr
            3 39 return
          </CharString>
          <CharString index="295">
            47 193 47 374 47 201 callsubr
            return
          </CharString>
          <CharString index="296">
            hvcurveto
            hintmask 00100000
            22 10 22 11 19 14 rrcurveto
            endchar
          </CharString>
          <CharString index="297">
            -194 47 -44 44 147 47 441 -20 hstemhm
            return
          </CharString>
          <CharString index="298">
            -48 -8 34 -16 25 hhcurveto
            32 35 22 41 6 hvcurveto
            return
          </CharString>
          <CharString index="299">
            32 callsubr
            592 47 return
          </CharString>
          <CharString index="300">
            47 8 47 86 181 callsubr
            return
          </CharString>
          <CharString index="301">
            -74 callgsubr
            hintmask 01000000
            return
          </CharString>
          <CharString index="302">
            -35 -6 23 -28 35 hhcurveto
            return
          </CharString>
          <CharString index="303">
            86 105 callgsubr
            return
          </CharString>
          <CharString index="304">
            18 callsubr
            hstemhm
            122 114 return
          </CharString>
          <CharString index="305">
            -11 43 350 36 48 189 -39 39 hstemhm
            return
          </CharString>
          <CharString index="306">
            900 0 172 callsubr
            return
          </CharString>
          <CharString index="307">
            -74 callgsubr
            3 return
          </CharString>
          <CharString index="308">
            hstemhm
            167 callgsubr
            return
          </CharString>
          <CharString index="309">
            hvcurveto
            -73 134 rmoveto
            return
          </CharString>
          <CharString index="310">
            138 15 138 -52 125 hintmask 00100010
            return
          </CharString>
          <CharString index="311">
            43 -25 43 -8 43 -25 43 hstemhm
            hintmask 10010000
            return
          </CharString>
          <CharString index="312">
            125 36 137 -71 137 hintmask 11111010
            return
          </CharString>
          <CharString index="313">
            869 -11 48 20 48 -1 48 -32 48 return
          </CharString>
          <CharString index="314">
            5 21 15 4 25 rrcurveto
            27 4 -20 18 return
          </CharString>
          <CharString index="315">
            80 callsubr
            hstemhm
            return
          </CharString>
          <CharString index="316">
            864 -140 40 91 40 626 40 return
          </CharString>
          <CharString index="317">
            hintmask 00010000
            15 callgsubr
            endchar
          </CharString>
          <CharString index="318">
            0 125 304 141 38 47 hstemhm
            return
          </CharString>
          <CharString index="319">
            -5 callgsubr
            endchar
          </CharString>
          <CharString index="320">
            hlineto
            -71 callgsubr
            return
          </CharString>
        <CharString name=".notdef">
          280 endchar
        </CharString>
        <CharString name="A">
          12 callgsubr
          hstem
          -107 callgsubr
          endchar
        </CharString>
        <CharString name="AE">
          -51 callgsubr
        </CharString>
        <CharString name="AE.dup">
          -51 callgsubr
        </CharString>
        <CharString name="AEacute">
          1042 0 47 -44 47 256 172 callsubr
          147 callsubr
          401 132 -124 132 -51 132 -89 132 -124 132 -84 132 95 47 -1 47 95 47 -43 47 hintmask 1000000010000001
          1055 274 rmoveto
          -47 hlineto
          -133 -44 -38 -94 -176 hhcurveto
          -128 hlineto
          hintmask 0010000001001000
          43 259 rlineto
          63 hlineto
          97 3 -43 -74 -12 hvcurveto
          47 hlineto
          hintmask 0010000000100100
          46 281 rlineto
          -47 hlineto
          -73 -12 -16 -44 -98 hhcurveto
          -63 hlineto
          hintmask 0101000000010010
          166 callsubr
          124 hlineto
          158 6 -77 -117 -5 hvcurveto
          47 hlineto
          9 241 rlineto
          -636 hlineto
          -7 callgsubr
          78 hlineto
          -335 -568 -11 -17 -1 -1 -27 -3 rlinecurve
          hintmask 1000000000000000
          -3 -25 -4 0 -22 hhcurveto
          -21 -74 callgsubr
          hintmask 0100000000000000
          119 3 rlineto
          hintmask 1010000001000000
          38 56 0 -3 36 -22 callsubr
          -26 -36 0 11 -25 hvcurveto
          145 248 rlineto
          177 hlineto
          hintmask 1000000010000000
          -43 -259 rlineto
          hintmask 1000000100000000
          -81 hlineto
          hintmask 1011001000010001
          -56 callsubr
          562 hlineto
          -422 353 rmoveto
          -157 hlineto
          168 286 rlineto
          37 hlineto
          hintmask 0010000000100000
          hintmask 0000110000001000
          227 198 -100 callsubr
        </CharString>
        <CharString name="Aacute">
          12 callgsubr
          81 136 callgsubr
          hintmask 11100000
          -107 callgsubr
          hintmask 00011000
          254 319 -100 callsubr
        </CharString>
        <CharString name="Abreve">
          12 callgsubr
          60 62 125 -20 hstemhm
          hintmask 11100000
          -107 callgsubr
          hintmask 00011000
          73 callsubr
          endchar
        </CharString>
        <CharString name="Abreveacute">
          12 callgsubr
          60 62 331 -20 hstemhm
          hintmask 11100000
          -107 callgsubr
          hintmask 00011000
          73 callsubr
          -39 134 -100 callsubr
        </CharString>
        <CharString name="Abrevedotbelow">
          110 callgsubr
          60 62 125 -20 hstemhm
          337 156 hintmask 01111100
          -107 callgsubr
          73 callsubr
          hintmask 10000010
          -273 -1047 -100 callgsubr
        </CharString>
        <CharString name="Abrevegrave">
          12 callgsubr
          60 62 125 -20 hstemhm
          hintmask 11100000
          -107 callgsubr
          hintmask 00011000
          291 407 -11 callsubr
        </CharString>
        <CharString name="Abrevehookabove">
          12 callgsubr
          60 62 333 -20 hstemhm
          hintmask 11100000
          -107 callgsubr
          hintmask 00011000
          291 407 -77 callgsubr
        </CharString>
        <CharString name="Abrevetilde">
          869 980 57 callgsubr
          -107 callgsubr
          hintmask 11100000
          73 callsubr
          37 138 -101 callsubr
        </CharString>
        <CharString name="Acaron">
          12 callgsubr
          71 -21 165 -20 hstemhm
          hintmask 11100000
          -107 callgsubr
          hintmask 00011000
          280 351 -60 callgsubr
        </CharString>
        <CharString name="Acircumflex">
          12 callgsubr
          71 -21 165 -20 hstemhm
          hintmask 11100000
          -107 callgsubr
          hintmask 00011000
          125 callgsubr
          endchar
        </CharString>
        <CharString name="Acircumflexacute">
          12 callgsubr
          71 -21 371 -20 hstemhm
          hintmask 11100000
          -107 callgsubr
          hintmask 00011000
          125 callgsubr
          7 299 71 callgsubr
          -14 -9 -9 -13 hvcurveto
          -153 -111 17 -42 171 54 19 6 25 213 callgsubr
        </CharString>
        <CharString name="Acircumflexdotbelow">
          110 callgsubr
          71 -21 165 -20 hstemhm
          337 156 hintmask 01111100
          -107 callgsubr
          125 callgsubr
          hintmask 10000010
          -222 -850 -100 callgsubr
        </CharString>
        <CharString name="Acircumflexgrave">
          12 callgsubr
          71 -21 165 -20 hstemhm
          hintmask 11100000
          -107 callgsubr
          hintmask 00011000
          260 234 2 callsubr
        </CharString>
        <CharString name="Acircumflexhookabove">
          12 callgsubr
          71 -21 373 -20 hstemhm
          hintmask 11100000
          -107 callgsubr
          hintmask 00011000
          260 234 -58 callgsubr
        </CharString>
        <CharString name="Acircumflextilde">
          869 948 57 callgsubr
          -107 callgsubr
          hintmask 11100000
          260 234 -53 callsubr
        </CharString>
        <CharString name="Adblgrave">
          12 callgsubr
          81 105 callgsubr
          hintmask 11100000
          -107 callgsubr
          hintmask 00011000
          203 244 -74 callsubr
        </CharString>
        <CharString name="Adieresis">
          12 callgsubr
          50 140 hstemhm
          346 140 163 140 hintmask 11100000
          -107 callgsubr
          hintmask 00011100
          11 280 -87 callsubr
        </CharString>
        <CharString name="Adotbelow">
          110 callgsubr
          hstemhm
          337 156 hintmask 01110000
          -107 callgsubr
          hintmask 10001000
          18 -640 -100 callgsubr
        </CharString>
        <CharString name="Agrave">
          12 callgsubr
          81 136 callgsubr
          hintmask 11100000
          -107 callgsubr
          hintmask 00011000
          167 262 -76 callgsubr
        </CharString>
        <CharString name="Ahookabove">
          12 callgsubr
          82 -21 193 -20 hstemhm
          hintmask 11100000
          -107 callgsubr
          hintmask 00011000
          216 351 -106 callgsubr
        </CharString>
        <CharString name="Alpha">
          12 callgsubr
          hstem
          -107 callgsubr
          endchar
        </CharString>
        <CharString name="Amacron">
          12 callgsubr
          70 52 hstemhm
          hintmask 11100000
          -107 callgsubr
          hintmask 00010000
          291 230 -54 callgsubr
        </CharString>
        <CharString name="Aogonek">
          869 -206 78 128 144 callsubr
          hstem
          827 14 callgsubr
          -152 625 rlineto
          26 -7 -12 0 -17 hhcurveto
          -28 -5 -8 -18 -10 hvcurveto
          -348 -602 rlineto
          -15 -9 -4 -8 -76 hhcurveto
          -21 hlineto
          -8 -47 118 3 rlineto
          39 56 0 -3 36 -22 callsubr
          0 -89 0 2 13 vhcurveto
          6 12 70 121 rlineto
          268 hlineto
          36 -146 rlineto
          -95 -74 callgsubr
          2 27 68 1 46 hhcurveto
          -40 -29 -24 -35 -7 -39 -58 callsubr
          -48 -29 78 53 83 hvcurveto
          44 51 -1 -2 28 hvcurveto
          -284 240 rmoveto
          -228 hlineto
          160 278 rlineto
          endchar
        </CharString>
        <CharString name="Aogonekacute">
          869 -206 78 128 144 callsubr
          81 136 callgsubr
          hintmask 11110000
          827 14 callgsubr
          -152 625 rlineto
          26 -7 -12 0 -17 hhcurveto
          -28 -5 -8 -18 -10 hvcurveto
          -348 -602 rlineto
          -15 -9 -4 -8 -76 hhcurveto
          -21 hlineto
          -8 -47 118 3 rlineto
          39 56 0 -3 36 -22 callsubr
          0 -89 0 2 13 vhcurveto
          6 12 70 121 rlineto
          268 hlineto
          36 -146 rlineto
          -95 -74 callgsubr
          2 27 68 1 46 hhcurveto
          -40 -29 -24 -35 -7 -39 -58 callsubr
          -48 -29 78 53 83 hvcurveto
          44 51 -1 -2 28 hvcurveto
          -284 240 rmoveto
          -228 hlineto
          160 278 rlineto
          hintmask 00001100
          254 319 -100 callsubr
        </CharString>
        <CharString name="Aring">
          12 callsubr
          41 86 41 hstemhm
          hintmask 11100000
          -107 callgsubr
          hintmask 00110000
          155 264 -61 callsubr
        </CharString>
        <CharString name="Aringacute">
          12 callsubr
          41 86 41 206 -20 hstemhm
          hintmask 11100000
          -107 callgsubr
          hintmask 00111000
          155 264 15 callsubr
        </CharString>
        <CharString name="Atilde">
          869 728 57 callgsubr
          -107 callgsubr
          hintmask 11100000
          286 293 -101 callsubr
        </CharString>
        <CharString name="B">
          -24 callsubr
        </CharString>
        <CharString name="Beta">
          -24 callsubr
        </CharString>
        <CharString name="C">
          102 callsubr
          hstem
          167 callgsubr
          vstem
          -88 callgsubr
          -205 -34 128 -149 249 hhcurveto
          187 134 123 115 19 hvcurveto
          endchar
        </CharString>
        <CharString name="Cacute">
          102 callsubr
          62 -21 171 -20 201 callsubr
          hintmask 11001000
          -88 callgsubr
          -205 -34 128 -149 249 hhcurveto
          187 134 123 115 19 hvcurveto
          hintmask 00110000
          -52 610 -100 callsubr
        </CharString>
        <CharString name="Ccaron">
          102 callsubr
          52 -21 165 -20 201 callsubr
          hintmask 11001000
          -88 callgsubr
          -205 -34 128 -149 249 hhcurveto
          187 134 123 115 19 hvcurveto
          hintmask 00110000
          -26 642 -60 callgsubr
        </CharString>
        <CharString name="Ccedilla">
          102 callsubr
          hstem
          167 callgsubr
          vstem
          -88 callgsubr
          -31 -189 106 -141 212 -21 -13 -73 rcurveline
          35 38 -2 callgsubr
          50 8 -46 33 -54 hhcurveto
          4 24 167 15 116 114 18 107 rlinecurve
          endchar
        </CharString>
        <CharString name="Ccircumflex">
          102 callsubr
          52 -21 165 -20 201 callsubr
          hintmask 11001000
          -88 callgsubr
          -205 -34 128 -149 249 hhcurveto
          187 134 123 115 19 hvcurveto
          hintmask 00110000
          -46 525 -46 callgsubr
        </CharString>
        <CharString name="Cdotaccent">
          102 callsubr
          42 156 201 callsubr
          241 156 hintmask 11010000
          -88 callgsubr
          -205 -34 128 -149 249 hhcurveto
          187 134 123 115 19 hvcurveto
          hintmask 00101000
          -133 590 -94 callsubr
          endchar
        </CharString>
        <CharString name="Chi">
          -49 callgsubr
        </CharString>
        <CharString name="D">
          882 0 47 592 132 callsubr
          193 186 callsubr
          hintmask 01011000
          1 callgsubr
          hintmask 10100100
          -99 -592 -42 callsubr
          hintmask 01011100
          99 592 139 callgsubr
        </CharString>
        <CharString name="Dcaron">
          882 0 47 592 47 63 -21 165 -20 82 callsubr
          193 186 callsubr
          hintmask 01000110
          1 callgsubr
          hintmask 10001001
          -99 -592 -42 callsubr
          hintmask 01000111
          99 592 23 callgsubr
          hintmask 00110000
          -49 531 -60 callgsubr
        </CharString>
        <CharString name="Dcroat">
          -35 callsubr
        </CharString>
        <CharString name="Ddotbelow">
          882 208 callsubr
          155 136 -37 136 -132 156 169 186 callsubr
          hintmask 00101010
          1 callgsubr
          hintmask 01010001
          -99 -592 -42 callsubr
          hintmask 00101011
          99 592 23 callgsubr
          hintmask 10000100
          -312 -460 -100 callgsubr
        </CharString>
        <CharString name="Delta">
          958 0 121 577 -20 hstem
          59 843 vstem
          902 12 rmoveto
          0 1 4 -5 11 vhcurveto
          -262 646 rlineto
          25 -10 -14 0 -17 hhcurveto
          -19 -13 0 -25 -18 hvcurveto
          -476 -646 rlineto
          -9 -11 -1 -4 0 vvcurveto
          -12 -2 10 0 16 hhcurveto
          791 hlineto
          16 10 0 12 2 hvcurveto
          -206 109 rmoveto
          -498 hlineto
          322 434 rlineto
          endchar
        </CharString>
        <CharString name="Dlinebelow">
          882 -148 52 96 47 592 132 callsubr
          193 186 callsubr
          hintmask 00101100
          1 callgsubr
          hintmask 01010010
          -99 -592 -42 callsubr
          hintmask 00101110
          99 592 23 callgsubr
          hintmask 10000000
          -187 -486 -54 callgsubr
        </CharString>
        <CharString name="E">
          38 callgsubr
          -29 callgsubr
          0 47 138 47 -42 47 hintmask 1100011100100000
          -92 callgsubr
          hintmask 0100001010000000
          -56 callgsubr
          hintmask 0010100001000000
          -91 callgsubr
          hintmask 1001000000100000
          -37 callsubr
          638 hlineto
          endchar
        </CharString>
        <CharString name="Eacute">
          38 callgsubr
          79 -21 171 -101 callgsubr
          -4 837 -100 callsubr
        </CharString>
        <CharString name="Ebreve">
          38 callgsubr
          58 62 125 -101 callgsubr
          33 925 -98 callsubr
          endchar
        </CharString>
        <CharString name="Ecaron">
          191 callgsubr
          165 -101 callgsubr
          22 869 -60 callgsubr
        </CharString>
        <CharString name="Ecircumflex">
          191 callgsubr
          165 -101 callgsubr
          2 126 callsubr
        </CharString>
        <CharString name="Ecircumflexacute">
          191 callgsubr
          371 -101 callgsubr
          21 callgsubr
          7 299 71 callgsubr
          -14 -9 -9 -13 hvcurveto
          -153 -111 17 -42 171 54 19 6 25 213 callgsubr
        </CharString>
        <CharString name="Ecircumflexdotbelow">
          756 -200 156 44 47 callgsubr
          69 -21 165 -20 107 callsubr
          hintmask 0110000001110010
          -92 callgsubr
          hintmask 0010000000101000
          -56 callgsubr
          hintmask 0001000100000100
          -91 callgsubr
          hintmask 0100111000000010
          -37 callsubr
          638 hlineto
          21 callgsubr
          hintmask 1000000010000000
          -223 -850 -100 callgsubr
        </CharString>
        <CharString name="Ecircumflexgrave">
          191 callgsubr
          165 -101 callgsubr
          2 752 2 callsubr
        </CharString>
        <CharString name="Ecircumflexhookabove">
          191 callgsubr
          373 -101 callgsubr
          2 752 -58 callgsubr
        </CharString>
        <CharString name="Ecircumflextilde">
          756 948 74 -57 74 -57 74 -29 callgsubr
          0 47 138 47 -42 47 cntrmask 1110000000000000
          hintmask 1110011100100000
          -92 callgsubr
          hintmask 1110001010000000
          -56 callgsubr
          hintmask 1110100001000000
          -91 callgsubr
          hintmask 1111000000100000
          -37 callsubr
          638 hlineto
          hintmask 1110000100000000
          2 752 -53 callsubr
        </CharString>
        <CharString name="Edblgrave">
          38 callgsubr
          79 -21 195 -101 callgsubr
          -24 762 -74 callsubr
        </CharString>
        <CharString name="Edieresis">
          38 callgsubr
          48 140 26 callgsubr
          -105 140 -133 47 8 47 86 47 0 47 14 140 -16 47 -42 47 hintmask 1100000111000100
          -84 callsubr
          hintmask 0010010000001000
          -91 callgsubr
          hintmask 1000100000000100
          -37 callsubr
          638 hlineto
          hintmask 0001001000010000
          -247 798 -87 callsubr
        </CharString>
        <CharString name="Edotaccent">
          38 callgsubr
          59 156 -20 callsubr
          37 156 -107 181 callsubr
          hintmask 1100001101001000
          -92 callgsubr
          hintmask 0100000100100000
          -56 callgsubr
          hintmask 0010010000010000
          -91 callgsubr
          hintmask 1000100000001000
          -37 callsubr
          638 hlineto
          hintmask 0001000010000000
          -85 817 -94 callsubr
          endchar
        </CharString>
        <CharString name="Edotbelow">
          756 -200 156 44 47 callgsubr
          107 callsubr
          hintmask 0110000111001000
          -92 callgsubr
          hintmask 0010000010100000
          -56 callgsubr
          hintmask 0001010000010000
          -91 callgsubr
          hintmask 0100100000001000
          -37 callsubr
          638 hlineto
          hintmask 1000001000000000
          -241 -122 -100 callgsubr
        </CharString>
        <CharString name="Egrave">
          38 callgsubr
          79 -21 171 -101 callgsubr
          -91 780 -76 callgsubr
        </CharString>
        <CharString name="Ehookabove">
          38 callgsubr
          80 -21 193 -101 callgsubr
          -43 869 -106 callgsubr
        </CharString>
        <CharString name="Emacron">
          38 callgsubr
          68 52 -29 callgsubr
          0 47 138 47 -42 47 hintmask 1100001110010000
          -92 callgsubr
          hintmask 0100000101000000
          -56 callgsubr
          hintmask 0010010000100000
          -91 callgsubr
          hintmask 1000100000010000
          -37 callsubr
          638 hlineto
          hintmask 0001000000000000
          33 748 -54 callgsubr
        </CharString>
        <CharString name="Eng">
          900 -11 126 534 48 hstem
          50 callsubr
          442 152 vstem
          891 343 rmoveto
          193 32 -122 161 -190 hhcurveto
          -77 -78 -23 -41 -61 hvcurveto
          8 53 rlineto
          -2 -24 -23 -1 -24 hhcurveto
          -46 -98 0 3 -41 -39 callsubr
          114 hlineto
          -70 callsubr
          8 47 rlineto
          -114 hlineto
          88 526 rlineto
          49 56 82 27 80 hhcurveto
          132 29 -155 -151 -25 hvcurveto
          -15 -93 -18 -109 -36 -60 rrcurveto
          20 -8 -19 14 -24 hhcurveto
          -35 -32 -28 -35 -6 hvcurveto
          195 callsubr
          157 107 177 177 29 hvcurveto
          endchar
        </CharString>
        <CharString name="Eogonek">
          756 -206 78 128 47 callgsubr
          -29 callgsubr
          -9 142 -133 36 callgsubr
          hintmask 0110001110001000
          -92 callgsubr
          hintmask 0010000100100000
          -56 callgsubr
          hintmask 0001010000010000
          -91 callgsubr
          hintmask 1100100001001000
          -37 callsubr
          484 hlineto
          -40 -29 -28 -32 -7 -39 -58 callsubr
          -48 -20 75 53 83 hvcurveto
          74 hlineto
          endchar
        </CharString>
        <CharString name="Eogonekacute">
          756 -206 78 128 47 callgsubr
          79 -21 171 -20 -29 callgsubr
          -9 142 -133 36 callgsubr
          hintmask 0110000011100010
          -92 callgsubr
          hintmask 0010000001001000
          -56 callgsubr
          hintmask 0001000100000100
          -91 callgsubr
          hintmask 1100001000010010
          -37 callsubr
          484 hlineto
          -40 -29 -28 -32 -7 -39 -58 callsubr
          -48 -20 75 53 83 hvcurveto
          74 hlineto
          hintmask 0000110000000000
          -4 837 -100 callsubr
        </CharString>
        <CharString name="Epsilon">
          38 callgsubr
          -29 callgsubr
          0 47 138 47 -42 47 hintmask 1100011100100000
          -92 callgsubr
          hintmask 0100001010000000
          -56 callgsubr
          hintmask 0010100001000000
          -91 callgsubr
          hintmask 1001000000100000
          -37 callsubr
          638 hlineto
          endchar
        </CharString>
        <CharString name="Ereversed">
          38 callgsubr
          hstemhm
          85 47 12 47 109 47 0 47 0 142 -55 47 -47 142 -44 142 hintmask 1000000001000000
          723 hmoveto
          148 callgsubr
          hintmask 0110100100100000
          98 586 -48 callsubr
          -621 hlineto
          -71 -241 rlineto
          47 hlineto
          121 36 39 73 161 hhcurveto
          152 hlineto
          -43 -257 rlineto
          hintmask 0100001010000000
          -55 hlineto
          -97 -2 43 74 12 hvcurveto
          -47 hlineto
          hintmask 1101010010000000
          -47 -281 rlineto
          47 hlineto
          74 13 17 43 96 hhcurveto
          55 hlineto
          -47 -282 rlineto
          -152 hlineto
          -185 -13 89 138 1 hvcurveto
          -47 -274 hlineto
          endchar
        </CharString>
        <CharString name="Eta">
          199 callsubr
          259 61 callsubr
          222 135 callsubr
          hintmask 10000100
          860 hmoveto
          148 callgsubr
          hintmask 01101010
          99 592 -81 callgsubr
          -44 -259 rlineto
          -321 hlineto
          44 259 -81 callgsubr
          hintmask 11010100
          -13 callgsubr
          166 callsubr
          321 hlineto
          -48 -286 -79 callsubr
          endchar
        </CharString>
        <CharString name="Eth">
          -35 callsubr
        </CharString>
        <CharString name="Etilde">
          756 728 74 -57 74 -57 74 -29 callgsubr
          0 47 138 47 -42 47 cntrmask 1110000000000000
          hintmask 1110011100100000
          -92 callgsubr
          hintmask 1110001010000000
          -56 callgsubr
          hintmask 1110100001000000
          -91 callgsubr
          hintmask 1111000000100000
          -37 callsubr
          638 hlineto
          hintmask 1110000000000000
          28 811 -101 callsubr
        </CharString>
        <CharString name="Euro">
          720 -11 48 216 48 84 48 216 48 hstem
          185 152 vstem
          657 3 rmoveto
          22 137 rlineto
          8 2 -6 6 -7 hhcurveto
          -24 hlineto
          -7 -7 -5 -7 -2 hvcurveto
          -60 -18 -59 -45 -61 hhcurveto
          -63 -56 27 52 -27 hvcurveto
          -21 41 -2 47 4 49 rrcurveto
          245 hlineto
          6 6 4 6 3 hvcurveto
          11 24 rlineto
          7 3 -6 7 -9 hhcurveto
          -254 hlineto
          7 42 7 42 rlineto
          289 hlineto
          7 6 4 6 2 hvcurveto
          12 24 rlineto
          7 3 -6 7 -9 hhcurveto
          -293 hlineto
          12 49 18 47 35 41 rrcurveto
          52 44 65 27 63 hhcurveto
          61 44 -45 -60 -2 hvcurveto
          -7 5 -5 7 vhcurveto
          24 hlineto
          7 8 6 8 1 hvcurveto
          23 137 rlineto
          8 1 -5 6 -8 hhcurveto
          -7 hlineto
          -3 -2 -1 -1 -3 hvcurveto
          -53 -31 rlineto
          21 -30 -40 12 -43 hhcurveto
          -91 -94 -31 -66 -73 hvcurveto
          -52 -47 -36 -58 -22 -62 rrcurveto
          -56 154 callsubr
          55 hlineto
          -4 -14 -2 -14 -3 -14 -2 -14 -2 -14 -1 -14 rrcurveto
          -49 154 callsubr
          62 hlineto
          2 -62 16 -58 36 -47 rrcurveto
          -66 51 84 -31 91 hhcurveto
          43 44 12 21 37 hvcurveto
          43 -31 rlineto
          -1 2 2 -1 3 hhcurveto
          7 hlineto
          8 7 6 8 2 hvcurveto
          endchar
        </CharString>
        <CharString name="F">
          724 0 47 270 47 269 47 26 callgsubr
          82 47 0 47 130 47 hintmask 00101000
          748 439 rmoveto
          9 241 rlineto
          -605 -66 callgsubr
          hintmask 11010100
          91 callgsubr
          45 270 rlineto
          50 hlineto
          96 2 -43 -74 -13 hvcurveto
          47 hlineto
          hintmask 01101011
          47 281 rlineto
          -47 hlineto
          -74 -12 -15 -43 -97 hhcurveto
          -50 hlineto
          45 269 rlineto
          140 hlineto
          161 10 -77 -117 -5 hvcurveto
          endchar
        </CharString>
        <CharString name="G">
          904 -11 63 callsubr
          hintmask 01000010
          -22 callgsubr
          hintmask 01000100
          144 hlineto
          hintmask 10111000
          -99 callsubr
          hintmask 01000100
          33 201 rlineto
          hintmask 01000010
          endchar
        </CharString>
        <CharString name="Gacute">
          70 callgsubr
          62 -21 171 -20 201 callsubr
          370 -30 callsubr
          hintmask 1010011000000000
          -99 callsubr
          hintmask 0100000100000000
          33 201 rlineto
          hintmask 0100000010000000
          hintmask 0001100000000000
          -56 608 -100 callsubr
        </CharString>
        <CharString name="Gamma">
          692 179 callgsubr
          274 47 hintmask 01010000
          716 439 rmoveto
          9 241 rlineto
          -573 -66 callgsubr
          hintmask 10100000
          91 callgsubr
          hintmask 01011000
          98 586 rlineto
          116 hlineto
          157 6 -77 -117 -5 hvcurveto
          endchar
        </CharString>
        <CharString name="Gbreve">
          70 callgsubr
          41 62 125 -20 201 callsubr
          370 -30 callsubr
          hintmask 1010011000000000
          -99 callsubr
          hintmask 0100000100000000
          33 201 rlineto
          hintmask 0100000010000000
          hintmask 0001100000000000
          -19 696 -98 callsubr
          endchar
        </CharString>
        <CharString name="Gcaron">
          70 callgsubr
          52 -21 165 -20 201 callsubr
          370 -30 callsubr
          hintmask 1010011000000000
          -99 callsubr
          hintmask 0100000100000000
          33 201 rlineto
          hintmask 0100000010000000
          hintmask 0001100000000000
          -30 640 -60 callgsubr
        </CharString>
        <CharString name="Gcedilla">
          904 13 callsubr
          22 63 callsubr
          hintmask 0001000010000000
          -22 callgsubr
          hintmask 0001000100000000
          144 hlineto
          hintmask 0010111000000000
          -99 callsubr
          hintmask 0001000100000000
          33 201 rlineto
          hintmask 1101000010000000
          -308 -356 -103 callsubr
        </CharString>
        <CharString name="Gcircumflex">
          70 callgsubr
          52 -21 165 -20 201 callsubr
          370 -30 callsubr
          hintmask 1010011000000000
          -99 callsubr
          hintmask 0100000100000000
          33 201 rlineto
          hintmask 0100000010000000
          hintmask 0001100000000000
          -50 523 -46 callgsubr
        </CharString>
        <CharString name="Gcommaaccent">
          904 13 callsubr
          22 63 callsubr
          hintmask 0001000010000000
          -22 callgsubr
          hintmask 0001000100000000
          144 hlineto
          hintmask 0010111000000000
          -99 callsubr
          hintmask 0001000100000000
          33 201 rlineto
          hintmask 0001000010000000
          hintmask 1100000000000000
          -308 -356 -103 callsubr
        </CharString>
        <CharString name="Gdotaccent">
          70 callgsubr
          42 156 201 callsubr
          236 156 -22 -30 callsubr
          hintmask 1010101000000000
          -99 callsubr
          hintmask 0100000100000000
          33 201 rlineto
          hintmask 0100000010000000
          hintmask 0001010000000000
          -137 588 -94 callsubr
          endchar
        </CharString>
        <CharString name="H">
          199 callsubr
          259 61 callsubr
          222 135 callsubr
          hintmask 10000100
          860 hmoveto
          148 callgsubr
          hintmask 01101010
          99 592 -81 callgsubr
          -44 -259 rlineto
          -321 hlineto
          44 259 -81 callgsubr
          hintmask 11010100
          -13 callgsubr
          166 callsubr
          321 hlineto
          -48 -286 -79 callsubr
          endchar
        </CharString>
        <CharString name="H_uni0303">
          900 159 callgsubr
          222 135 callsubr
          cntrmask 11100000
          hintmask 11100100
          860 hmoveto
          148 callgsubr
          hintmask 11101010
          99 592 -81 callgsubr
          -44 -259 rlineto
          -321 hlineto
          44 259 -81 callgsubr
          hintmask 11110100
          -13 callgsubr
          166 callsubr
          321 hlineto
          -48 -286 -79 callsubr
          hintmask 11100000
          -83 811 -101 callsubr
        </CharString>
        <CharString name="Hbar">
          199 callsubr
          111 48 100 47 105 callsubr
          -68 142 -134 142 -125 142 222 142 -68 142 -134 142 -125 142 hintmask 1000000010000000
          860 hmoveto
          148 callgsubr
          hintmask 0010000001000000
          74 444 rlineto
          108 203 callgsubr
          hintmask 0010000000100000
          -108 hlineto
          hintmask 0001000000010000
          17 100 -81 callgsubr
          hintmask 0010001000100000
          -17 -100 rlineto
          -321 hlineto
          hintmask 0001000100000000
          17 100 -81 callgsubr
          hintmask 0010001000000000
          -17 -100 rlineto
          -108 153 callgsubr
          hintmask 0010010000000000
          -8 callsubr
          hintmask 1100100010000000
          -74 -444 -79 callsubr
          148 callgsubr
          166 callsubr
          321 hlineto
          -48 -286 -79 callsubr
          -187 380 rmoveto
          -321 hlineto
          hintmask 0110010001000000
          19 111 rlineto
          321 hlineto
          endchar
        </CharString>
        <CharString name="Hbrevebelow">
          900 -215 62 125 -20 48 172 callsubr
          259 61 callsubr
          222 135 callsubr
          hintmask 0010000100000000
          860 hmoveto
          148 callgsubr
          hintmask 0001101010000000
          99 592 -81 callgsubr
          -44 -259 rlineto
          -321 hlineto
          44 259 -81 callgsubr
          hintmask 0011010100000000
          -13 callgsubr
          166 callsubr
          321 hlineto
          -48 -286 -79 callsubr
          hintmask 1100000000000000
          -237 -28 -98 callsubr
          endchar
        </CharString>
        <CharString name="Hcircumflex">
          199 callsubr
          259 47 63 -21 165 44 callgsubr
          222 135 callsubr
          hintmask 1000000100000000
          860 hmoveto
          148 callgsubr
          hintmask 0110001010000000
          99 592 -81 callgsubr
          -44 -259 rlineto
          -321 hlineto
          44 259 -81 callgsubr
          hintmask 1100010100000000
          -13 callgsubr
          166 callsubr
          321 hlineto
          -48 -286 -79 callsubr
          hintmask 0001100000000000
          -109 126 callsubr
        </CharString>
        <CharString name="Hdieresis">
          199 callsubr
          259 47 42 140 -29 callsubr
          -34 140 116 142 -95 140 -88 142 hintmask 1000000100000000
          860 hmoveto
          148 callgsubr
          hintmask 0110010001000000
          99 592 -81 callgsubr
          -44 -259 rlineto
          -321 hlineto
          44 259 -81 callgsubr
          hintmask 1100101100000000
          -13 callgsubr
          166 callsubr
          321 hlineto
          -48 -286 -79 callsubr
          hintmask 0001001010000000
          -358 798 -87 callsubr
        </CharString>
        <CharString name="Hdotbelow">
          900 104 callgsubr
          286 47 259 61 callsubr
          -44 156 110 135 callsubr
          hintmask 0100000100000000
          860 hmoveto
          148 callgsubr
          hintmask 0011001010000000
          99 592 -81 callgsubr
          -44 -259 rlineto
          -321 hlineto
          hintmask 0001010000000000
          44 259 -81 callgsubr
          hintmask 0110100100000000
          -13 callgsubr
          166 callsubr
          321 hlineto
          -48 -286 -79 callsubr
          hintmask 1000001000000000
          -352 -122 -100 callgsubr
        </CharString>
        <CharString name="I">
          436 0 43 callsubr
          hintmask 10100000
          -8 callgsubr
          hintmask 01010000
          -80 callsubr
          hintmask 10100000
          -70 callsubr
          endchar
        </CharString>
        <CharString name="I_J">
          987 -11 36 -25 47 -47 149 -107 149 -77 36 489 61 callsubr
          38 101 callsubr
          hintmask 0100001000000000
          -8 callgsubr
          hintmask 0000010100000000
          -80 callsubr
          hintmask 0100011000100000
          -70 callsubr
          623 -32 callgsubr
          -3 -35 -85 0 -39 hhcurveto
          -53 -98 0 3 -48 -39 callsubr
          141 hlineto
          hintmask 0010000001000000
          -82 -490 rlineto
          hintmask 1001000000000000
          -19 -3 -18 -105 -99 hhcurveto
          -17 -32 3 14 -29 hvcurveto
          hintmask 0000100010000000
          0 49 19 9 53 vhcurveto
          hintmask 0001000000000000
          54 9 -39 23 -33 hhcurveto
          hintmask 1000100011000000
          -37 -44 -25 -52 -9 hvcurveto
          -77 -13 71 -48 114 hhcurveto
          134 106 57 104 17 hvcurveto
          hintmask 0000010000100000
          82 489 rlineto
          endchar
        </CharString>
        <CharString name="Iacute">
          64 callsubr
          73 -21 171 -82 callgsubr
          110 837 -100 callsubr
        </CharString>
        <CharString name="Ibreve">
          64 callsubr
          52 62 125 -82 callgsubr
          147 925 -98 callsubr
          endchar
        </CharString>
        <CharString name="Icaron">
          64 callsubr
          63 -21 165 -82 callgsubr
          136 869 -60 callgsubr
        </CharString>
        <CharString name="Icircumflex">
          64 callsubr
          63 -21 165 -82 callgsubr
          116 126 callsubr
        </CharString>
        <CharString name="Idblgrave">
          64 callsubr
          73 -21 195 -82 callgsubr
          90 762 -74 callsubr
        </CharString>
        <CharString name="Idieresis">
          64 callsubr
          42 140 158 callsubr
          hintmask 10001000
          -8 callgsubr
          hintmask 01000100
          -80 callsubr
          hintmask 10001000
          -70 callsubr
          hintmask 00110010
          -133 798 -87 callsubr
        </CharString>
        <CharString name="Idieresisacute">
          64 callsubr
          42 140 73 -21 171 -20 158 callsubr
          hintmask 1000001000000000
          -8 callgsubr
          hintmask 0100000100000000
          -80 callsubr
          hintmask 1000001000000000
          -70 callsubr
          hintmask 0011110010000000
          -133 798 -99 callgsubr
          -30 221 -100 callsubr
        </CharString>
        <CharString name="Idotaccent">
          64 callsubr
          53 156 -29 callsubr
          -120 156 hintmask 10010000
          -8 callgsubr
          hintmask 01001000
          -80 callsubr
          hintmask 10010000
          -70 callsubr
          hintmask 00100100
          29 817 -94 callsubr
          endchar
        </CharString>
        <CharString name="Idotbelow">
          436 208 callsubr
          120 156 -121 135 callsubr
          hintmask 01001000
          -8 callgsubr
          hintmask 00100100
          -80 callsubr
          hintmask 01001000
          -70 callsubr
          hintmask 10010000
          -127 -122 -100 callgsubr
        </CharString>
        <CharString name="Igrave">
          64 callsubr
          73 -21 171 -82 callgsubr
          23 780 -76 callgsubr
        </CharString>
        <CharString name="Ihookabove">
          64 callsubr
          74 -21 193 -82 callgsubr
          72 869 -106 callgsubr
        </CharString>
        <CharString name="Imacron">
          64 callsubr
          62 52 -29 callsubr
          hintmask 10010000
          -8 callgsubr
          hintmask 01001000
          -80 callsubr
          hintmask 10010000
          -70 callsubr
          hintmask 00100000
          147 748 -54 callgsubr
        </CharString>
        <CharString name="Imacron.alt">
          64 callsubr
          62 52 -29 callsubr
          hintmask 10010000
          -8 callgsubr
          hintmask 01001000
          -80 callsubr
          hintmask 10010000
          -70 callsubr
          hintmask 00100000
          51 748 54 callsubr
        </CharString>
        <CharString name="Iogonek">
          436 -206 78 128 43 callsubr
          -21 142 hintmask 01010000
          -8 callgsubr
          hintmask 00101000
          172 callgsubr
          114 hlineto
          hintmask 00100100
          7 47 rlineto
          -3 -41 -98 0 -46 hhcurveto
          -46 -98 0 3 -41 -39 callsubr
          hintmask 00101000
          114 hlineto
          hintmask 11010100
          -99 -592 rlineto
          -114 200 callsubr
          42 98 0 46 hhcurveto
          21 hlineto
          -38 -23 -36 -46 -6 -34 -58 callsubr
          -33 -18 37 40 21 hvcurveto
          12 22 18 19 24 13 rrcurveto
          endchar
        </CharString>
        <CharString name="Iogonekacute">
          436 -206 78 128 47 592 47 73 -21 171 44 callgsubr
          -21 142 hintmask 01000100
          -8 callgsubr
          hintmask 00100010
          172 callgsubr
          114 hlineto
          hintmask 00100001
          7 47 rlineto
          -3 -41 -98 0 -46 hhcurveto
          -46 -98 0 3 -41 -39 callsubr
          hintmask 00100010
          114 hlineto
          hintmask 11000101
          -99 -592 rlineto
          -114 200 callsubr
          42 98 0 46 hhcurveto
          21 hlineto
          -38 -23 -36 -46 -6 -34 -58 callsubr
          -33 -18 37 40 21 hvcurveto
          12 22 18 19 24 13 rrcurveto
          hintmask 00011000
          189 834 -100 callsubr
        </CharString>
        <CharString name="Iota">
          436 0 43 callsubr
          hintmask 10100000
          -8 callgsubr
          hintmask 01010000
          -80 callsubr
          hintmask 10100000
          -70 callsubr
          endchar
        </CharString>
        <CharString name="Itilde">
          436 159 callgsubr
          cntrmask 11100000
          hintmask 11110000
          -8 callgsubr
          hintmask 11101000
          -80 callsubr
          hintmask 11110000
          -70 callsubr
          hintmask 11100000
          142 811 -101 callsubr
        </CharString>
        <CharString name="J">
          130 callgsubr
          140 callsubr
          hintmask 00010010
          634 -32 callgsubr
          -3 -35 -85 0 -39 hhcurveto
          -53 -98 0 3 -48 -39 callsubr
          141 hlineto
          hintmask 11000100
          -82 -490 rlineto
          -19 -3 -18 -105 -99 hhcurveto
          -17 -32 3 14 -29 hvcurveto
          hintmask 00101000
          0 49 19 9 53 vhcurveto
          hintmask 01000000
          54 9 -39 23 -33 hhcurveto
          hintmask 10101100
          -37 -44 -25 -52 -9 hvcurveto
          -77 -13 71 -48 114 hhcurveto
          134 106 57 104 17 hvcurveto
          hintmask 00010010
          82 489 rlineto
          endchar
        </CharString>
        <CharString name="J_uni030C.cap">
          594.44444 -11 36 17 149 -77 36 295 -21 145 117 -47 47 140 callsubr
          hintmask 0000010010000000
          -33 callsubr
          hintmask 0000010010000000
          82 489 rlineto
          243 -47 rmoveto
          51 8 -19 43 -43 hhcurveto
          -35 -27 -26 -32 -5 hvcurveto
          hintmask 0001100000000000
          -30 -5 15 -29 39 hhcurveto
          24 17 13 2 2 hvcurveto
          -19 -82 -56 -39 -18 -14 -5 -4 -2 -2 -1 -4 rrcurveto
          -8 -1 7 -7 6 hhcurveto
          11 89 64 104 18 hvcurveto
          endchar
        </CharString>
        <CharString name="Jacute">
          130 callgsubr
          73 -21 171 -20 140 callsubr
          hintmask 0001000010000000
          -33 callsubr
          hintmask 0001000010000000
          82 489 rlineto
          hintmask 0000110010000000
          90 198 -100 callsubr
        </CharString>
        <CharString name="Jcircumflex">
          130 callgsubr
          63 -21 165 -20 140 callsubr
          hintmask 0001000010000000
          -33 callsubr
          hintmask 0001000010000000
          82 489 rlineto
          hintmask 0000110000000000
          96 113 -46 callgsubr
        </CharString>
        <CharString name="K">
          901 0 31 callsubr
          hintmask 11010000
          -65 callsubr
          hintmask 10101000
          -41 callsubr
          endchar
        </CharString>
        <CharString name="Kappa">
          901 0 31 callsubr
          hintmask 11010000
          -65 callsubr
          hintmask 10101000
          -41 callsubr
          endchar
        </CharString>
        <CharString name="Kcedilla">
          901 -274 -21 145 117 33 31 callsubr
          hintmask 00110100
          -65 callsubr
          hintmask 11101010
          -41 callsubr
          -359 -127 -103 callsubr
        </CharString>
        <CharString name="Kcommaaccent">
          901 -274 -21 145 117 33 31 callsubr
          hintmask 00110100
          -65 callsubr
          hintmask 00101010
          -41 callsubr
          hintmask 11000000
          -359 -127 -103 callsubr
        </CharString>
        <CharString name="L">
          692 0 31 callsubr
          104 47 hintmask 11101100
          -67 callsubr
          hintmask 01010000
          -8 callsubr
          hintmask 10100100
          -17 callsubr
          573 hlineto
          endchar
        </CharString>
        <CharString name="L_uni0303">
          692 159 callgsubr
          0 142 104 47 cntrmask 11100000
          hintmask 11110110
          -67 callsubr
          hintmask 11101000
          -8 callsubr
          hintmask 11110010
          -17 callsubr
          573 hlineto
          hintmask 11100000
          -63 811 -101 callsubr
        </CharString>
        <CharString name="Lacute">
          692 0 47 592 47 73 -21 171 44 callgsubr
          0 142 104 47 hintmask 11001011
          -67 callsubr
          hintmask 01000100
          -8 callsubr
          hintmask 10001001
          -17 callsubr
          573 hlineto
          hintmask 00110000
          -95 837 -100 callsubr
        </CharString>
        <CharString name="Lambda">
          806 0 47 651 -20 hstemhm
          40 725 -717 725 hintmask 11010000
          765 -38 callsubr
          -86 hlineto
          -135 626 rlineto
          17 -3 -3 8 -27 hhcurveto
          -28 -4 -8 -17 -10 hvcurveto
          -331 -603 -10 -16 -1 -1 -32 -4 rlinecurve
          -2 -18 -21 0 -16 hhcurveto
          hintmask 10100000
          -56 callsubr
          1 32 38 2 39 hhcurveto
          38 55 0 -3 36 -22 callsubr
          0 -90 0 2 13 vhcurveto
          6 12 234 427 97 -452 rlineto
          -96 200 callsubr
          42 92 0 45 hhcurveto
          39 82 0 -3 34 hvcurveto
          endchar
        </CharString>
        <CharString name="Lcaron">
          692 0 47 398 -21 145 117 -47 61 callsubr
          0 142 104 47 hintmask 10011011
          -67 callsubr
          hintmask 00010100
          -8 callsubr
          hintmask 10011001
          -17 callsubr
          573 hlineto
          102 592 rmoveto
          51 8 -19 43 -43 hhcurveto
          -35 -27 -26 -32 -5 hvcurveto
          hintmask 01100001
          -30 -5 15 -29 39 hhcurveto
          24 17 13 2 2 hvcurveto
          -19 -82 -56 -39 -18 -14 -5 -4 -2 -2 -1 -4 rrcurveto
          -8 -1 7 -7 6 hhcurveto
          11 89 64 104 18 hvcurveto
          endchar
        </CharString>
        <CharString name="Lcedilla">
          692 -274 -21 145 117 33 31 callsubr
          104 47 hintmask 00111011
          -67 callsubr
          hintmask 00010100
          -8 callsubr
          hintmask 11101001
          -17 callsubr
          573 hlineto
          -224 -127 -103 callsubr
        </CharString>
        <CharString name="Lcommaaccent">
          692 -274 -21 145 117 33 31 callsubr
          104 47 hintmask 00111011
          -67 callsubr
          hintmask 00010100
          -8 callsubr
          hintmask 00101001
          -17 callsubr
          573 hlineto
          hintmask 11000000
          -224 -127 -103 callsubr
        </CharString>
        <CharString name="Ldot">
          692 0 47 303 156 133 61 callsubr
          0 142 19 156 -71 47 hintmask 10110101
          -67 callsubr
          hintmask 00101000
          -8 callsubr
          hintmask 11010001
          -17 callsubr
          573 hlineto
          101 428 163 callgsubr
          hintmask 01000010
          -43 -40 -35 -43 -8 49 callgsubr
          endchar
        </CharString>
        <CharString name="Ldotbelow">
          692 -200 156 44 47 592 47 149 callgsubr
          hintmask 01110011
          -67 callsubr
          hintmask 00100100
          -8 callsubr
          hintmask 01010001
          -17 callsubr
          573 hlineto
          hintmask 10001000
          -208 -122 -100 callgsubr
        </CharString>
        <CharString name="Ldotbelowmacron">
          692 80 callsubr
          62 52 149 callgsubr
          hintmask 0110100110000000
          -67 callsubr
          hintmask 0010001000000000
          -8 callsubr
          hintmask 1100100010000000
          -17 callsubr
          573 hlineto
          -208 -122 rmoveto
          133 callsubr
          hintmask 1000010000000000
          31 callgsubr
          hintmask 0001000000000000
          159 870 -54 callgsubr
        </CharString>
        <CharString name="Lslash">
          692 0 47 592 47 hstemhm
          165 135 callsubr
          0 142 hintmask 11101000
          699 274 rmoveto
          -47 hlineto
          -69 -20 -43 -158 -179 hhcurveto
          -103 hlineto
          55 333 223 145 -24 39 -188 -123 33 198 rlineto
          135 39 callgsubr
          -44 -109 0 -49 hhcurveto
          -44 -101 67 callsubr
          hintmask 01010000
          -8 callsubr
          -51 -304 -107 -71 23 -38 74 48 rlineto
          hintmask 10100000
          -38 -227 -82 callsubr
          573 hlineto
          endchar
        </CharString>
        <CharString name="M">
          -44 callsubr
        </CharString>
        <CharString name="Mdotbelow">
          1092 104 callgsubr
          -44 47 589 47 hstemhm
          161 53 25 53 156 156 222 125 -26 125 hintmask 0100000100000000
          1051 hmoveto
          148 callgsubr
          hintmask 0011100010000000
          152 callgsubr
          -221 hlineto
          -22 -11 0 -25 -15 hvcurveto
          -328 -529 -152 529 rlineto
          25 -7 -11 0 -22 hhcurveto
          -222 -66 callgsubr
          -94 -563 -4 -22 -1 -1 -29 -3 rlinecurve
          hintmask 0100000000000000
          5 callsubr
          hintmask 0010000000000000
          68 callsubr
          hintmask 0100010000000000
          6 callgsubr
          hintmask 0010110000000000
          -18 -17 1 2 -18 hvcurveto
          -28 3 -1 1 4 22 91 550 rcurveline
          1 hlineto
          172 -601 rlineto
          hintmask 0101000010000000
          -20 6 11 -5 11 hhcurveto
          20 11 15 9 5 hvcurveto
          382 615 rlineto
          1 hlineto
          hintmask 0100000100000000
          -17 callsubr
          hintmask 0010000000000000
          3 37 93 0 41 hhcurveto
          hintmask 0100000000000000
          41 94 0 -3 35 hvcurveto
          hintmask 1000001000000000
          -447 -122 -100 callgsubr
        </CharString>
        <CharString name="Mu">
          -44 callsubr
        </CharString>
        <CharString name="N">
          -40 callgsubr
        </CharString>
        <CharString name="Nacute">
          142 callgsubr
          73 -21 171 -41 callgsubr
          -197 198 -100 callsubr
        </CharString>
        <CharString name="Ncaron">
          142 callgsubr
          63 -21 165 -41 callgsubr
          -171 230 -60 callgsubr
        </CharString>
        <CharString name="Ncedilla">
          -44 callgsubr
          hintmask 1100010000000000
          15 callgsubr
          -449 -766 -103 callsubr
        </CharString>
        <CharString name="Ncommaaccent">
          -44 callgsubr
          hintmask 0000010000000000
          15 callgsubr
          hintmask 1100000000000000
          -449 -766 -103 callsubr
        </CharString>
        <CharString name="Ndotaccent">
          142 callgsubr
          42 156 114 callsubr
          216 156 138 53 hintmask 0001000000000000
          967 -32 callgsubr
          hintmask 0010000000000000
          -3 -38 -57 0 -39 hhcurveto
          hintmask 0001000000000000
          -60 callsubr
          hintmask 0010000010000000
          -26 callsubr
          hintmask 0101010000000000
          -39 callgsubr
          hintmask 1000000000000000
          5 callsubr
          hintmask 0100000000000000
          68 callsubr
          hintmask 1000001000000000
          6 callgsubr
          hintmask 0100011000000000
          -25 callgsubr
          hintmask 1010000010000000
          -31 callsubr
          hintmask 0001000000000000
          15 callgsubr
          hintmask 0000100100000000
          -279 167 -94 callsubr
          endchar
        </CharString>
        <CharString name="Ndotbelow">
          900 -200 156 44 109 callsubr
          61 156 293 53 hintmask 0000100000000000
          967 -32 callgsubr
          hintmask 0001000000000000
          -3 -38 -57 0 -39 hhcurveto
          hintmask 0000100000000000
          -60 callsubr
          hintmask 0001000010000000
          -26 callsubr
          hintmask 0010110000000000
          -39 callgsubr
          hintmask 0100000000000000
          5 callsubr
          hintmask 0010000000000000
          68 callsubr
          hintmask 0100001000000000
          6 callgsubr
          hintmask 0010011000000000
          -25 callgsubr
          hintmask 0101000010000000
          -31 callsubr
          hintmask 0000100000000000
          15 callgsubr
          hintmask 1000000100000000
          -434 -761 -100 callgsubr
        </CharString>
        <CharString name="Ntilde">
          900 728 74 -57 74 -57 74 114 callsubr
          510 53 cntrmask 11100000
          967 -32 callgsubr
          -3 -38 -57 0 -39 hhcurveto
          -60 callsubr
          -26 callsubr
          -39 callgsubr
          5 callsubr
          68 callsubr
          6 callgsubr
          -25 callgsubr
          -31 callsubr
          15 callgsubr
          hintmask 11100000
          -165 172 -101 callsubr
        </CharString>
        <CharString name="Nu">
          -40 callgsubr
        </CharString>
        <CharString name="O">
          33 callgsubr
          hstem
          106 callsubr
          vstem
          -106 callsubr
          endchar
        </CharString>
        <CharString name="OE">
          -46 callsubr
        </CharString>
        <CharString name="OE.dup">
          -46 callsubr
        </CharString>
        <CharString name="Oacute">
          131 callgsubr
          171 57 callsubr
          hintmask 11001000
          -106 callsubr
          hintmask 00110000
          22 483 -100 callsubr
        </CharString>
        <CharString name="Obreve">
          33 callgsubr
          41 62 125 57 callsubr
          hintmask 11001000
          -106 callsubr
          hintmask 00110000
          59 571 -98 callsubr
          endchar
        </CharString>
        <CharString name="Ocaron">
          33 callgsubr
          52 -21 165 57 callsubr
          hintmask 11001000
          -106 callsubr
          hintmask 00110000
          48 515 -60 callgsubr
        </CharString>
        <CharString name="Ocircumflex">
          33 callgsubr
          52 -21 165 57 callsubr
          hintmask 11001000
          -106 callsubr
          hintmask 00110000
          128 callgsubr
          endchar
        </CharString>
        <CharString name="Ocircumflexacute">
          33 callgsubr
          52 -21 371 57 callsubr
          hintmask 11001000
          -106 callsubr
          hintmask 00110000
          128 callgsubr
          7 299 71 callgsubr
          -14 -9 -9 -13 hvcurveto
          -153 -111 17 -42 171 54 19 6 25 213 callgsubr
        </CharString>
        <CharString name="Ocircumflexdotbelow">
          864 62 callsubr
          33 42 626 40 52 -21 165 57 callsubr
          -95 156 hintmask 01111100
          -106 callsubr
          128 callgsubr
          hintmask 10000010
          -223 -850 -100 callgsubr
        </CharString>
        <CharString name="Ocircumflexgrave">
          33 callgsubr
          52 -21 165 57 callsubr
          hintmask 11001000
          -106 callsubr
          hintmask 00110000
          28 398 2 callsubr
        </CharString>
        <CharString name="Ocircumflexhookabove">
          33 callgsubr
          52 -21 373 57 callsubr
          hintmask 11001000
          -106 callsubr
          hintmask 00110000
          28 398 -58 callgsubr
        </CharString>
        <CharString name="Ocircumflextilde">
          864 948 53 callsubr
          276 153 cntrmask 11100000
          -106 callsubr
          hintmask 11100000
          28 398 -53 callsubr
        </CharString>
        <CharString name="Odblgrave">
          131 callgsubr
          195 57 callsubr
          hintmask 11001000
          -106 callsubr
          hintmask 00110000
          2 408 -74 callsubr
        </CharString>
        <CharString name="Odieresis">
          33 callgsubr
          31 140 75 callsubr
          -85 140 163 140 hintmask 11010000
          -106 callsubr
          hintmask 00101100
          -221 444 -87 callsubr
        </CharString>
        <CharString name="Odotbelow">
          864 62 callsubr
          33 42 626 40 75 callsubr
          -95 156 hintmask 01110000
          -106 callsubr
          hintmask 10001000
          -215 -476 -100 callgsubr
        </CharString>
        <CharString name="Ograve">
          131 callgsubr
          171 57 callsubr
          hintmask 11001000
          -106 callsubr
          hintmask 00110000
          -65 426 -76 callgsubr
        </CharString>
        <CharString name="Ohookabove">
          33 callgsubr
          63 -21 193 57 callsubr
          hintmask 11001000
          -106 callsubr
          hintmask 00110000
          -16 515 -106 callgsubr
        </CharString>
        <CharString name="Ohorn">
          33 callgsubr
          122 -20 hstem
          106 callsubr
          vstem
          -96 callsubr
          endchar
        </CharString>
        <CharString name="Ohornacute">
          131 callgsubr
          81 -20 110 57 callsubr
          hintmask 11110100
          -96 callsubr
          hintmask 00101000
          -10 480 -100 callsubr
        </CharString>
        <CharString name="Ohorndotbelow">
          864 62 callsubr
          33 42 626 40 122 57 callsubr
          -95 156 hintmask 01111000
          -96 callsubr
          hintmask 10000100
          -215 -479 -100 callgsubr
        </CharString>
        <CharString name="Ohorngrave">
          131 callgsubr
          81 -20 110 57 callsubr
          hintmask 11110100
          -96 callsubr
          hintmask 00101000
          -65 423 -76 callgsubr
        </CharString>
        <CharString name="Ohornhookabove">
          33 callgsubr
          63 -21 80 -20 133 57 callsubr
          hintmask 11010100
          -96 callsubr
          hintmask 00101000
          -17 512 -106 callgsubr
        </CharString>
        <CharString name="Ohorntilde">
          864 728 53 callsubr
          276 153 cntrmask 11100000
          -96 callsubr
          hintmask 11100000
          54 454 -101 callsubr
        </CharString>
        <CharString name="Ohungarumlaut">
          131 callgsubr
          195 57 callsubr
          hintmask 11001000
          -106 callsubr
          hintmask 00110000
          -117 519 rmoveto
          -53 callgsubr
          24 81 callgsubr
          192 hmoveto
          -53 callgsubr
          24 81 callgsubr
          endchar
        </CharString>
        <CharString name="Omacron">
          33 callgsubr
          51 52 75 callsubr
          hintmask 11010000
          -106 callsubr
          hintmask 00100000
          59 394 -54 callgsubr
        </CharString>
        <CharString name="Omega">
          -35 callgsubr
        </CharString>
        <CharString name="Omicron">
          33 callgsubr
          hstem
          106 callsubr
          vstem
          -106 callsubr
          endchar
        </CharString>
        <CharString name="Oogonek">
          209 callsubr
          hstemhm
          468 153 -76 153 hintmask 11101000
          28 callsubr
          hintmask 01110000
          24 callgsubr
          hintmask 00001000
          64 64 -28 -66 29 hvcurveto
          27 -64 -9 -77 -11 -68 rrcurveto
          endchar
        </CharString>
        <CharString name="Oogonekacute">
          209 callsubr
          62 136 callgsubr
          468 153 -76 153 hintmask 11100010
          28 callsubr
          hintmask 01100100
          24 callgsubr
          hintmask 00000010
          64 64 -28 -66 29 hvcurveto
          27 -64 -9 -77 -11 -68 rrcurveto
          hintmask 00011000
          22 483 -100 callsubr
        </CharString>
        <CharString name="Orogate">
          864 856 339 rmoveto
          35 210 -114 140 -211 8 31 184 rcurveline
          -36 hlineto
          -31 -184 -219 -8 -156 -146 -34 -204 rlinecurve
          -34 -202 109 -141 216 -7 -30 -183 rcurveline
          36 hlineto
          30 183 220 8 154 143 34 199 rlinecurve
          -151 15 rmoveto
          -12 -70 -18 -89 -54 -69 rrcurveto
          -73 -57 -74 -22 -54 hhcurveto
          -59 -68 28 76 -28 hvcurveto
          -23 62 4 71 14 86 11 64 17 85 55 68 rrcurveto
          61 51 72 25 59 hhcurveto
          64 64 -28 -66 29 hvcurveto
          27 -64 -9 -77 -11 -68 rrcurveto
          endchar
        </CharString>
        <CharString name="Oslash">
          140 callgsubr
          hstem
          121 142 481 142 vstem
          -65 callgsubr
          endchar
        </CharString>
        <CharString name="Oslash.dup">
          140 callgsubr
          hstem
          121 142 481 142 vstem
          -65 callgsubr
          endchar
        </CharString>
        <CharString name="Oslashacute">
          140 callgsubr
          33 136 callgsubr
          121 142 481 142 hintmask 11110011
          -65 callgsubr
          hintmask 00001100
          -2 497 -100 callsubr
        </CharString>
        <CharString name="Otilde">
          864 728 53 callsubr
          276 153 cntrmask 11100000
          -106 callsubr
          hintmask 11100000
          54 457 -101 callsubr
        </CharString>
        <CharString name="P">
          -4 callsubr
        </CharString>
        <CharString name="Phi">
          831 0 47 106 36 307 36 -35 36 106 47 hstemhm
          121 147 84 131 -107 131 -80 131 -125 131 -113 131 94 147 hintmask 0000000001000000
          823 343 rmoveto
          8 49 -13 122 -254 20 rrcurveto
          hintmask 0000100000100000
          18 105 rlineto
          135 39 callgsubr
          -44 -107 0 -49 hhcurveto
          -49 -108 0 3 -44 -39 callsubr
          135 hlineto
          hintmask 0101010001000000
          -18 -106 -158 -10 -136 -73 -18 -107 rlinecurve
          -18 -107 112 -73 155 -10 rrcurveto
          hintmask 1000011000010000
          -18 -106 rlineto
          -135 200 callsubr
          45 107 0 49 hhcurveto
          49 108 113 callsubr
          17 105 263 20 52 124 8 47 rlinecurve
          -447 -153 rmoveto
          -122 18 5 78 9 57 rrcurveto
          hintmask 0010000010000000
          10 58 21 77 128 18 rrcurveto
          hintmask 0100000100000000
          249 -153 rmoveto
          -12 -73 -28 -66 -129 -15 rrcurveto
          hintmask 0001000010010000
          51 308 124 -15 6 -66 -12 -73 rlinecurve
          endchar
        </CharString>
        <CharString name="Pi">
          900 179 callgsubr
          223 142 -44 142 hintmask 10001000
          860 hmoveto
          148 callgsubr
          hintmask 01010100
          98 586 -48 callsubr
          -821 -66 callgsubr
          hintmask 10100000
          -98 -586 -79 callsubr
          148 callgsubr
          hintmask 01010100
          98 586 rlineto
          321 hlineto
          hintmask 10001000
          -98 -586 -79 callsubr
          endchar
        </CharString>
        <CharString name="Psi">
          894 0 47 103 45 311 41 92 47 hstemhm
          259 125 0 131 -113 131 -50 131 hintmask 01111001
          917 529 rmoveto
          18 3 -17 0 -15 hhcurveto
          -72 hlineto
          -34 -54 -4 -138 -24 hvcurveto
          -22 -121 -54 -67 -89 -23 75 445 rcurveline
          135 39 callgsubr
          -44 -107 0 -49 hhcurveto
          -49 -108 0 3 -44 -39 callsubr
          135 hlineto
          -74 -444 -110 34 17 124 10 63 rlinecurve
          89 14 -21 42 -60 hhcurveto
          -72 hlineto
          -15 -17 0 -18 -3 hvcurveto
          -2 -15 11 -2 11 -1 rrcurveto
          37 -7 -12 -76 -5 vvcurveto
          -6 -35 -14 -89 48 -64 rrcurveto
          hintmask 10001010
          41 -54 66 -21 70 -7 -18 -106 rcurveline
          -135 200 callsubr
          45 107 0 49 hhcurveto
          49 108 164 callgsubr
          hintmask 10000100
          -135 hlineto
          hintmask 00000010
          18 106 94 8 64 31 40 32 rlinecurve
          80 65 20 95 2 13 8 45 11 62 42 7 7 1 14 2 2 15 rrcurveto
          endchar
        </CharString>
        <CharString name="Q">
          864 -194 153 30 40 0 40 50 36 502 40 hstemhm
          121 147 78 36 327 147 hintmask 11001101
          804 -8 rmoveto
          8 1 3 18 -18 hhcurveto
          -15 -4 -13 -7 -2 hvcurveto
          -38 -13 -62 -1 -17 hhcurveto
          -23 -30 0 59 -29 hvcurveto
          175 64 67 148 19 109 rrcurveto
          216 36 -122 142 -222 hhcurveto
          -229 -163 -148 -210 -35 hvcurveto
          -204 -34 111 -146 232 hhcurveto
          22 33 1 8 42 hvcurveto
          -113 9 7 -79 93 hhcurveto
          102 54 118 68 12 hvcurveto
          -95 348 rmoveto
          hintmask 00111111
          -10 -56 -24 -149 -107 -66 rrcurveto
          33 -17 -27 53 -67 hhcurveto
          -51 -52 -34 -48 -8 hvcurveto
          -1 -6 -1 -11 2 -5 -114 59 23 152 13 78 6 40 16 95 49 71 rrcurveto
          96 68 89 15 45 hhcurveto
          54 74 -20 -85 34 hvcurveto
          27 -67 -11 -86 -10 -59 rrcurveto
          -187 -295 rmoveto
          -11 -27 -31 -5 -27 hhcurveto
          -55 -2 32 12 2 hvcurveto
          27 5 32 19 33 hhcurveto
          28 32 -11 -63 10 hvcurveto
          endchar
        </CharString>
        <CharString name="R">
          56 callgsubr
          -104 callgsubr
          endchar
        </CharString>
        <CharString name="Racute">
          56 callgsubr
          -104 callgsubr
          hintmask 11100000
          79 337 -100 callsubr
        </CharString>
        <CharString name="Rcaron">
          56 callgsubr
          -104 callgsubr
          hintmask 11100000
          105 369 -60 callgsubr
        </CharString>
        <CharString name="Rcedilla">
          56 callgsubr
          -104 callgsubr
          -173 -627 -103 callsubr
        </CharString>
        <CharString name="Rcommaaccent">
          56 callgsubr
          -104 callgsubr
          hintmask 11100000
          -173 -627 -103 callsubr
        </CharString>
        <CharString name="Rdblgrave">
          56 callgsubr
          -104 callgsubr
          hintmask 11100000
          27 262 -74 callsubr
        </CharString>
        <CharString name="Rdotaccent">
          56 callgsubr
          100 156 -104 callgsubr
          hintmask 11100100
          -1 317 -94 callsubr
          endchar
        </CharString>
        <CharString name="Rdotbelow">
          56 callgsubr
          -56 156 -104 callgsubr
          hintmask 11100100
          -157 -622 -100 callgsubr
        </CharString>
        <CharString name="Rdotbelowmacron">
          56 callgsubr
          -56 156 -104 callgsubr
          -157 -622 rmoveto
          133 callsubr
          hintmask 11100100
          31 callgsubr
          hintmask 11100000
          273 870 -54 callgsubr
        </CharString>
        <CharString name="Rho">
          -4 callsubr
        </CharString>
        <CharString name="S">
          112 callsubr
          hstem
          477 97 vstem
          608 203 rmoveto
          -102 callsubr
          rlineto
          -49 58 92 -6 41 hhcurveto
          165 81 113 101 17 hvcurveto
          endchar
        </CharString>
        <CharString name="S_S">
          1278 -11 87 callsubr
          hstem
          477 97 542 97 vstem
          608 203 rmoveto
          -102 callsubr
          rlineto
          -49 58 92 -6 41 hhcurveto
          165 81 113 101 17 hvcurveto
          639 hmoveto
          -102 callsubr
          rlineto
          -49 58 92 -6 41 hhcurveto
          165 81 113 101 17 hvcurveto
          endchar
        </CharString>
        <CharString name="Sacute">
          112 callsubr
          62 136 callgsubr
          477 97 hintmask 11100100
          608 203 rmoveto
          -102 callsubr
          rlineto
          -49 58 92 -6 41 hhcurveto
          165 81 113 101 17 hvcurveto
          hintmask 00011000
          6 634 -100 callsubr
        </CharString>
        <CharString name="Scaron">
          112 callsubr
          52 -21 165 -20 hstemhm
          477 97 hintmask 11100100
          608 203 rmoveto
          -102 callsubr
          rlineto
          -49 58 92 -6 41 hhcurveto
          165 81 113 101 17 hvcurveto
          hintmask 00011000
          32 666 -60 callgsubr
        </CharString>
        <CharString name="Scedilla">
          112 callsubr
          hstem
          357 97 23 97 vstem
          608 203 rmoveto
          -102 callsubr
          34 -28 43 -14 39 -7 rlinecurve
          -13 -76 rlineto
          35 39 -2 callgsubr
          50 8 -46 33 -55 hhcurveto
          4 23 152 9 75 107 16 97 rlinecurve
          endchar
        </CharString>
        <CharString name="Scircumflex">
          112 callsubr
          52 -21 165 -20 hstemhm
          477 97 hintmask 11100100
          608 203 rmoveto
          -102 callsubr
          rlineto
          -49 58 92 -6 41 hhcurveto
          165 81 113 101 17 hvcurveto
          hintmask 00011000
          12 549 -46 callgsubr
        </CharString>
        <CharString name="Sdotbelow">
          639 62 callsubr
          33 87 callsubr
          hstemhm
          222 156 99 97 hintmask 01110100
          608 203 rmoveto
          -102 callsubr
          rlineto
          -49 58 92 -6 41 hhcurveto
          165 81 113 101 17 hvcurveto
          hintmask 10001000
          -230 -325 -100 callgsubr
        </CharString>
        <CharString name="Sigma">
          831 0 66 573 47 hstemhm
          762 47 -16 47 hintmask 11100000
          809 260 rmoveto
          -47 hlineto
          -173 -49 -104 -21 -140 hhcurveto
          -269 hlineto
          334 258 7 5 7 5 1 9 rlinecurve
          1 6 -3 5 -2 4 -181 281 rcurveline
          204 hlineto
          hintmask 11010000
          148 83 -27 -167 -6 hvcurveto
          47 hlineto
          9 241 rlineto
          -639 hlineto
          -20 -12 0 -24 -4 hvcurveto
          -1 -10 -1 -2 9 -11 226 -351 rcurveline
          -325 -251 -7 -5 -6 -5 -2 -9 rlinecurve
          -18 -3 17 0 15 hhcurveto
          639 hlineto
          hintmask 00100000
          endchar
        </CharString>
        <CharString name="T">
          800 0 79 callgsubr
          hintmask 01101000
          -47 callsubr
          hintmask 10010000
          -43 callsubr
          hintmask 01001100
          11 callgsubr
          endchar
        </CharString>
        <CharString name="T_uni0303">
          800 728 74 -57 74 -57 74 40 callgsubr
          cntrmask 11100000
          hintmask 11110100
          -47 callsubr
          hintmask 11101000
          -43 callsubr
          hintmask 11100110
          11 callgsubr
          hintmask 11100000
          -55 377 -101 callsubr
        </CharString>
        <CharString name="T_uni0308">
          800 0 214 callgsubr
          53 140 hstemhm
          114 47 151 140 -115 142 -45 142 39 140 27 47 hintmask 0101001000000000
          -47 callsubr
          hintmask 1000010000000000
          -43 callsubr
          hintmask 0100001010000000
          11 callgsubr
          hintmask 0010100100000000
          -330 364 -87 callsubr
        </CharString>
        <CharString name="Tau">
          800 0 79 callgsubr
          hintmask 01101000
          -47 callsubr
          hintmask 10010000
          -43 callsubr
          hintmask 01001100
          11 callgsubr
          endchar
        </CharString>
        <CharString name="Tcaron">
          800 0 214 callgsubr
          74 -21 165 -20 40 callgsubr
          hintmask 01001010
          -47 callsubr
          hintmask 10000100
          -43 callsubr
          hintmask 01000011
          11 callgsubr
          hintmask 00110000
          -61 435 -60 callgsubr
        </CharString>
        <CharString name="Tcedilla">
          800 -200 48 71 48 33 214 callgsubr
          hstemhm
          114 47 176 142 -73 128 -100 152 callsubr
          hintmask 0001100100000000
          -47 callsubr
          hintmask 0110010000000000
          -97 -581 rlineto
          -153 hlineto
          -8 -47 176 3 -14 -84 rlineto
          hintmask 1110001000000000
          35 38 -2 callgsubr
          50 8 -46 33 -54 hhcurveto
          6 36 176 -3 -71 callgsubr
          hintmask 0010010000000000
          -153 hlineto
          hintmask 0001000110000000
          11 callgsubr
          endchar
        </CharString>
        <CharString name="Tdotbelow">
          800 104 callgsubr
          581 47 hstemhm
          114 47 141 156 -121 142 -45 152 callsubr
          hintmask 00110010
          -47 callsubr
          hintmask 01000100
          -43 callsubr
          hintmask 00100011
          11 callgsubr
          hintmask 10001000
          -324 -556 -100 callgsubr
        </CharString>
        <CharString name="Theta">
          894 -11 38 257 121 256 36 hstemhm
          121 142 50 47 -16 47 226 47 -16 47 49 142 hintmask 1111010110000000
          886 340 rmoveto
          202 33 -112 155 -244 hhcurveto
          -251 -158 -160 -197 -33 hvcurveto
          -206 -35 119 -145 239 hhcurveto
          244 164 149 202 34 hvcurveto
          -142 hmoveto
          -11 -65 -20 -88 -59 -69 rrcurveto
          -67 -58 -79 -24 -66 hhcurveto
          -56 -86 19 90 -38 hvcurveto
          -27 63 8 79 11 62 12 73 21 81 51 65 rrcurveto
          75 61 81 27 67 hhcurveto
          74 71 -32 -72 32 hvcurveto
          27 -61 -3 -75 -13 -81 rrcurveto
          -80 -90 rmoveto
          31 189 rlineto
          -47 hlineto
          -5 -34 rlineto
          -257 hlineto
          5 34 rlineto
          -47 hlineto
          hintmask 0100101000000000
          -31 -189 rlineto
          47 hlineto
          5 34 rlineto
          257 hlineto
          -5 -34 rlineto
          endchar
        </CharString>
        <CharString name="Thorn">
          724 0 47 131 47 292 47 75 47 hstem
          719 371 rmoveto
          105 17 -66 88 -155 hhcurveto
          -143 hlineto
          13 75 134 callsubr
          -173 -3 -174 3 -7 -47 -51 callsubr
          -99 -592 rlineto
          -108 hlineto
          -8 -47 174 3 173 -3 148 callgsubr
          22 131 rlineto
          132 hlineto
          205 62 123 70 12 hvcurveto
          -147 1 rmoveto
          -147 -24 -114 0 -23 hhcurveto
          -95 hlineto
          48 292 rlineto
          115 hlineto
          20 41 0 -45 23 hvcurveto
          19 -39 -8 -52 -2 -9 rrcurveto
          endchar
        </CharString>
        <CharString name="Tlinebelow">
          800 -148 52 96 79 callgsubr
          hintmask 00110100
          -47 callsubr
          hintmask 01001000
          -43 callsubr
          hintmask 00100110
          11 callgsubr
          hintmask 10000000
          -199 -582 -54 callgsubr
        </CharString>
        <CharString name="U">
          885 -11 150 callgsubr
          hintmask 00100000
          9 callsubr
          hintmask 01001000
          -3 -38 -57 0 -39 hhcurveto
          hintmask 00101000
          -60 callsubr
          hintmask 11000100
          -89 callgsubr
          hintmask 00110000
          -17 callgsubr
          hintmask 01000000
          -3 -38 -98 0 -43 hhcurveto
          hintmask 10110100
          -90 callgsubr
          endchar
        </CharString>
        <CharString name="U_uni032F">
          885 -194 -21 125 62 17 150 callgsubr
          hintmask 00001000
          9 callsubr
          hintmask 00010010
          -3 -38 -57 0 -39 hhcurveto
          hintmask 00001010
          -60 callsubr
          hintmask 00110001
          -89 callgsubr
          hintmask 00001100
          -17 callgsubr
          hintmask 00010000
          -3 -38 -98 0 -43 hhcurveto
          hintmask 00101101
          -92 callsubr
          rlineto
          hintmask 00010000
          3 22 2 1 28 3 rrcurveto
          hintmask 00001000
          15 callgsubr
          hintmask 11000000
          -316 -854 -21 callgsubr
        </CharString>
        <CharString name="Uacute">
          13 callgsubr
          73 -21 171 -20 -103 callgsubr
          -163 198 -100 callsubr
        </CharString>
        <CharString name="Ubreve">
          13 callgsubr
          52 62 125 -20 -103 callgsubr
          -126 286 -98 callsubr
          endchar
        </CharString>
        <CharString name="Ucaron">
          13 callgsubr
          63 -21 165 -20 -103 callgsubr
          -137 230 -60 callgsubr
        </CharString>
        <CharString name="Ucircumflex">
          13 callgsubr
          63 -21 165 -20 -103 callgsubr
          -157 113 -46 callgsubr
        </CharString>
        <CharString name="Udblgrave">
          13 callgsubr
          73 -21 195 -20 -103 callgsubr
          -183 123 -74 callsubr
        </CharString>
        <CharString name="Udieresis">
          13 callgsubr
          42 140 120 callsubr
          -15 140 162 142 -141 140 -38 53 hintmask 0010000000000000
          9 callsubr
          hintmask 0100001000000000
          -3 -38 -57 0 -39 hhcurveto
          hintmask 0010001000000000
          -60 callsubr
          hintmask 1100000010000000
          -89 callgsubr
          hintmask 0010100000000000
          -17 callgsubr
          hintmask 0100000000000000
          -3 -38 -98 0 -43 hhcurveto
          hintmask 1010100010000000
          -32 callsubr
          hintmask 0001010100000000
          -406 45 callsubr
        </CharString>
        <CharString name="Udieresisacute">
          13 callgsubr
          42 140 73 -21 171 -83 callgsubr
          -30 221 -100 callsubr
        </CharString>
        <CharString name="Udieresiscaron">
          13 callgsubr
          42 140 63 -21 165 -83 callgsubr
          -4 253 -60 callgsubr
        </CharString>
        <CharString name="Udieresisgrave">
          13 callgsubr
          42 140 73 -21 171 -83 callgsubr
          -117 164 -76 callgsubr
        </CharString>
        <CharString name="Udotbelow">
          885 62 callsubr
          33 47 600 47 -44 47 120 callsubr
          -25 156 156 142 -39 53 hintmask 00010000
          9 callsubr
          hintmask 00100010
          -3 -38 -57 0 -39 hhcurveto
          hintmask 00010010
          -60 callsubr
          hintmask 01100001
          -89 callgsubr
          hintmask 00011000
          -17 callgsubr
          hintmask 00100000
          -3 -38 -98 0 -43 hhcurveto
          hintmask 01011001
          -92 callsubr
          rlineto
          hintmask 00100000
          3 22 2 1 28 3 rrcurveto
          hintmask 00010000
          15 callgsubr
          hintmask 10000100
          -400 -761 -100 callgsubr
        </CharString>
        <CharString name="Ugrave">
          13 callgsubr
          73 -21 171 -20 -103 callgsubr
          -250 141 -76 callgsubr
        </CharString>
        <CharString name="Uhookabove">
          13 callgsubr
          74 -21 193 -20 -103 callgsubr
          -201 230 -106 callgsubr
        </CharString>
        <CharString name="Uhorn">
          -95 callgsubr
          endchar
        </CharString>
        <CharString name="Uhornacute">
          -95 callgsubr
          hintmask 11100000
          -267 101 -100 callsubr
        </CharString>
        <CharString name="Uhorndotbelow">
          885 636 47 -44 44 -44 47 hstemhm
          185 142 -73 142 -69 142 -124 156 140 133 -53 53 cntrmask 1110000000000000
          hintmask 1110000010000000
          999 736 rmoveto
          43 7 -19 40 -40 hhcurveto
          -45 -28 -33 -33 -5 hvcurveto
          -34 -6 16 -33 45 hhcurveto
          3 hlineto
          -20 -23 -32 -16 -32 -5 7 44 rcurveline
          -2 -9 -9 -1 -9 hhcurveto
          -134 3 -7 callgsubr
          27 27 0 -3 26 hvcurveto
          12 -2 14 -2 -1 -6 -66 -397 rcurveline
          hintmask 1110010100000000
          -9 -56 -29 -52 -42 -33 rrcurveto
          -36 -47 -60 -16 -65 hhcurveto
          -55 -47 16 35 -25 hvcurveto
          -25 32 0 46 10 64 rrcurveto
          hintmask 1110100000000000
          69 410 134 callsubr
          -179 -3 -179 3 -7 -47 -51 callsubr
          hintmask 1111000010000000
          -69 -410 -11 -70 22 -65 49 -41 rlinecurve
          -46 54 75 -18 87 hhcurveto
          75 74 20 45 59 hvcurveto
          57 43 37 64 11 68 61 365 rcurveline
          79 11 72 56 13 75 rrcurveto
          hintmask 1110001000000000
          -498 -858 -100 callgsubr
        </CharString>
        <CharString name="Uhorngrave">
          -95 callgsubr
          hintmask 11100000
          -322 44 -76 callgsubr
        </CharString>
        <CharString name="Uhornhookabove">
          -95 callgsubr
          hintmask 11100000
          -273 133 -106 callgsubr
        </CharString>
        <CharString name="Uhorntilde">
          -95 callgsubr
          hintmask 11100001
          -203 75 -101 callsubr
        </CharString>
        <CharString name="Uhungarumlaut">
          13 callgsubr
          73 -21 195 -20 -103 callgsubr
          -302 234 rmoveto
          -53 callgsubr
          24 81 callgsubr
          192 hmoveto
          -53 callgsubr
          24 81 callgsubr
          endchar
        </CharString>
        <CharString name="Umacron">
          13 callgsubr
          62 52 120 callsubr
          287 142 -39 53 hintmask 00100000
          9 callsubr
          hintmask 01000100
          -3 -38 -57 0 -39 hhcurveto
          hintmask 00100100
          -60 callsubr
          hintmask 11000010
          -89 callgsubr
          hintmask 00101000
          -17 callgsubr
          hintmask 01000000
          -3 -38 -98 0 -43 hhcurveto
          hintmask 10101010
          -84 callgsubr
          -126 109 -54 callgsubr
        </CharString>
        <CharString name="Uogonek">
          885 -206 78 117 150 callgsubr
          hintmask 00010000
          9 callsubr
          hintmask 00100100
          -3 -38 -57 0 -39 hhcurveto
          hintmask 00010100
          -60 callsubr
          hintmask 01100010
          -89 callgsubr
          hintmask 00011000
          -17 callgsubr
          hintmask 00100000
          -3 -38 -98 0 -43 hhcurveto
          hintmask 10011010
          -43 -98 67 callsubr
          108 hlineto
          -68 -408 -21 -124 78 -104 178 -13 rlinecurve
          -30 -24 -26 -37 -5 -29 -58 callsubr
          -33 -17 37 40 20 hvcurveto
          9 16 13 15 14 11 162 18 88 107 19 113 64 381 rcurveline
          hintmask 00100000
          3 22 2 1 28 3 rrcurveto
          210 callsubr
        </CharString>
        <CharString name="Upsilon">
          894 0 47 535 115 hstemhm
          384 142 -92 142 69 142 hintmask 01100000
          921 554 rmoveto
          64 11 -44 79 -96 hhcurveto
          -91 -106 -62 -164 -69 hvcurveto
          -1 hlineto
          146 -13 -73 80 -106 hhcurveto
          -96 -70 -79 -64 -11 hvcurveto
          -23 -3 13 0 14 hhcurveto
          15 8 1 19 6 hvcurveto
          22 8 19 9 64 hhcurveto
          31 58 0 -73 31 hvcurveto
          hintmask 00010000
          29 -69 -13 -80 -2 -15 rrcurveto
          hintmask 10100000
          -50 -298 rlineto
          -135 200 callsubr
          45 112 0 50 hhcurveto
          50 112 113 callsubr
          hintmask 01011000
          50 298 9 56 25 66 35 45 rlinecurve
          70 57 52 0 33 hhcurveto
          81 -1 -17 -17 hvcurveto
          -17 1 11 0 12 hhcurveto
          14 13 0 23 3 hvcurveto
          endchar
        </CharString>
        <CharString name="Uring">
          13 callgsubr
          12 41 86 41 -103 callgsubr
          -262 143 -61 callsubr
        </CharString>
        <CharString name="Utilde">
          885 728 53 callsubr
          254 142 287 142 -39 53 cntrmask 11100000
          hintmask 11101000
          9 callsubr
          -3 -38 -57 0 -39 hhcurveto
          -60 callsubr
          14 callsubr
          hintmask 11110100
          29 -3 0 -1 -3 -22 -63 -377 rcurveline
          -148 -25 -117 -49 -109 hhcurveto
          -175 20 131 56 9 hvcurveto
          70 416 rlineto
          108 hlineto
          7 47 rlineto
          -3 -38 -98 0 -43 hhcurveto
          -92 callsubr
          3 22 2 1 28 3 rlinecurve
          15 callgsubr
          hintmask 11100000
          -131 172 -101 callsubr
        </CharString>
        <CharString name="V">
          869 13 -21 647 47 hstemhm
          133 816 -809 816 hintmask 01010000
          949 -10 callsubr
          -113 -3 rlineto
          -40 -52 0 3 -39 -39 callsubr
          9 79 0 -12 -2 hvcurveto
          -1 -4 -4 -5 -1 -3 -278 -455 rcurveline
          -133 479 rlineto
          94 68 callgsubr
          -96 0 -43 hhcurveto
          -39 -84 137 callsubr
          hintmask 11100000
          -7 callgsubr
          92 hlineto
          172 -621 rlineto
          -18 5 3 -8 28 hhcurveto
          16 13 0 24 15 hvcurveto
          366 601 rlineto
          13 8 6 9 73 hhcurveto
          endchar
        </CharString>
        <CharString name="W">
          182 callgsubr
          56 callsubr
          hintmask 01010000
          -70 callgsubr
          hintmask 11100000
          -52 callsubr
          endchar
        </CharString>
        <CharString name="Wacute">
          182 callgsubr
          73 -21 171 -20 56 callsubr
          hintmask 01000100
          -70 callgsubr
          hintmask 11001000
          -52 callsubr
          hintmask 00110000
          -382 198 -100 callsubr
        </CharString>
        <CharString name="Wcircumflex">
          182 callgsubr
          63 -21 165 -20 56 callsubr
          hintmask 01000100
          -70 callgsubr
          hintmask 11001000
          -52 callsubr
          hintmask 00110000
          -376 113 -46 callgsubr
        </CharString>
        <CharString name="Wdieresis">
          182 callgsubr
          42 140 56 callsubr
          -772 140 163 140 hintmask 01001000
          -70 callgsubr
          hintmask 11010000
          -52 callsubr
          hintmask 00100110
          -625 45 callsubr
        </CharString>
        <CharString name="Wgrave">
          182 callgsubr
          73 -21 171 -20 56 callsubr
          hintmask 01000100
          -70 callgsubr
          hintmask 11001000
          -52 callsubr
          hintmask 00110000
          -469 141 -76 callgsubr
        </CharString>
        <CharString name="X">
          -49 callgsubr
        </CharString>
        <CharString name="Xi">
          767 0 112 97 -20 80 -21 47 112 47 -20 64 -21 86 112 hstemhm
          83 47 -1 47 -42 47 20 47 -12 47 317 47 -12 47 24 47 -8 47 hintmask 0000001010000000
          792 477 rmoveto
          24 198 rlineto
          -640 hlineto
          hintmask 0000011001000001
          -42 -198 rlineto
          47 hlineto
          4 18 8 42 13 17 rrcurveto
          9 8 65 0 11 hhcurveto
          374 hlineto
          13 58 0 -7 8 hvcurveto
          11 -10 -7 -56 -2 -13 rrcurveto
          8 -268 rmoveto
          hintmask 1100000010000010
          -47 hlineto
          -9 -40 -7 -34 -13 -14 rrcurveto
          -9 -9 -73 0 -5 hhcurveto
          -376 hlineto
          -26 -53 0 12 -6 hvcurveto
          hintmask 1101100100010110
          -7 14 4 36 4 35 rrcurveto
          -47 hlineto
          -26 -209 rlineto
          652 hlineto
          -62 248 rmoveto
          35 206 rlineto
          -47 -74 callgsubr
          -352 213 callsubr
          -47 hlineto
          hintmask 0011000000101000
          -35 -206 rlineto
          47 213 callsubr
          352 -74 callgsubr
          endchar
        </CharString>
        <CharString name="Y">
          82 callgsubr
          96 callgsubr
          hintmask 00100000
          956 -32 callgsubr
          hintmask 01000000
          -114 -3 rlineto
          hintmask 00100000
          -39 -56 0 3 -37 -39 callsubr
          23 27 0 -10 24 hvcurveto
          -3 -4 0 -2 -6 -6 -233 -275 rcurveline
          -153 297 rlineto
          85 -33 callgsubr
          hintmask 01000000
          -3 -41 -97 0 -45 hhcurveto
          hintmask 00101000
          -40 -90 142 callsubr
          98 hlineto
          188 -365 rlineto
          hintmask 10010000
          -38 -227 17 callsubr
          43 96 75 callgsubr
          -109 hlineto
          hintmask 01001000
          38 227 292 345 12 14 8 0 22 3 rlinecurve
          hintmask 00100000
          2 17 19 1 17 hhcurveto
          endchar
        </CharString>
        <CharString name="Yacute">
          82 callgsubr
          73 -21 171 -20 96 callgsubr
          -90 callsubr
          hintmask 00011000
          -206 198 -100 callsubr
        </CharString>
        <CharString name="Ycircumflex">
          82 callgsubr
          63 -21 165 -20 96 callgsubr
          -90 callsubr
          hintmask 00011000
          -200 113 -46 callgsubr
        </CharString>
        <CharString name="Ydieresis">
          82 callgsubr
          42 140 hstemhm
          346 140 -112 136 -98 136 101 140 -90 callsubr
          hintmask 00011001
          -449 45 callsubr
        </CharString>
        <CharString name="Ydotbelow">
          869 104 callgsubr
          589 47 -44 47 hstemhm
          337 156 -119 136 -98 136 hintmask 00010000
          956 -32 callgsubr
          hintmask 00100000
          -114 -3 rlineto
          hintmask 00010000
          -39 -56 0 3 -37 -39 callsubr
          23 27 0 -10 24 hvcurveto
          -3 -4 0 -2 -6 -6 -233 -275 rcurveline
          -153 297 rlineto
          85 162 callsubr
          -41 -97 0 -45 hhcurveto
          hintmask 00010010
          -40 -90 142 callsubr
          98 hlineto
          188 -365 rlineto
          hintmask 01000100
          -38 -227 17 callsubr
          43 96 75 callgsubr
          -109 hlineto
          hintmask 00100010
          38 227 292 345 12 14 8 0 22 3 rlinecurve
          hintmask 00010000
          2 17 19 1 17 hhcurveto
          hintmask 10001000
          -442 -761 -100 callgsubr
        </CharString>
        <CharString name="Ygrave">
          82 callgsubr
          73 -21 171 -20 96 callgsubr
          -90 callsubr
          hintmask 00011000
          -293 141 -76 callgsubr
        </CharString>
        <CharString name="Yhookabove">
          82 callgsubr
          74 -21 193 -20 96 callgsubr
          -90 callsubr
          hintmask 00011000
          -244 230 -106 callgsubr
        </CharString>
        <CharString name="Ytilde">
          869 728 74 -57 74 -57 74 96 callgsubr
          cntrmask 11100000
          hintmask 11101000
          956 -10 callsubr
          -114 -3 rlineto
          -39 -56 0 3 -37 -39 callsubr
          23 27 0 -10 24 hvcurveto
          -3 -4 0 -2 -6 -6 -233 -275 rcurveline
          -153 297 rlineto
          85 39 callgsubr
          -41 -97 0 -45 hhcurveto
          -40 -90 142 callsubr
          98 hlineto
          188 -365 rlineto
          hintmask 11110000
          -38 -227 17 callsubr
          43 96 75 callgsubr
          -109 hlineto
          hintmask 11101000
          38 227 292 345 12 14 8 0 22 3 rlinecurve
          2 17 19 1 17 hhcurveto
          hintmask 11100000
          -174 172 -101 callsubr
        </CharString>
        <CharString name="Z">
          143 callgsubr
          hstem
          154 47 444 47 vstem
          -75 callgsubr
          endchar
        </CharString>
        <CharString name="Zacute">
          143 callgsubr
          147 callsubr
          154 47 444 47 hintmask 11001100
          -75 callgsubr
          hintmask 00110000
          19 837 -100 callsubr
        </CharString>
        <CharString name="Zcaron">
          143 callgsubr
          104 callsubr
          154 47 444 47 hintmask 11001100
          -75 callgsubr
          hintmask 00110000
          45 869 -60 callgsubr
        </CharString>
        <CharString name="Zdotaccent">
          143 callgsubr
          53 156 hstemhm
          154 47 209 156 79 47 hintmask 11010100
          -75 callgsubr
          hintmask 00101000
          -61 817 -94 callsubr
          endchar
        </CharString>
        <CharString name="Zdotbelow">
          703 62 callsubr
          44 51 588 47 hstemhm
          154 47 53 156 235 47 hintmask 01110100
          -75 callgsubr
          hintmask 10001000
          -217 -122 -100 callgsubr
        </CharString>
        <CharString name="Zeta">
          143 callgsubr
          hstem
          154 47 444 47 vstem
          -75 callgsubr
          endchar
        </CharString>
        <CharString name="a">
          -34 callsubr
          hstemhm
          hintmask 01010000
          -107 callsubr
          endchar
        </CharString>
        <CharString name="aacute">
          -34 callsubr
          89 callsubr
          hintmask 01010000
          -107 callsubr
          hintmask 00001100
          142 408 -93 callgsubr
        </CharString>
        <CharString name="abreve">
          -34 callsubr
          60 62 125 -20 hstemhm
          hintmask 01010000
          -107 callsubr
          hintmask 00001100
          183 466 -52 callgsubr
          endchar
        </CharString>
        <CharString name="abreveacute">
          168 callgsubr
          331 -36 callsubr
          -39 134 -100 callsubr
        </CharString>
        <CharString name="abrevedotbelow">
          94 callsubr
          60 62 125 -20 -54 callsubr
          hintmask 01010110
          -96 -16 -94 -13 -25 hhcurveto
          -51 -34 35 44 7 hvcurveto
          18 108 161 14 50 3 rrcurveto
          183 466 -52 callgsubr
          hintmask 10000001
          -236 -822 -100 callgsubr
        </CharString>
        <CharString name="abrevegrave">
          168 callgsubr
          125 -36 callsubr
          -47 77 147 callgsubr
          -22 98 callgsubr
          11 -9 -9 10 hvcurveto
          27 -24 63 -63 26 -24 rrcurveto
          endchar
        </CharString>
        <CharString name="abrevehookabove">
          168 callgsubr
          333 -36 callsubr
          -41 145 rmoveto
          4 22 -11 18 -19 76 callsubr
          -25 -28 callgsubr
          -8 20 callsubr
          12 12 2 14 hhcurveto
          17 11 -3 -6 5 hvcurveto
          1 201 callgsubr
          -1 -9 -4 -7 -5 -4 -30 -21 -21 -28 -6 -31 -2 -16 rcurveline
          -8 -2 5 -6 8 hhcurveto
          7 7 6 8 2 hvcurveto
          3 17 4 23 24 117 callsubr
          3 21 rrcurveto
          endchar
        </CharString>
        <CharString name="abrevetilde">
          559 756 -64 callsubr
          183 467 -98 callsubr
          37 138 -101 callsubr
        </CharString>
        <CharString name="acaron">
          -34 callsubr
          71 -21 207 -20 hstemhm
          hintmask 01010000
          -107 callsubr
          hintmask 00001100
          181 454 -42 callgsubr
        </CharString>
        <CharString name="acircumflex">
          -34 callsubr
          71 -21 207 -20 hstemhm
          hintmask 01010000
          -107 callsubr
          hintmask 00001100
          154 291 -57 callgsubr
          endchar
        </CharString>
        <CharString name="acircumflexacute">
          -34 callsubr
          71 -21 371 -31 callgsubr
          7 299 71 callgsubr
          -14 -9 -9 -13 hvcurveto
          -153 -111 17 -42 171 54 19 6 24 7 12 32 rlinecurve
          endchar
        </CharString>
        <CharString name="acircumflexdotbelow">
          94 callsubr
          71 -21 207 -20 -54 callsubr
          hintmask 01010110
          -96 -16 -94 -13 -25 hhcurveto
          -51 -34 35 44 7 hvcurveto
          18 108 161 14 50 3 rrcurveto
          154 291 -57 callgsubr
          hintmask 10000001
          -183 -625 -100 callgsubr
        </CharString>
        <CharString name="acircumflexgrave">
          -34 callsubr
          71 -21 165 -31 callgsubr
          -2 242 72 callsubr
          rlineto
          -17 6 -22 7 32 vvcurveto
          -9 callgsubr
        </CharString>
        <CharString name="acircumflexhookabove">
          -34 callsubr
          71 -21 373 -31 callgsubr
          116 310 42 callgsubr
          -5 17 76 callgsubr
          21 16 25 5 hvcurveto
          2 14 -4 11 -8 7 rrcurveto
          2 11 13 2 14 hhcurveto
          17 10 -3 -6 5 hvcurveto
          2 -2 -1 -8 -2 -17 -2 -9 -3 -7 -6 -4 -29 -21 -22 -28 -5 -31 -3 -16 rcurveline
          -8 -1 5 -6 8 hhcurveto
          7 7 6 8 1 hvcurveto
          3 17 5 23 23 117 callsubr
          4 21 rrcurveto
          endchar
        </CharString>
        <CharString name="acircumflextilde">
          559 723 -64 callsubr
          124 callsubr
          82 303 -69 callgsubr
        </CharString>
        <CharString name="acute">
          575 530 85 callgsubr
          hstem
          541 642 -93 callgsubr
        </CharString>
        <CharString name="acute.cap">
          575 517 173 callgsubr
          hstem
          542 595 -100 callsubr
        </CharString>
        <CharString name="acute.dup">
          575 530 85 callgsubr
          hstem
          541 642 -93 callgsubr
        </CharString>
        <CharString name="acute.ts1">
          575 531 85 callgsubr
          hstem
          564 642 rmoveto
          32 5 96 callsubr
          -32 -24 -31 -21 -21 hvcurveto
          -108 -106 23 -37 46 19 48 26 44 22 rlinecurve
          30 14 38 13 6 38 rrcurveto
          endchar
        </CharString>
        <CharString name="adblgrave">
          -34 callsubr
          89 callsubr
          hintmask 01010000
          -107 callsubr
          hintmask 00001100
          125 299 -81 callsubr
        </CharString>
        <CharString name="adieresis">
          -34 callsubr
          84 140 hstemhm
          182 65 callsubr
          hintmask 01010100
          -107 callsubr
          hintmask 00001110
          -69 373 -73 callsubr
        </CharString>
        <CharString name="adotbelow">
          94 callsubr
          -54 callsubr
          hintmask 01010000
          -96 -16 -94 -13 -25 hhcurveto
          -51 -34 35 44 7 hvcurveto
          18 108 161 14 50 3 rrcurveto
          hintmask 10000100
          -53 -356 -100 callgsubr
        </CharString>
        <CharString name="ae">
          -66 callsubr
        </CharString>
        <CharString name="ae.dup">
          -66 callsubr
        </CharString>
        <CharString name="aeacute">
          831 -6 36 188 33 110 36 -31 33 18 36 89 callsubr
          54 117 -39 95 167 114 -111 117 -116 95 hintmask 0110100001000000
          818 117 rmoveto
          18 3 -19 0 -5 hhcurveto
          -17 -3 -5 -14 -9 hvcurveto
          -59 -32 -61 -23 -48 hhcurveto
          -143 18 134 50 6 hvcurveto
          294 hlineto
          24 9 1 27 4 hvcurveto
          6 34 5 67 -36 50 rrcurveto
          26 -18 -41 30 -80 hhcurveto
          -56 -57 -13 -36 -55 hvcurveto
          hintmask 0001100000010000
          -5 -5 -3 0 0 vvcurveto
          0 -2 1 -4 3 vhcurveto
          35 -39 -48 15 -78 hhcurveto
          hintmask 0010100010000000
          -59 -122 -4 -88 -15 hvcurveto
          -44 -7 32 -19 27 hhcurveto
          31 35 21 42 7 hvcurveto
          5 30 -16 17 -3 2 rrcurveto
          6 30 33 1 12 hhcurveto
          76 26 -44 -74 -12 hvcurveto
          -9 -51 -111 -6 -30 -2 -68 -20 rlinecurve
          hintmask 0000000100000000
          -72 -21 -55 -41 -9 -55 rrcurveto
          hintmask 1101100010100000
          -89 -15 104 -20 84 hhcurveto
          29 114 1 64 66 hvcurveto
          -45 42 66 -20 68 hhcurveto
          140 62 103 20 4 202 callsubr
          -231 hlineto
          15 76 23 28 10 11 rrcurveto
          49 41 54 2 11 hhcurveto
          97 -14 -112 -54 -6 hvcurveto
          -347 -127 rmoveto
          -50 -9 -69 -44 -73 hhcurveto
          hintmask 0000000101000000
          -54 -28 35 38 6 hvcurveto
          12 73 103 36 108 2 rrcurveto
          hintmask 0000000000100000
          -4 -27 2 -25 5 -24 rrcurveto
          hintmask 0000000000010000
          2 -8 0 -1 -1 -5 rrcurveto
          hintmask 0000011000000000
          271 518 -93 callgsubr
        </CharString>
        <CharString name="agrave">
          -34 callsubr
          89 callsubr
          hintmask 01010000
          -107 callsubr
          hintmask 00001100
          52 312 -62 callsubr
        </CharString>
        <CharString name="ahookabove">
          -34 callsubr
          78 -21 193 -20 hstemhm
          hintmask 01010000
          -107 callsubr
          hintmask 00001100
          107 406 -106 callgsubr
        </CharString>
        <CharString name="amacron">
          -34 callsubr
          128 52 hstemhm
          hintmask 01010000
          -107 callsubr
          hintmask 00001000
          193 347 -54 callgsubr
        </CharString>
        <CharString name="ampersand">
          894 -11 47 102 36 205 36 -18 47 225 36 hstemhm
          383 128 -47 47 0 47 244 47 hintmask 0001000000000000
          902 397 108 callgsubr
          -2 -32 -40 -1 -27 hhcurveto
          -11 -84 1 2 -27 hvcurveto
          -56 callsubr
          22 27 0 -10 23 hvcurveto
          -71 -88 -74 -86 -87 -72 rrcurveto
          hintmask 0010010000000000
          -52 66 -61 88 -25 84 16 12 52 42 33 31 rrcurveto
          hintmask 1100100100000000
          31 30 36 41 7 39 rrcurveto
          53 9 -19 78 -78 hhcurveto
          -83 -108 -62 -115 -19 hvcurveto
          -10 -59 3 -64 18 -69 -84 -63 rcurveline
          -24 -18 -39 -29 -9 -8 -25 -25 -14 -27 -5 -28 rrcurveto
          -93 -15 88 -56 110 hhcurveto
          hintmask 1001001010000000
          71 71 23 40 68 hvcurveto
          -16 25 72 -47 103 hhcurveto
          82 86 45 84 17 hvcurveto
          -47 hlineto
          -75 -17 -89 -7 -19 hhcurveto
          -47 -44 30 44 -39 hvcurveto
          54 47 39 34 57 67 102 119 rcurveline
          20 17 33 0 53 hhcurveto
          -391 177 rmoveto
          hintmask 1110110000000000
          -8 -45 -52 -54 -77 -60 -7 29 -7 59 10 62 rrcurveto
          83 14 56 21 25 hhcurveto
          49 2 -65 -30 -5 hvcurveto
          -83 -494 rmoveto
          -44 -75 -72 0 -7 hhcurveto
          -83 9 109 29 5 hvcurveto
          8 47 23 52 45 29 24 -66 45 -88 78 -68 rrcurveto
          endchar
        </CharString>
        <CharString name="anglearc">
          894 -111 -21 766 -20 hstemhm
          669 60 -57 60 -54 60 hintmask 00010000
          834 30 rmoveto
          2 13 -7 12 -11 4 -130 43 rcurveline
          21 48 14 50 9 51 rrcurveto
          hintmask 00001000
          8 51 3 50 -5 48 144 43 rcurveline
          13 4 11 12 2 13 3 20 -17 15 -20 -6 rrcurveto
          hintmask 11100000
          -145 -43 -12 59 -21 56 -32 50 rlinecurve
          7 -4 -8 4 -9 hhcurveto
          -17 -15 -13 -17 -3 hvcurveto
          -1 -7 0 -7 4 -5 28 -44 19 -49 11 -52 -537 -160 rcurveline
          -13 -4 -11 -12 -2 -13 -2 -13 7 -12 11 -4 484 -160 rcurveline
          -28 -52 -36 -49 -43 -44 -5 -5 -3 -7 -1 -7 rrcurveto
          195 callgsubr
          9 10 4 7 6 hvcurveto
          48 50 40 56 32 59 130 -43 rcurveline
          18 -6 23 15 3 20 rrcurveto
          -162 221 rmoveto
          -8 -45 -13 -44 -17 -42 -398 131 rcurveline
          hintmask 00001000
          442 131 rlineto
          hintmask 00010000
          3 -42 -2 -44 -7 -45 rrcurveto
          endchar
        </CharString>
        <CharString name="angleleft">
          447 -229 -21 1000 -20 21 -20 hstemhm
          hintmask 00100000
          345 -221 rmoveto
          2 11 -4 11 -2 11 -91 363 rcurveline
          -4 17 -4 18 -5 17 -1 7 -4 9 1 8 rrcurveto
          3 3 4 2 4 vhcurveto
          11 19 230 395 8 14 13 17 2 14 rlinecurve
          16 3 -12 14 -16 hhcurveto
          hintmask 11000000
          -6 -1 -21 -3 -11 -26 -11 -17 rlinecurve
          -81 -140 -126 -219 -37 -62 -5 -10 -9 -11 -2 -12 rlinecurve
          -2 -10 4 -11 3 -9 13 -53 rcurveline
          91 -369 5 -19 1 -28 25 -1 rlinecurve
          17 17 12 17 3 hvcurveto
          endchar
        </CharString>
        <CharString name="angleright">
          447 -229 -21 1001 -20 hstem
          362 251 rmoveto
          2 10 -5 11 -2 9 -14 56 rcurveline
          -48 195 -43 172 -5 18 -1 26 -23 3 rlinecurve
          -3 -3 0 -1 -3 hvcurveto
          -15 -2 -12 -13 -3 -15 rrcurveto
          -2 vlineto
          -6 1 -6 2 -6 vhcurveto
          40 -163 50 -201 14 -58 5 -17 rlineto
          -3 1 -4 -4 vvcurveto
          -1 -3 -2 -4 -2 -4 -11 -19 rcurveline
          -83 -137 -76 -142 -84 -137 -4 -8 -5 -7 -2 -8 rrcurveto
          -16 -2 10 -15 17 hhcurveto
          2 hlineto
          24 1 11 25 10 18 84 144 rcurveline
          162 280 6 10 9 11 2 12 rlinecurve
          endchar
        </CharString>
        <CharString name="aogonek">
          178 callgsubr
          -37 callgsubr
          endchar
        </CharString>
        <CharString name="aogonekacute">
          178 callgsubr
          77 -21 195 -20 -37 callgsubr
          hintmask 00001100
          142 408 -93 callgsubr
        </CharString>
        <CharString name="aring">
          -34 callsubr
          68 41 86 41 hstemhm
          hintmask 01010000
          -107 callsubr
          hintmask 00001100
          55 371 -61 callsubr
        </CharString>
        <CharString name="aringacute">
          -34 callsubr
          68 41 86 41 206 -20 hstemhm
          hintmask 01010000
          -107 callsubr
          hintmask 00001110
          55 371 16 callgsubr
        </CharString>
        <CharString name="asciicircum">
          556 583 -21 123 59 hstem
          92 566 vstem
          658 584 rmoveto
          -256 160 -310 -160 8 -22 291 123 252 -123 rlineto
          endchar
        </CharString>
        <CharString name="asciitilde">
          556 193 204 callsubr
          603 290 171 callsubr
          -31 hvcurveto
          17 -27 167 callsubr
          -21 -10 -22 84 callsubr
          28 8 10 23 189 callsubr
        </CharString>
        <CharString name="asciitilde.low">
          556 0 204 callsubr
          571 97 171 callsubr
          -32 hvcurveto
          17 -26 167 callsubr
          -22 -10 -21 84 callsubr
          27 8 10 24 189 callsubr
        </CharString>
        <CharString name="asterisk">
          575 327 -21 444 -20 hstem
          573 440 rmoveto
          5 29 -20 7 -8 3 -133 49 rcurveline
          149 49 10 3 22 7 5 29 rlinecurve
          29 5 -21 19 -20 hhcurveto
          -6 -10 -2 -9 -13 hvcurveto
          -139 -93 44 128 5 16 1 2 1 5 rlinecurve
          29 4 -25 10 -17 hhcurveto
          -17 -29 -11 -28 -4 hvcurveto
          -1 -5 -1 -2 1 -16 rrcurveto
          -128 vlineto
          -107 93 rlineto
          9 -11 -8 2 -6 hhcurveto
          -20 -27 -19 -29 -5 hvcurveto
          -5 -29 20 -7 8 -3 133 -49 rcurveline
          -149 -49 -10 -3 -22 -7 -5 -29 rlinecurve
          -29 -4 20 -19 20 hhcurveto
          6 10 2 9 13 hvcurveto
          139 93 -44 -128 rlineto
          -5 -16 -1 -2 -5 vvcurveto
          -29 -5 25 -10 17 hhcurveto
          17 29 11 28 5 hvcurveto
          5 1 43 25 vvcurveto
          77 vlineto
          106 -92 rlineto
          -10 12 8 -1 5 hhcurveto
          20 28 19 29 4 hvcurveto
          endchar
        </CharString>
        <CharString name="asterisk.math">
          575 50 -21 444 -20 hstem
          255 88 -40 40 -40 88 cntrmask 00111000
          527 163 rmoveto
          5 30 -23 7 -34 12 -34 13 -36 11 -33 15 47 18 48 15 49 15 23 7 14 13 4 20 rrcurveto
          24 4 -15 24 -25 hhcurveto
          -21 -23 -21 -12 -18 hvcurveto
          -105 -70 10 37 15 38 12 36 rlinecurve
          4 11 6 14 2 12 rrcurveto
          27 5 -19 14 -23 hhcurveto
          -23 -23 -14 -26 -5 hvcurveto
          -2 -13 2 -15 -11 vvcurveto
          -36 2 -38 -3 -36 vhcurveto
          -104 90 rlineto
          7 -7 -7 6 -13 hhcurveto
          -25 -24 -25 -24 -4 hvcurveto
          -5 -32 34 -8 23 -8 35 -13 35 -11 34 -15 -47 -18 -49 -15 -48 -15 -20 -6 -17 -12 -4 -21 rrcurveto
          -24 -4 15 -25 25 hhcurveto
          21 23 21 12 18 hvcurveto
          104 70 -9 -36 -15 -38 -12 -36 rlinecurve
          -4 -11 -6 -15 -2 -13 rrcurveto
          -26 -5 19 -14 23 hhcurveto
          23 23 14 27 5 hvcurveto
          2 12 -2 14 11 vvcurveto
          36 -3 38 3 37 vhcurveto
          104 -90 rlineto
          -7 8 7 -6 13 hhcurveto
          25 23 24 24 4 hvcurveto
          endchar
        </CharString>
        <CharString name="at">
          894 -6 36 98 36 366 36 98 36 hstem
          122 47 106 114 61 114 35 114 vstem
          842 79 rmoveto
          14 3 -13 0 -15 hhcurveto
          -24 hlineto
          -16 -2 0 -7 -18 hvcurveto
          -36 -100 -102 -20 -100 hhcurveto
          -231 -83 147 170 28 hvcurveto
          186 31 147 131 210 hhcurveto
          183 136 -103 -221 -37 hvcurveto
          -90 -15 -28 -86 -60 hhcurveto
          -33 8 45 14 2 hvcurveto
          39 230 rlineto
          27 4 -1 2 -29 hhcurveto
          -39 hlineto
          47 -21 -50 37 -77 hhcurveto
          -136 -106 -87 -132 -22 hvcurveto
          -131 -22 76 -88 137 hhcurveto
          46 48 13 32 43 hvcurveto
          -41 24 67 -4 26 hhcurveto
          121 36 157 60 10 hvcurveto
          213 35 -124 142 -234 hhcurveto
          -246 -163 -154 -199 -33 hvcurveto
          -184 -31 92 -169 267 hhcurveto
          196 166 63 12 26 hvcurveto
          0 3 5 1 5 vhcurveto
          -243 143 rmoveto
          -44 -38 -52 -14 -34 hhcurveto
          -60 -47 55 128 21 hvcurveto
          129 21 66 54 60 hhcurveto
          35 46 -15 -43 24 hvcurveto
          endchar
        </CharString>
        <CharString name="atilde">
          559 553 -64 callsubr
          186 402 -93 callsubr
        </CharString>
        <CharString name="b">
          639 -6 36 384 36 189 55 hstem
          153 200 callgsubr
          146 callsubr
          -78 94 -145 hhcurveto
          -73 -55 -29 -20 -27 hvcurveto
          49 293 -179 -8 -7 -86 callgsubr
          -100 -600 26 callsubr
        </CharString>
        <CharString name="backslash">
          575 750 -20 hstem
          473 -219 rmoveto
          1 6 0 1 -3 13 -224 919 rcurveline
          17 -4 -3 13 -21 hhcurveto
          -14 -18 -11 -20 -3 hvcurveto
          -1 -6 1 -1 3 -13 223 -919 rcurveline
          -15 4 3 -15 21 hhcurveto
          14 18 11 20 3 hvcurveto
          endchar
        </CharString>
        <CharString name="baht">
          818 0 47 292 36 264 47 hstem
          377 48 9 48 9 48 cntrmask 00011100
          784 186 rmoveto
          16 96 -75 67 -117 9 111 19 75 60 13 77 rrcurveto
          92 15 -74 80 -161 hhcurveto
          -48 hlineto
          8 48 116 callsubr
          -8 -48 rlineto
          -338 -66 callgsubr
          -17 callsubr
          338 hlineto
          -8 -48 175 callgsubr
          8 48 rlineto
          78 hlineto
          166 99 88 98 16 hvcurveto
          -119 328 rmoveto
          -77 -13 -58 -62 -97 hhcurveto
          -9 hlineto
          44 264 rlineto
          35 hlineto
          101 4 -79 -46 -7 hvcurveto
          -225 -139 rmoveto
          -99 hlineto
          44 264 rlineto
          99 hlineto
          153 -452 rmoveto
          -12 -2 -21 -128 -144 hhcurveto
          -37 hlineto
          49 292 rlineto
          47 168 callsubr
          -252 -140 rmoveto
          -99 hlineto
          49 292 rlineto
          99 hlineto
          endchar
        </CharString>
        <CharString name="bar">
          319 750 -20 hstem
          95 61 91 61 vstem
          67 callgsubr
          endchar
        </CharString>
        <CharString name="bigcircle">
          113 callgsubr
          566 60 vstem
          -69 callsubr
          endchar
        </CharString>
        <CharString name="blanksymbol">
          639 -6 36 384 36 189 36 -36 55 hstemhm
          153 128 24 114 90 128 hintmask 01101100
          146 callsubr
          -78 94 -145 hhcurveto
          -73 -55 -29 -20 -27 hvcurveto
          24 146 120 86 6 4 4 7 2 7 rlinecurve
          114 callgsubr
          -6 -6 -2 -3 -4 hvcurveto
          -85 -61 rlineto
          hintmask 11011110
          14 85 -179 -8 -7 -86 callgsubr
          -13 -79 -68 -50 -7 -4 -4 -7 -1 -7 rlinecurve
          -13 -3 10 -11 13 hhcurveto
          6 5 2 3 4 hvcurveto
          35 25 -77 -459 26 callsubr
        </CharString>
        <CharString name="braceleft">
          575 -250 36 446 36 446 36 hstem
          254 111 cntrmask 11100000
          457 -232 rmoveto
          2 13 -4 4 -12 1 -83 5 -31 35 -6 36 -1 10 1 8 3 17 39 237 rcurveline
          6 42 -23 51 -82 23 124 32 12 69 7 45 35 210 rcurveline
          4 22 5 29 43 29 13 7 32 18 52 3 14 1 8 0 3 17 rrcurveto
          18 3 -9 0 -22 hhcurveto
          -142 -98 -50 -77 -14 hvcurveto
          -34 -206 -11 -62 -3 -21 -38 -29 rlinecurve
          -27 -21 -37 -14 -41 -2 -14 -1 -8 0 -3 -17 -2 -13 4 -4 12 -1 89 -5 28 -45 3 -36 1 -8 0 -2 -6 -37 -36 -210 rcurveline
          -128 -21 164 -11 67 hhcurveto
          22 9 0 18 3 hvcurveto
          endchar
        </CharString>
        <CharString name="braceright">
          575 -250 36 446 36 446 36 hstem
          cntrmask 11100000
          538 250 rmoveto
          2 13 -4 4 -12 1 -64 3 -47 26 -8 55 -2 8 0 2 7 39 35 210 rcurveline
          123 20 -149 16 -82 hhcurveto
          -21 -10 0 -18 -3 hvcurveto
          -2 -13 4 -4 12 -1 80 -4 36 -33 5 -39 2 -10 -2 -8 -2 -17 -40 -237 rcurveline
          -6 -42 23 -50 83 -24 -125 -32 -11 -68 -8 -46 -35 -210 rcurveline
          -4 -23 -4 -26 -42 -29 -11 -7 -34 -20 -55 -3 -14 -1 -8 0 -3 -17 rrcurveto
          -18 -3 10 0 21 hhcurveto
          150 92 54 73 13 hvcurveto
          35 206 11 65 3 17 39 31 rlinecurve
          13 11 36 22 54 3 14 1 8 0 3 17 rrcurveto
          endchar
        </CharString>
        <CharString name="bracketleft">
          319 -250 61 878 61 hstem
          251 -250 rmoveto
          10 61 rlineto
          -104 hlineto
          147 878 rlineto
          104 hlineto
          10 61 rlineto
          -165 hlineto
          -167 -1000 rlineto
          endchar
        </CharString>
        <CharString name="bracketright">
          319 -250 61 878 61 hstem
          148 -250 rmoveto
          167 1000 rlineto
          -165 hlineto
          -10 -61 rlineto
          104 hlineto
          -147 -878 rlineto
          -104 hlineto
          -10 -61 rlineto
          endchar
        </CharString>
        <CharString name="breve">
          575 513 183 callsubr
          582 700 -52 callgsubr
          endchar
        </CharString>
        <CharString name="breve.cap">
          575 496 183 callsubr
          579 683 -98 callsubr
          endchar
        </CharString>
        <CharString name="breve.ts1">
          703 508 183 callsubr
          226 36 410 36 vstem
          708 695 rmoveto
          -36 hlineto
          -97 -16 -128 -28 -80 hhcurveto
          -81 -122 26 99 17 hvcurveto
          -36 hlineto
          -123 -21 121 -64 112 hhcurveto
          109 140 63 124 21 hvcurveto
          endchar
        </CharString>
        <CharString name="brokenbar">
          319 750 -20 hstemhm
          95 61 0 61 -31 61 0 61 hintmask 10001000
          247 341 rmoveto
          61 365 156 callgsubr
          -61 -365 rlineto
          -14 -2 13 -10 16 hhcurveto
          15 17 10 14 2 hvcurveto
          -91 -547 rmoveto
          hintmask 00100000
          61 365 rlineto
          14 2 -13 10 -15 hhcurveto
          -16 -17 -10 -14 -2 hvcurveto
          hintmask 01000000
          -61 -365 159 callsubr
        </CharString>
        <CharString name="bullet">
          894 77 304 hstem
          333 304 88 callsubr
          endchar
        </CharString>
        <CharString name="c">
          103 callgsubr
          hstem
          400 125 vstem
          -77 callsubr
          -133 -22 78 -95 154 hhcurveto
          162 49 116 7 2 hvcurveto
          endchar
        </CharString>
        <CharString name="cacute">
          103 callgsubr
          89 callsubr
          400 125 hintmask 11001000
          -77 callsubr
          -133 -22 78 -95 154 hhcurveto
          162 49 116 7 2 hvcurveto
          hintmask 00110000
          37 525 -93 callgsubr
        </CharString>
        <CharString name="caron">
          575 144 callgsubr
          580 688 -42 callgsubr
        </CharString>
        <CharString name="caron.cap">
          184 callgsubr
          165 -20 hstem
          568 627 -60 callgsubr
        </CharString>
        <CharString name="caron.ts1">
          703 572 -21 165 -20 hstem
          680 673 rmoveto
          -13 43 -210 -83 -139 63 -45 20 -27 -43 197 -122 rlineto
          endchar
        </CharString>
        <CharString name="ccaron">
          103 callgsubr
          71 -21 207 -20 hstemhm
          400 125 hintmask 11001000
          -77 callsubr
          -133 -22 78 -95 154 hhcurveto
          162 49 116 7 2 hvcurveto
          hintmask 00110000
          76 571 -42 callgsubr
        </CharString>
        <CharString name="ccedilla">
          103 callgsubr
          hstemhm
          288 128 -16 125 hintmask 11010000
          -77 callsubr
          -19 -117 58 -88 119 -19 -14 -79 rcurveline
          hintmask 00100000
          35 39 -5 -30 -5 hvcurveto
          -36 -6 -87 0 -68 hhcurveto
          -24 153 callgsubr
          48 hlineto
          117 142 206 callgsubr
          5 30 128 18 41 96 1 6 rlinecurve
          endchar
        </CharString>
        <CharString name="ccircumflex">
          103 callgsubr
          71 -21 207 -20 hstemhm
          400 125 hintmask 11001000
          -77 callsubr
          -133 -22 78 -95 154 hhcurveto
          162 49 116 7 2 hvcurveto
          hintmask 00111000
          49 408 -57 callgsubr
          endchar
        </CharString>
        <CharString name="cdotaccent">
          103 callgsubr
          76 156 hstemhm
          304 156 -60 125 hintmask 11001000
          -77 callsubr
          -133 -22 78 -95 154 hhcurveto
          162 49 116 7 2 hvcurveto
          hintmask 00110000
          -38 490 -94 callsubr
          endchar
        </CharString>
        <CharString name="cedilla">
          28 callgsubr
        </CharString>
        <CharString name="cedilla.dup">
          28 callgsubr
        </CharString>
        <CharString name="cent">
          103 callgsubr
          -1 40 hstemhm
          204 128 -83 48 -48 125 -118 48 -48 125 -42 48 13 125 -97 48 hintmask 1100010000100000
          498 117 rmoveto
          14 2 -14 0 -10 hhcurveto
          -18 -1 -2 -13 -8 hvcurveto
          -63 -36 -51 -19 -51 hhcurveto
          63 379 28 -1 14 -2 12 -3 rlinecurve
          hintmask 0100000101000000
          -21 -16 -5 -21 -2 -9 rrcurveto
          -44 -7 32 -19 27 hhcurveto
          31 35 21 42 7 hvcurveto
          13 79 -97 12 -60 1 rrcurveto
          hintmask 0011000010000000
          6 39 rlineto
          14 2 -9 10 -13 hhcurveto
          -13 -13 -10 -14 -2 hvcurveto
          -7 -40 -156 -14 -83 -108 -18 -108 rlinecurve
          hintmask 0000001000000000
          -21 -124 67 -92 135 -11 rrcurveto
          hintmask 0000100000000000
          -7 -43 175 callgsubr
          hintmask 0000001000000000
          7 43 147 8 45 107 2 7 rlinecurve
          -234 -76 rmoveto
          hintmask 0001000000000000
          -86 30 19 116 7 40 8 50 18 108 95 24 rrcurveto
          endchar
        </CharString>
        <CharString name="cent.oldstyle">
          511 -43 40 -3 40 0 40 339 40 hstemhm
          256 128 -33 125 -109 48 -15 125 -97 48 hintmask 0100100010000000
          498 117 rmoveto
          14 2 -14 0 -10 hhcurveto
          -18 -1 -2 -13 -8 hvcurveto
          -63 -36 -51 -19 -51 hhcurveto
          -22 -18 4 6 -15 hvcurveto
          hintmask 0000000100000000
          144 368 rlineto
          hintmask 0000000010000000
          12 -2 9 -1 7 -2 rrcurveto
          hintmask 0000000100000000
          -21 -16 -5 -21 -2 -9 rrcurveto
          -44 -7 32 -19 27 hhcurveto
          31 35 21 42 7 hvcurveto
          hintmask 0000001000000000
          11 65 -64 20 -57 5 14 36 rcurveline
          15 6 -9 14 -15 hhcurveto
          hintmask 0000100000000000
          -12 -10 -8 -10 -5 hvcurveto
          hintmask 1001001000000000
          -17 -45 rlineto
          -179 -94 -115 -116 -19 hvcurveto
          -17 -103 43 -81 92 -30 -19 -51 rcurveline
          -15 -6 9 -14 15 hhcurveto
          12 10 8 11 5 hvcurveto
          19 50 rlineto
          hintmask 0100000000000000
          -2 15 16 -1 16 hhcurveto
          162 49 116 7 2 hvcurveto
          -147 296 rmoveto
          hintmask 0011010000000000
          -132 -339 -33 47 13 75 5 31 rlinecurve
          9 54 20 123 118 9 rrcurveto
          endchar
        </CharString>
        <CharString name="centigrade">
          1086 -10 47 394 62 -47 47 133 62 -52 62 -47 47 -47 48 hstemhm
          482 47 484 47 hintmask 1010010110000000
          1059 225 rmoveto
          1 6 rlineto
          13 2 -5 5 -13 hhcurveto
          -9 hlineto
          -12 -8 -4 -14 -2 hvcurveto
          -2 -7 rlineto
          -119 -30 -123 -68 -111 hhcurveto
          -84 -90 32 77 -35 hvcurveto
          -26 57 7 76 10 65 11 64 17 66 40 57 rrcurveto
          84 59 105 36 91 hhcurveto
          117 72 -92 -113 hvcurveto
          -13 1 3 -6 15 hhcurveto
          10 hlineto
          10 11 2 12 4 hvcurveto
          39 236 rlineto
          hintmask 0000001000000000
          10 2 -1 12 -13 hhcurveto
          -9 -10 -6 -6 -7 hvcurveto
          -52 -41 rlineto
          -4 -6 -7 -9 -7 hhcurveto
          hintmask 0000100000000000
          -3 -3 2 1 -2 hvcurveto
          -10 9 rlineto
          hintmask 0000001000000000
          35 -47 -57 19 -64 hhcurveto
          hintmask 1000100100000000
          -8 -7 0 -1 -9 hvcurveto
          -120 -14 -113 -23 -99 -102 -57 -59 -36 -80 -12 -75 -15 -87 16 -87 48 -64 rrcurveto
          -84 65 115 -33 112 hhcurveto
          135 170 75 160 36 hvcurveto
          -709 336 rmoveto
          hintmask 0101000000000000
          75 12 -49 52 -70 -5 -5 -1 -4 hhcurveto
          -77 -10 -48 -52 -11 -66 rrcurveto
          -77 -13 48 -51 71 hhcurveto
          78 61 59 71 12 hvcurveto
          -63 -1 rmoveto
          -40 -6 -30 -27 -42 hhcurveto
          -38 -19 22 36 1 hvcurveto
          1 8 rlineto
          38 7 27 29 43 hhcurveto
          38 21 -22 -36 -1 hvcurveto
          endchar
        </CharString>
        <CharString name="circumflex">
          575 144 callgsubr
          553 525 -57 callgsubr
          endchar
        </CharString>
        <CharString name="circumflex.cap">
          184 callgsubr
          165 -20 hstem
          548 510 -46 callgsubr
        </CharString>
        <CharString name="circumflex.dup">
          575 144 callgsubr
          553 525 -57 callgsubr
          endchar
        </CharString>
        <CharString name="colon">
          319 0 156 132 156 hstemhm
          94 156 -108 156 hintmask 11010000
          298 366 -94 callsubr
          -48 -288 rmoveto
          133 callsubr
          hintmask 10100000
          145 callsubr
          endchar
        </CharString>
        <CharString name="colonmonetary">
          102 callsubr
          201 callsubr
          151 48 -42 48 62 48 -40 48 -42 48 hintmask 11000100
          804 227 rmoveto
          20 3 -7 1 -17 hhcurveto
          -13 -9 0 -17 -3 hvcurveto
          -134 -30 -131 -61 -101 hhcurveto
          -9 hlineto
          102 614 rlineto
          6 hlineto
          -48 callgsubr
          hintmask 01000010
          -49 46 -59 19 -63 3 rrcurveto
          hintmask 00000001
          6 37 116 callsubr
          hintmask 00101010
          -6 -38 -232 -13 -163 -144 -33 -196 rlinecurve
          -32 -196 115 -144 227 -13 rrcurveto
          hintmask 00010000
          -6 -38 175 callgsubr
          hintmask 10101100
          6 37 179 7 127 119 19 112 rlinecurve
          -364 -187 rmoveto
          -59 10 -53 25 -32 46 -37 57 0 75 15 90 10 56 21 108 74 66 53 46 60 20 49 7 rrcurveto
          endchar
        </CharString>
        <CharString name="comma">
          319 -173 -21 194 156 hstem
          255 31 rmoveto
          68 12 -25 57 -58 hhcurveto
          -46 -37 -12 callgsubr
          -40 -7 21 -38 51 hhcurveto
          32 23 17 3 3 hvcurveto
          -26 -109 -74 -53 -24 -18 -7 -5 -3 -3 -1 -6 rrcurveto
          -10 -2 10 -10 8 hhcurveto
          15 119 86 139 23 hvcurveto
          endchar
        </CharString>
        <CharString name="copyleft">
          113 callgsubr
          330 60 176 60 vstem
          -69 callsubr
          -109 hmoveto
          90 15 -56 66 -109 hhcurveto
          -30 -31 -8 -22 -31 hvcurveto
          -24 26 rlineto
          3 -4 0 1 -4 hhcurveto
          -8 0 -4 -9 -2 hvcurveto
          -16 -94 rlineto
          -12 -2 0 0 12 hhcurveto
          10 0 0 9 3 hvcurveto
          56 19 48 33 47 hhcurveto
          23 38 -5 -29 23 hvcurveto
          23 -29 -7 -47 -4 -25 -6 -40 -11 -33 -25 -25 rrcurveto
          -26 -27 -39 -11 -34 hhcurveto
          -44 -50 27 59 7 hvcurveto
          7 1 -4 0 -6 hhcurveto
          -7 -3 0 -9 -1 hvcurveto
          -51 -9 40 -54 83 hhcurveto
          109 78 66 90 15 hvcurveto
          endchar
        </CharString>
        <CharString name="copyright">
          113 callgsubr
          176 60 104 60 166 60 vstem
          -69 callsubr
          -157 -51 rmoveto
          9 1 -3 0 -7 hhcurveto
          -6 -4 0 -7 -1 hvcurveto
          -59 -13 -58 -27 -44 hhcurveto
          -34 -35 11 26 -19 hvcurveto
          -17 25 1 33 6 40 4 25 9 47 33 29 rrcurveto
          29 34 39 5 23 hhcurveto
          47 36 -33 -56 1 hvcurveto
          -9 -1 0 0 11 hhcurveto
          11 0 0 12 2 hvcurveto
          16 94 rlineto
          9 2 0 4 -7 hhcurveto
          -4 -1 -1 -3 -4 hvcurveto
          -34 -26 rlineto
          22 -23 -29 8 -30 hhcurveto
          -109 -78 -66 -90 -15 hvcurveto
          -90 -15 56 -66 109 hhcurveto
          83 58 54 51 9 hvcurveto
          endchar
        </CharString>
        <CharString name="copyright.alt">
          796 -176 60 676 60 hstem
          37 60 524 60 92 60 vstem
          833 222 rmoveto
          244 41 -129 154 -244 hhcurveto
          -244 -179 -154 -244 -41 hvcurveto
          -244 -41 129 -154 244 hhcurveto
          244 179 154 244 41 hvcurveto
          -60 hmoveto
          -207 -34 -153 -131 -207 hhcurveto
          -207 -109 131 207 34 hvcurveto
          208 35 152 130 207 hhcurveto
          207 110 -130 -208 -35 hvcurveto
          -139 -75 rmoveto
          13 2 -4 1 -11 hhcurveto
          -9 -5 0 -11 -3 hvcurveto
          -87 -19 -85 -40 -65 hhcurveto
          -51 -51 16 39 -28 hvcurveto
          -24 37 0 49 10 58 6 36 14 70 47 43 rrcurveto
          43 50 57 7 34 hhcurveto
          70 53 -49 -82 -13 1 -1 15 17 0 1 17 3 hvcurveto
          23 139 rlineto
          13 2 1 5 -11 hhcurveto
          -6 -1 -1 -4 -7 hvcurveto
          -48 -39 rlineto
          33 -36 -41 11 -44 hhcurveto
          -161 -115 -96 -133 -22 hvcurveto
          -133 -22 83 -96 161 hhcurveto
          121 86 80 74 13 hvcurveto
          endchar
        </CharString>
</ttFont>
